<?xml version="1.0" standalone="no"?>
<!DOCTYPE svg PUBLIC "-//W3C//DTD SVG 1.1//EN" "http://www.w3.org/Graphics/SVG/1.1/DTD/svg11.dtd" >
<svg xmlns="http://www.w3.org/2000/svg" xmlns:xlink="http://www.w3.org/1999/xlink" version="1.1">
<metadata></metadata>
<defs>
<font id="blackwood_castleregular" horiz-adv-x="837" >
<font-face units-per-em="2048" ascent="1638" descent="-410" />
<missing-glyph horiz-adv-x="751" />
<glyph horiz-adv-x="0" />
<glyph horiz-adv-x="682" />
<glyph horiz-adv-x="669" d="M532 1350q-16 14 -43 92q-23 59 -65 74l-6 10q-102 12 -115 12h-10q-29 -12 -43 -18q-41 -25 -68 -93q-29 -68 -45 -77q29 -31 35 -43q4 -43 55 -82q27 -20 50.5 -33.5t46.5 -17.5l46 4t46 6l8 8l8 2q10 12 19.5 21.5l15.5 15.5l18 12q14 70 31 92zM432 1362 q-23 -74 -37 -94q-10 -4 -14 -15q-16 -2 -25 -2h-6h-4t-14 2l-10 9l-9 14h-18l-31 18q-4 29 -12 41l-4 39q4 16 4 21l33 47l20 6l12 12l64 -6l29 -20l14 -52l6 -8z" />
<glyph unicode="&#xd;" horiz-adv-x="501" d="M461 233q-23 16 -37 26.5t-25 14.5q-16 12 -16 66q-2 61 -6 72l4 30l-19 13l17 10q2 16 2 22v9v30l-8 19l-8 4l-11 20q-2 6 8 39l7 8q2 20 3 34t1 24q0 154 16 198q6 2 12.5 4.5t10.5 4.5q10 14 16 27.5t10 25.5v6l-14 18q-47 18 -62 19q-6 2 -43 39q-16 16 -30.5 28.5 t-28.5 16.5q-14 18 -33 29h-10l-6 8l-39 4q-10 -10 -17.5 -19.5t-13.5 -13.5q-2 -8 4.5 -32.5t6.5 -32.5q0 -6 -2 -9q-12 -6 -21 -20l-4 -12q-29 -37 -43 -39q-6 -8 -12.5 -14.5l-14.5 -14.5l-4 -29l4 -18q8 -6 18.5 -13.5t26.5 -5.5q20 -20 21 -81v-5q0 -2 -2 -6 q4 -12 5 -21t3 -14q-8 -18 -2 -53l-8 -14l-2 -12q12 -35 12 -56q0 -78 -10 -98q2 -6 3 -19.5t-1 -35.5q0 -41 -6 -54l6 -24l-6 -23q4 -18 -4 -37q-10 -31 -11 -36q-16 -16 -27.5 -26.5t-19.5 -18.5l-4 -25l4 -14l8 -9l4 -12q4 -2 19.5 -7t42.5 -13q45 -16 72 -45l10 -2 q51 -68 123 -68l22 18l6 15v16l-12 31q0 12 9.5 27.5t23.5 30t29.5 26.5t27.5 18q25 37 25 51z" />
<glyph horiz-adv-x="573" d="M709 1247v21q0 10 -2 20l-23 19q-12 -2 -37 4l-8 -6l-8 -2q-49 -84 -68 -138q-20 -29 -34.5 -50t-24.5 -36q0 -8 -17 -30l2 -19l-16 -33l-22 -18h-9q-113 -174 -112 -178q-27 -20 -60 -82q-59 -96 -96 -146q-4 -10 -8 -18l-6 -12q-16 -23 -28.5 -40.5t-22.5 -27.5 q-244 -371 -244 -414v-6t2 -18q2 -4 3 -8t3 -9l18 -20l19 -4l6 -4q12 2 25.5 7t27.5 30l4 22q27 39 29 60q29 53 51.5 90t36.5 57q133 188 152 244l32 24q6 16 10.5 28.5t8.5 23.5q20 14 31 30q47 72 91 134.5t83 117.5l-6 8q4 8 12 19.5t18 27.5l21 11q4 8 15 27.5t32 54.5 q39 68 53 84l2 8q64 77 64 147z" />
<glyph horiz-adv-x="1067" d="M1026 223q-10 16 -29 25l-9 3t-25 9q-10 45 -14.5 80t-6.5 59q6 20 4 33l-18 12l18 9v63l-8 19l-8 4l-10 20q-4 16 14 47q6 57 6 58q0 170 16 198q6 2 23 6l25 54v8l-13 18q-23 10 -37 14.5t-22 6.5q-10 2 -47 39q-35 35 -60 43l-14 18l-16 10h-13l-6 8q-8 2 -18 3 q-10 0 -21 2q-4 -10 -22 -21l-8 -14v-8l4 -9q-23 -16 -129 -18h-70q-33 0 -61.5 1t-50 3t-29.5 8l-49 -30q18 27 24 49l21 22q6 25 6 43q0 76 -29 115l-20 12l-5 58q84 6 87 8l24 -8q12 -6 19 -21l16 -10l14 2q39 -78 72 -111q16 -10 35 -14l12 2l16 12l7 11q2 20 2 30v15 q18 25 57 45q41 20 55 39l2 14l-6 29q-29 10 -51 6q-41 12 -145 133q-14 4 -21 5l-6 1h-23l-22 -14q-14 -61 -88 -91q-14 -4 -48 -11t-87 -17q-109 -18 -103 -19h-47l-20 -18l-4.5 -9l-4.5 -9l9 -29l12 -17l22 -10q23 -23 29 -35q0 -14 3 -43.5t3 -44.5q0 -66 13 -80l-5 -14 l-22 4q-6 -2 -12.5 -4t-10.5 -4q-90 0 -79 2q-4 -31 -7.5 -56.5t-3.5 -47.5v-9l8 -18q6 0 17.5 -4t17.5 -4q8 0 23.5 4t21.5 4q8 0 24.5 -2t22.5 -2l-8 -12q0 -84 -4 -101l4 -14q-4 -16 -5 -26l-1 -9v-10l6 -10q2 -20 -12 -76l10 -23q0 -25 4 -70.5t4 -70.5q0 -27 -6 -39 l-12 -10l-2 -8l2 -8l6 -9v-16q0 -113 -12 -139l2 -13q-10 -16 -18.5 -28.5t-16.5 -20.5l-2 -28q10 -16 23.5 -21.5t19.5 -11.5h21q16 -6 29.5 -12.5t27.5 -12.5l6 -8h8l10 -12q23 -12 45 -19q27 -23 43 -30q2 0 45.5 -18.5t73.5 -18.5h4q4 0 15 2q31 14 39 26v25 q-2 6 -21 20l-4 13q4 10 15.5 25.5t31.5 33.5q41 37 49 64l-10 24l-10 10q-35 12 -43 11l-6 4q-8 0 -80 14l-15 23l-30 -11l-41 9l-4 10q20 35 30.5 54.5t14.5 23.5q8 29 12 47q2 23 3 39t1 26l-6 23q10 20 11 45.5t1 44.5q0 6 -2 8l-10 8q-2 6 -4 32t-4 73q-2 86 0 94 l12 68q35 2 51 2h17q111 0 157 -25l9 -16l16 -15q14 -6 29 -4q20 -20 20 -82v-4q0 -2 -2 -6q4 -12 5 -21.5t3 -13.5q-8 -20 -2 -55q-10 -16 -10 -25q14 -23 14 -98q0 -35 -12 -55q2 -6 3 -19.5t-1 -36.5q0 -41 -6 -53l6 -24l-6 -23q4 -14 -14 -74q-14 -16 -25.5 -26 t-20.5 -19l-3 -18l-1 -6v-4q0 -2 2 -11q12 -8 15 -20l10 -6q68 -10 121 -60l10 -2l29.5 -29.5t23.5 -21.5q23 -4 41.5 -7t28.5 -7l23 16l6 15v16l-13 31q2 8 7 20q29 49 83 82q23 28 25 51z" />
<glyph horiz-adv-x="1060" d="M1059 1409q0 -2 -1 7t-3 30l-17 16q-20 14 -57 8l-8 5q-6 0 -62 -23q-23 -35 -38 -59.5t-19 -40.5l8 -13l-4 -10l-12 -4q-51 55 -101 82q-27 -4 -59 20q-14 10 -26.5 18.5t-26.5 18.5q-109 14 -156 20.5t-37 6.5h-22l-23 -14q-20 -86 -170 -125q-90 -12 -135 -13l-20 -18 l-4.5 -9l-4.5 -9l9 -29l12 -17l22 -10q23 -23 29 -35q0 -14 3 -42.5t3 -43.5q0 -68 13 -82l-5 -14l-22 4q-6 -2 -12.5 -4t-10.5 -4q-90 0 -79 2q-4 -31 -7.5 -56.5t-3.5 -47.5v-9l8 -18q6 0 17.5 -4t17.5 -4q8 0 23.5 4t21.5 4q8 0 24.5 -2t22.5 -2l-8 -12q0 -84 -4 -101 l4 -14q-4 -16 -5 -26l-1 -9v-10l6 -10q2 -20 -12 -76l10 -23q0 -25 4 -70.5t4 -70.5q0 -27 -6 -39l-12 -10l-2 -8l2 -8l6 -9v-16q0 -113 -12 -139l2 -13q-10 -16 -18.5 -28.5t-16.5 -20.5l-2 -28q10 -16 23.5 -21.5t19.5 -11.5h21q16 -6 29.5 -12.5t27.5 -12.5l6 -8l8 2 l10 -14l45 -19q14 -20 74 -45q61 -23 88 -22h4t15 2q31 14 39 26v25q-2 6 -21 20l-4 13q4 10 15.5 25.5t31.5 33.5q41 37 49 64l-10 24l-10 10q-35 12 -43 11l-6 4q-8 0 -80 14l-15 23l-30 -11l-41 9l-4 10q20 35 30.5 54.5t14.5 23.5q8 29 12 47q2 23 3 39t1 26l-6 23 q10 20 11 45.5t1 44.5q0 6 -2 8l-10 8q-16 51 -8 199l4 70l8 4l62 4l24 -17q-2 -72 2 -86l12 -6h45q20 14 33 47q2 10 2 17q0 8 2 12q-6 57 -6 68l-6 14l2 20l-8 2h10q18 33 27 56q2 14 -4 33l-17 18q-39 2 -59 -14l-6 -9q-27 -16 -66 -16q-55 0 -65 8l-49 -28q18 25 24 49 l21 20q6 20 6 45q0 70 -29 115l-20 10l-5 60l19 6q27 -6 35 -15l8 -14q45 -2 89 -4t89 -6q14 -10 49 -62q33 -51 56 -57l12 -2q2 -70 3 -103.5t1 -35.5l2 -8l-2 -9q0 -41 25 -61l-13 -12q-10 -16 -10 -74v-57q0 -23 2 -31l4 -8l-4 -11l6 -18q0 -12 -2 -31.5t-6 -46.5l4 -12 q0 -12 -6 -37t-6 -39q14 -27 10 -55l6 -4l6 -11q-10 -27 -8 -63l-10 -6q6 -31 0 -72l-6 -10l4 -23l6 -10l-6 -12v-43l-14 -29q-39 -14 -50 -45q2 -23 6 -31q4 -4 66 -37q57 -29 78 -36l16 -21q27 -16 45.5 -29.5t30.5 -21.5h10l8 -6l19 -4l14 2l17 14l10 27l-6 20 q-12 12 -21 37q6 29 41 51l23 4l6 15q43 27 57 57q2 16 -2 29l-20 18q-45 8 -58 19q-14 63 -20 71l2 17l-10 37q4 8 5 23t1 30v30t4 21q-10 51 -8 68l-15 2q10 20 11 36q0 10 -2 21v22l4 11l6 6q2 94 -12 127q6 16 4 22l-4 11q-4 25 12 49q-2 20 4 37q-2 10 -2 30l-10 9 l2 16l-9 16q4 16 15 144q8 123 6 155q14 27 18 45l21 21q27 10 45 19t31 14z" />
<glyph horiz-adv-x="1118" d="M756 877l-23 30l-16 4q-10 -2 -19 -2h-14q-39 -12 -80 -57q-49 -53 -92 -74q4 12 4 15l-8 32l4 13l-2 18l8 8q-8 14 -8 72q0 96 8 106q0 59 12 97q14 14 23.5 23t17.5 16q29 4 54.5 6t48.5 2l39 18h18l14 -10q37 2 56 6l6 6l16 -2l11 10q20 4 44.5 31t28.5 49 q6 27 -16 52l-25 18q-2 0 -15 1t-36 3q-47 -27 -67 -47q-53 -31 -164 -31h-72q-20 0 -12 2l-8 -4h-15l-8 -4l-8 -4l8 -6q-10 -2 -16 -2h-7h-10l-18 12q-6 0 -24.5 3t-26.5 3h-5q-2 0 -6 -2q-57 10 -71 4q-2 2 -6 2q-51 0 -54 -2q-76 10 -112 13q-10 -4 -19.5 -8.5 t-15.5 -8.5l-15 -20l-4 -17l4 -26q16 -14 28.5 -23.5t19.5 -13.5q8 2 43 -8q16 -10 32 -35q10 -45 11 -74v-43q0 -10 2 -2q0 -4 -3 -14.5t-3 -16.5q0 -10 3 -33.5t3 -33.5v-39q-2 -14 -2 -25v-16q0 -2 -5.5 -15.5t-5.5 -17.5q0 -8 5.5 -20.5t5.5 -18.5q0 -16 -2 -20 q6 -29 6 -51q0 -4 -2 -11v-10l6 -2q-4 -2 -8 -2q-2 0 -7 -2l-16 4q-70 -16 -115 -43q-14 -18 -12 -45q14 -18 21 -21q8 -23 6 -30q-59 -86 -56 -133q6 -8 11 -21l16 -14l35 4q61 41 76 59l-2 8l30 25h4q2 -78 -12 -104q12 -33 2 -66l6 -8v-21l6 -16l-12 -16l-2 -17l-8 -12 l2 -8q-4 -29 -23 -51q-8 -6 -14 -11.5t-10 -9.5q-14 -10 -28.5 -19.5t-31.5 -19.5q-37 -31 -45 -55l-3 -27l-1 -10q0 -4 4 -25l25 -32q20 -12 37 -13h16q14 8 25 9q29 23 51.5 41t38.5 34q29 4 41 7.5t4 3.5h109q20 -4 28 -7q29 -4 51.5 -8t38.5 -8l17 6l20 -12l27 4l14 -10 q6 0 53 -8q12 4 21 2l10 -7l25 5q68 -12 112 -13l21 21v8l14 -23l19 5q23 -6 88 16l14 -2l6 4q8 0 21.5 4t19.5 4l23 17l10 2q2 10 4 21t4 28l-20 12q-18 25 -17 45q-25 57 -24 80q0 2 2 10t2 12l-21 46q2 12 -4 26q2 27 3 40l1 13l-1 4l-3 15l4 24l-10 11l8 10q2 35 2 53 t2 23l11 12l2 33q6 10 12 41l14 18l15 4l10 -2l20 4q10 10 13 17l10 -2q12 4 23.5 24.5t11.5 32.5q0 20 -15 51q-16 18 -51 29l-10 -4q-16 6 -25 4l-4 -10q-12 0 -18 2q-23 -10 -35 -13v-8l-19 -6l-6 -12q-12 -6 -20 -21l-12 -6l-3 -16l-20 -2q-6 -14 -6 -25q0 -8 -14 -39 q-10 -25 -11 -41l-8 -14l-2 -14q-27 -37 -22 -66l-9 -8q-2 -6 -10 -23v-10l6 -10l-8 -21l6 -18v-19l-10 -10l-2 -24l-10 -7q-2 -10 -2 -14v-4v-8l8 -12q-4 -12 -9.5 -25.5t-11.5 -28.5q0 -98 -69 -116q2 0 -56 12v10q-18 4 -45 33q-31 61 -30 102q0 49 -7 66l-6 2l-4 12 q4 4 7 11.5t8 15.5l2 37l-17 6v6l6 8q-2 8 -6 29q2 8 3 15t-1 18l-6 6q4 29 -6 59q2 2 2 8q119 33 162 68q20 31 16 43q-6 20 -16 31l4 32q27 45 45.5 79t30.5 57z" />
<glyph horiz-adv-x="749" d="M743 799l-22 28l-16 7q-10 -2 -19 -3q-8 0 -14 -2q-39 -10 -84 -61q-23 -27 -47.5 -44t-46.5 -28q4 78 -13 107q6 16 4 22l-4 11q-4 25 13 49q-2 20 4 37q-2 10 -2 30l-11 9l2 16l-8 16q4 16 15 144q8 123 6 155q33 59 39 66q27 10 45 19t30 14l9 18q0 -2 -1 7t-4 30 l-16 16q-20 14 -57 8l-8 5q-6 0 -62 -23q-23 -35 -38 -59.5t-19 -40.5l8 -13l-4 -10l-12 -4q-61 59 -101 82q-4 0 -14 2t-23.5 5t-24.5 5t-18 2h-8t-24 -2l-17 -12l-10 -18l4 -21l12 -18q10 -4 41 -41q4 -23 6.5 -40.5t4.5 -29.5q2 -72 4 -126t6 -91l-4 -10l2 -8l-2 -9 q0 -41 24 -61l-12 -12q-12 -23 -12 -109l1 -13q1 -14 3 -40l4 -8l-4 -11l6 -18q0 -23 -2 -48.5t-6 -53.5l-10 -3q-29 -12 -60 -18l-16 2q-68 -16 -113 -43q-14 -14 -14 -45q16 -16 22 -20q8 -18 6 -31q-57 -86 -55 -131q4 -8 6 -13.5t4 -9.5l17 -14l35 6q61 39 75 59l-4 7 l33 26l14 2l23 11l8 10l29 4l-4 -2q6 -31 0 -72l-6 -10l4 -23l6 -10l-6 -12v-43l-15 -29q-41 -23 -49 -45q2 -23 6 -31q4 -4 66 -37q57 -29 78 -36l16 -21q27 -16 45.5 -29.5t30.5 -21.5h10l8 -6l19 -4l14 2l16 14l11 27l-4 20l-11 10l-12 27q6 29 41 51l22 4l7 15 q43 27 57 57q2 16 -2 29l-21 18q-45 8 -57 19q-10 41 -17 72.5t-12 52.5q4 10 6.5 18t4.5 16q-2 12 -2 25v22q125 37 166 68q20 33 18 43q-6 23 -16 33l2 33q27 45 45 78.5t32 56.5z" />
<glyph horiz-adv-x="1249" d="M1104 481q63 25 63 97q0 35 -16 51q-27 14 -64 14q-27 -2 -63.5 -43t-36.5 -65l12 -9q-10 -16 -19 -26.5t-15 -18.5q-4 -53 -82 -174v-10l-13 -10v-15l-10 -16q-45 -39 -61 -66q-29 -20 -51.5 -34.5t-38.5 -22.5l-4 -12l-17 -6l-8 14h-10l-11 -6l-8 -10l-18 -7 q-10 0 -40 3.5t-44 1.5l-25 24l-6 17q2 14 2 20v6v4q0 6 -2 17q14 33 22.5 54t12.5 34q16 20 26.5 34.5t16.5 24.5q23 20 39 34.5t29 22.5l3 15l1 4v8l-4 10l-19 2v13q55 61 84 90q49 70 64.5 94.5t21.5 38.5l23 14l8 15v6l14 30l17 11l4 26l-4 11q4 10 8 17t8 15l25 21 q2 23 14 41l8 4q8 31 29 47q0 18 4 31q37 37 69 86l2 12q47 59 78 174q14 12 21 43l-10 35l-21 10l-12 -4t-15 -6l-10 -10q-31 -10 -41 -13q-90 -18 -184 -12l-10 -14l-74 4l-10 10l-13 -2q-20 4 -159 4q-8 0 -30 -3t-30 -3q-47 2 -78 6l-51 -12l-6 10l-12 8q-27 4 -41 6 t-19 4l-10 9q-4 27 -14 35t-31 14h-12q-82 -37 -82 -172q0 -2 1 -16.5t3 -41.5q4 -49 2 -53l4 -20l-2 -11q8 -12 12 -30q-6 -14 2 -37q-10 -35 3 -66q-2 -10 -3 -24l5 -10q-12 -45 -11 -66l-6 -10l-10 -8l-12 4l-39 -6l-23 -21q-12 -25 -12 -37q0 -18 8 -43 q14 -14 25.5 -23.5t19.5 -13.5q20 -2 29 -2h10q53 0 105 76q51 70 49 123q4 8 9 14t9 15v10q33 88 37 98l14 19l2 22h13l12 16l2 11l-6 20l20 27l13 -4l14 4l-8 -8l22 18l8 2q12 10 27 41l16 8l13 -6q16 6 28.5 12.5t20.5 10.5q12 2 27.5 3t31.5 1q31 0 58 -33 q2 -10 3 -24.5t1 -34.5q0 -27 -41 -93q-23 -35 -34 -56t-13 -30q-33 -39 -54 -69l-2 -13q-8 -6 -26 -24v-12l-31 -37l-4 -17q-45 -51 -61 -84l2 -12l-19 -4q-43 -45 -65 -88q-8 -2 -23 -27l-16 -8q-4 -14 -19.5 -35.5t-38.5 -50.5q-47 -59 -55 -92l-16 -21l2 -14l-6 -12 l-13 -2l-16 -15q-16 -47 -25 -55l4 -20q-6 -33 -28 -49q-10 -47 -16.5 -79t-6.5 -48q0 -49 27 -70q20 -10 29 -16q20 -2 36 4q29 25 52 61q55 12 96 12q10 0 29.5 -2t52.5 -6q66 -6 71 -8h7l8 -4h24l6 6l13 4l22 -6l17 -14q10 -2 16 -3l6 -1q4 0 14.5 2t14.5 2 q8 0 24.5 -4.5t22.5 -4.5h12v15l31 2l18 -23q39 2 146 6q96 0 143 9q41 8 66 12l20 12l6 13q2 14 -6 30l-10 4l-8 11l-6 20l4 8q-4 31 -6 39l2 8l-9 15q8 35 17 51v8l-15 19l-8 2l-3 18l-1 6q0 20 6 31q0 6 -1 18.5t-3 28.5q-6 31 0 49l-4 17q2 14 4 23t6 17l11 9 q0 10 10 26zM975 1667l-10 16l-4 21l-15 18l-31 7q-35 -10 -47 -15q-10 -14 -88 -53q-78 -41 -92 -41q-31 0 -94 31q-61 31 -82 57h-10l-4 8l-17 13q-10 2 -16 2h-4l-7 -1q-8 -1 -22 -4q-16 -16 -16 -45v-4q0 -4 2 -14q12 -29 37 -49q6 0 39 -33q39 -33 43 -39q8 -4 13 -7 t9 -7q14 -8 23.5 -14.5t17.5 -10.5q2 -2 10 -9t25 -24q20 -20 43 -20q10 0 61 23l11 14q10 4 131 84l14 2l6 8q25 4 33 10v15q23 16 35 34z" />
<glyph horiz-adv-x="743" d="M709 322q2 18 1 30.5t-3 18.5l-13 16q-12 0 -20 8l-37 -16l-33 -35l-4 -10q-23 -18 -41 -29.5t-29 -15.5q-4 0 -16 -3t-18 -3q-14 0 -36 2t-50.5 6t-48 7t-33.5 3q-57 0 -72 -18q4 10 6 18t4 18q35 41 35 62q29 41 56.5 79t52.5 72h16q43 0 59 -6q20 2 39 2q18 0 37 2 q47 4 72 23q16 18 18 33v26l-16 29l-17 10l-28 4q-47 -12 -84 -18q-4 10 -6 16l-2 6v9q35 35 67.5 82t61.5 104q10 27 19 47.5t13 34.5l9 6q10 31 12 41l-4 8q2 16 4 29.5t4 21.5q-4 49 -6 56l-23 20l-28 -2q-16 -12 -27.5 -22.5t-19.5 -20.5q-25 -10 -58 -10q-10 0 -36.5 5 t-71.5 15q-29 4 -48.5 8.5t-33.5 6.5l-15 -11q-12 14 -18 19l-10 -2q-14 14 -68 14h-6q-4 0 -14 -2l-23 -14q-4 -6 -7 -12.5t-7 -10.5q-2 -10 10 -65q-4 -14 -49 -60q-49 -49 -57 -67q-4 -20 -6 -29l-1 -10q0 -18 11 -35l14 -8q6 -2 8 -2h4q41 0 74 39q16 6 33 18q14 4 20 5 l6 1q29 0 67 -6t89 -16q20 8 37 2l10 4q8 -4 37 6v-10q-23 -35 -40 -60.5t-28 -42.5l-14 -10l-4 -14l-8 -8l-6 -17l-13 -6q-4 -12 -10 -18l-4 -15l-12 -14q-29 4 -50.5 7t-35.5 7q-20 2 -35 2h-23q-12 -4 -63 -8q-35 -23 -35 -22q-16 -35 -18 -54l4 -16q16 -25 43 -35l16 -2 q68 18 88 19l25 -7l-2 -12q-14 -10 -28.5 -27.5t-29.5 -41.5q0 -16 -49 -91q-45 -68 -49 -81l-8 -7l-4 -14l4 -10q-14 -8 -33 -92q-16 -76 -16 -101v-4t2 -12q14 -20 22.5 -29.5t22.5 -9.5q20 6 37 6q8 12 13 20.5t9 12.5q10 35 21 47q8 4 13 7t9 7l54 -8l18 -10h6 q29 -16 51.5 -27.5t36.5 -21.5q45 -16 64 -23l8 2l12 -6l12 4q51 -10 80 -12h29q16 6 39 31l6 22l-4 21q-10 18 -21 22l2 17q10 20 19.5 34.5t13.5 24.5l10 4q58 68 91 148zM686 1421l-10 17l-4 20l-15 19l-30 6q-35 -10 -47 -15q-10 -14 -88 -53q-78 -41 -93 -41 q-31 0 -94 31q-61 31 -82 57h-10l-4 8l-16 13q-10 2 -17 2h-4l-7 -1t-22 -3q-16 -16 -16 -45v-4q0 -4 2 -15q12 -29 37 -49q6 0 39 -33q39 -33 43 -39q8 -4 13 -7t9 -7q14 -8 23.5 -14t17.5 -11q2 -2 10.5 -9t24.5 -23q20 -20 43 -21q10 0 62 23l10 14q10 4 131 84l14 2l6 8 q25 4 33 11v14q23 16 35 35z" />
<glyph unicode=" "  horiz-adv-x="751" />
<glyph unicode="&#x09;" horiz-adv-x="751" />
<glyph unicode="&#xa0;" horiz-adv-x="751" />
<glyph unicode="!" horiz-adv-x="589" d="M535 1135q-18 10 -68 20q-39 29 -41 29q-10 20 -6 30l-14 7l-15 -4q-20 27 -20 43v8q0 10 2 30q-10 18 -19 25q0 8 -10 25l-6 4l-6 10q-16 12 -47 12q-8 -4 -15.5 -9l-13.5 -9q-10 -10 -29 -51q-20 -43 -30 -52q-4 -12 -2 -16q-4 -4 -10.5 -14.5t-16.5 -26.5 q-18 -25 -35 -35q-12 -4 -22 -8l-29 2q-10 -4 -27 -20v-25q47 -41 58 -96q6 -33 9 -48l3 -16v-12l12 -29v-37l23 -36q4 -16 -6 -48l20 -18l2 -14l-16 -23v-10l12 -14l16 -7l9 -16v-16l-7 -17q-4 -23 29 -123q16 -51 27.5 -82.5t19.5 -46.5q4 -4 9.5 -8t13.5 -10h20l19 8 q27 39 37 125l8 4q6 14 4 27l4 10l8 8q-4 18 19 105q25 90 38 106l-8 10l-12 7q2 61 10 84l13 6q16 82 29.5 131t21.5 67l26 23zM455 166l-2 31q-27 33 -82 55l-2 8q-33 31 -37 53q-20 12 -31 29l-29 4l-6 -6l-8 -2l-20 -14l-9 -15q2 -6 -2 -18q6 -10 6 -25v-8 q-29 -23 -50 -39t-36 -26q2 -10 -6 -37l9 -19q16 -16 24 -22h12l13 -15l10 -2q2 -4 4 -10t6 -14q10 -12 19.5 -21.5t13.5 -15.5q33 -23 47 -29l29 -6l14 4l16 12q6 8 7 17v8t-3 25l21 32q56 41 72 66z" />
<glyph unicode="&#x22;" horiz-adv-x="698" d="M631 1196q-29 8 -43 12q-23 18 -25 19q-6 12 -4 18l-8 4l-8 -4q-4 6 -13 27l2 24q-6 10 -10 17.5t-8 11.5l-4 2l-2 6q-16 8 -29 8q-12 -8 -18 -10q-29 -37 -37 -67v-7l-4 -6t-14 -20q-10 -10 -33 -25l-17 2q-8 -4 -10 -6q-10 -4 -29 6q-23 18 -24 19q-6 12 -4 18l-8 4 l-9 -4q-12 14 -12 51q-14 20 -16 29l-4 2l-4 6q-16 8 -29 8q-25 -14 -34 -39.5t-19 -33.5l-23 -45q-20 -14 -29 -17l-18 2q-4 -2 -14 -12v-14q49 -53 41 -105l8 -16v-23q14 -23 14 -37q-2 -4 -2 -8q0 -2 -2 -6l10 -12l2 -8l-8 -13v-6l6 -8l11 -6l4 -8v-11l-4 -10 q0 -8 14 -63q8 -29 13 -47.5t7 -22.5q6 -16 27 -31q8 -2 22 4q18 31 23 76l4 2q2 14 6 25l4 4q-4 8 13 61q8 27 13 43.5t9 22.5q-8 8 -12 10q4 43 6 51l8 4q14 84 31 119l10 11q4 -6 14 -17q20 -59 27 -96v-23l14 -24q0 -2 -1 -9.5t-3 -17.5l13 -12l2 -8l-11 -13v-6l7 -8 q10 -6 12 -10t4 -15l-4 -10q-8 -31 45 -151q4 -2 14 -13q10 -2 25 4q18 29 20 76l4 2l5 11q0 8 2 14l6 4q-2 12 10 59q6 23 12 40.5t10 27.5l-4 6l-8 4q4 43 6 51l9 4q27 115 30 119l17 15z" />
<glyph unicode="#" horiz-adv-x="1003" d="M694 698h242v82h-234l58 410h-82l-57 -410h-181l58 410h-82l-62 -410h-254v-82h244l-22 -174h-263v-82h252l-61 -442h82l63 442h180l-63 -442h84l63 442h240v82h-229zM428 698h182l-24 -174h-180z" />
<glyph unicode="$" horiz-adv-x="1099" d="M1032 358q-27 39 -24 76q-4 10 -17 47q-12 43 -12 49l-8 9l-4 16q-14 10 -17 31l-10 8q-29 35 -55.5 63.5t-50.5 51.5l-5 16l-6 8l-35 19l-18 2q-35 23 -62.5 38t-48.5 25l-30 2l-13 -6q-8 10 -4 39q2 23 3 34t1 9q0 78 7 94q-4 12 -6.5 21.5t-4.5 13.5q12 68 4 217 q41 -4 95 -65q33 -74 45 -127l-4 -19q4 -45 11 -89t46 -73l27 -8q41 6 53 12l14 17l10 35l-8 39q-20 20 -29.5 30.5t-11.5 12.5q-2 10 -2 14v4q0 8 2 16v17q16 31 21 65l10 21q0 12 -2 20q4 8 11 24.5t16 39.5q16 49 16 63v19q-10 23 -33 34l-20 3q-27 -2 -52 -37 q-14 -4 -21 -5l-7 -1q-12 0 -27 6q-41 14 -71.5 22t-53.5 12h-35q-10 35 -4 56q-4 10 -2 55q2 39 -16 55l-21 9q-25 0 -47 -9l-22 -26q-2 -12 -2 -19v-6l1 -4l3 -12q-6 -18 -6 -49q0 -14 8 -31l-2 -16q-86 -23 -135 -31q-43 -18 -59.5 -29.5t-24.5 -15.5q-57 -43 -88 -94 q-53 -98 -74 -148q-20 -18 -25 -29l2 -10q20 -16 43 -85.5t43 -84.5l-2 -20l4 -8q27 -29 37 -43q2 -16 17 -46q49 -29 85 -52t58 -44q20 -10 36.5 -17t27.5 -11v-15l8 -8l33 18q8 -20 26 -32v-35q2 -12 2 -23v-12q0 -35 -1 -85t-3 -116q4 -10 5 -16t3 -10l-10 -11 q0 -8 -2 -35.5t-2 -41.5v-78l-10 -2q-16 4 -25 2l-12 6l-8 -2l-11 8q-12 0 -22 8h-10q-20 6 -78 76l-4 21l-17 16q4 27 9 33q-10 37 -19 51l-12 6q-2 8 -2 12v4v2q0 4 2 11l-12 24q2 8 4 14.5t4 10.5v8l-13 19q6 12 -10 65q-10 39 -22 61l-29 25q-14 8 -43 8 q-35 0 -54.5 -24.5t-19.5 -48.5q0 -16 2 -27l11 -19l43 -30l8 -13l6 -30q0 -12 -3 -29.5t-8 -35t-8.5 -31t-3.5 -19.5v-10l11 -23l-17 -10q-6 -31 -20 -55q2 -10 -11 -64l3 -12q-6 -12 0 -53q8 -41 18 -49l25 -15l16 -2l25 8q12 10 22 31l27 14q33 -6 57 -2q123 -39 207 -49 q2 -8 2 -10v-4l-2 -103q6 -14 10 -23t8 -17l27 -13q14 4 24.5 6t18.5 4q8 8 18 25q8 23 9 49q0 12 -2.5 44t-2.5 48q41 8 71 14.5t50 10.5q8 8 49 20q31 8 52 39l36 21q10 18 29 33l2 26q23 0 47 29q14 39 13 47q8 14 30 74q17 46 37 71zM514 987q0 -18 -6 -56t-6 -57v-4 t2 -12l-12 2q-25 18 -64 58l-8 28q-20 27 -25 45q-2 18 -5 48t-3 44q0 23 11.5 46.5t27.5 45t37.5 39t44.5 27.5l4 -16l-4 -11v-22q0 -18 2 -59q2 -59 -4 -80l8 -21l-4 -20q2 -12 2 -16zM764 309q-6 -41 -12 -61l4 -23q-8 -8 -13 -28l2 -11q-8 -16 -15 -28.5t-11 -20.5 l-25 -20l-4 -13l-8 -2l-10 -12l-23 2l-24 -12q-4 14 -5 20l-2 6q0 47 7 89q-6 12 -2 96q2 57 3 82.5t1 19.5v51q-2 16 -2 29v23q35 -10 57 -35l8 -15l4 -24l15 -6q20 -33 41 -39q6 -27 4 -41z" />
<glyph unicode="%" horiz-adv-x="1196" d="M641 1036q-4 20 -23 41q-29 125 -71 174q-51 61 -172 84h-8q-70 0 -86 -14l-15 2q-100 -59 -139 -123q-29 -43 -72 -172l11 -14q18 -78 29 -114t26 -71q10 -16 61 -65v-12q57 -25 68 -31h18q33 -20 92 -21q76 0 117 37q23 20 43.5 39t40.5 39q16 47 29 55q20 53 26 88 q-2 39 25 78zM1018 1264l-1 6l-3 18l-23 19q-12 -2 -35 4l-8 -6l-8 -2q-6 -4 -35 -64q-14 -29 -21 -47t-12 -27q-20 -27 -34.5 -48t-24.5 -38l-2 -8l-16 -22l4 -19l-17 -33l-24 -18h-6q-43 -53 -52 -86q-57 -82 -111 -162t-106 -158q-47 -66 -67 -98q-244 -379 -244 -401 v-19q0 -8 2 -18q2 -4 3 -8t3 -9l19 -20q18 -4 24 -8q12 2 25.5 7t27.5 30l3 22q25 35 32 60q29 51 73 121.5t105 162.5q14 20 23.5 33.5t17.5 24.5q8 16 12.5 28.5t8.5 20.5l33 24q10 37 18 52q18 20 30.5 36.5t18.5 26.5q18 25 32.5 43t25.5 31q70 109 90 129l6 16l-6 8 q6 8 14 19.5t18 27.5l19 11q2 4 14.5 23.5t35 58.5t35.5 60.5t15 25.5t12.5 22.5t26.5 46.5q29 48 29 101zM1143 305q-6 20 -21 31q-6 27 -10 46t-6 34l-8 4l-2 12l-6 10q0 6 -9 33l-26 33l-19 8q-6 27 -4 37h-14q-76 63 -172 63q-4 0 -15.5 -3t-25.5 -6t-25.5 -5t-15.5 -2 q-63 -25 -90 -56.5t-33 -33.5q-8 -14 -18.5 -39t-20.5 -59.5t-22.5 -58t-22.5 -40.5l2 -12q8 -8 12 -16q6 -25 13 -37q45 -160 88 -197l2 -8q80 -70 137 -61l12 -11h15l6 9q8 -2 20 -7h6l11 4l6 -2q20 12 59 13q45 27 74 43l6 12l12 8q25 41 40.5 64.5t19.5 31.5 q25 105 45 158zM473 954q0 -2 -4 -11t-4 -11q-12 -66 -19 -80q-12 -35 -49 -68q-23 -4 -30 -8q-23 4 -33 0q-20 6 -31.5 13.5t-19.5 13.5q-27 59 -35 63q-12 27 -12 86q0 6 2 19.5t2 19.5q0 14 -4.5 42t-4.5 40l13 31q-6 23 4 58.5t28 47.5v11l15 16q10 4 18 9t17 9 q10 2 14 2h6q31 0 49 -8q78 -53 78 -239v-56zM965 229l-3 -12q-4 -12 -8 -35q-27 -88 -41 -106q-23 -10 -40 -16.5t-27 -10.5l-12 6l-19 2q-14 6 -37 29q-29 61 -26 86q-14 51 -15 86h-6l-3 9l-1 3v19l12 8q0 8 2 25.5t2 23.5q0 47 9 62q0 4 16 65q18 27 39 39q4 2 16.5 5 t32.5 11q18 0 33 -8q37 -31 43 -57l14 -8l6 -25q0 -41 11 -65l2 -86v-50z" />
<glyph unicode="&#x26;" horiz-adv-x="1388" d="M1372 748l-4 36q-4 10 -29 27l-20 6l-39 -8q-10 -14 -19.5 -25.5t-13.5 -19.5l-39 -6l-20 4q-8 -2 -21 -6l-24 3l-8 1q-6 0 -22.5 -2t-25.5 -2q-47 4 -64 6t-7 2h-47l-31 -12q-20 -16 -23 -37l11 -31l20 -20q10 -4 18.5 -8.5t16.5 -8.5l14 -16q2 -10 2 -17v-6v-16 q-37 -92 -53 -109q-8 8 -14 15.5t-10 11.5l-5 20q-10 4 -19 7.5t-15 7.5q-2 6 -7.5 16t-7.5 17l-12 10h-16q-10 35 -13 51q-8 8 -20 8q-6 33 -4 41l-8 4q-12 14 -21.5 24.5t-13.5 14.5l-4 25h-13l-8 16q14 -4 21 -5l6 -1q106 0 141 49q33 2 66 57l16 11q10 16 17.5 29.5 t15.5 21.5v18q8 12 15 21.5t11 15.5q0 29 29 64v18l-14 14q-16 39 -26.5 67t-18.5 48q-31 68 -162 125l-25 -2l-12 12q-41 10 -57 11q-14 2 -35 -7l-29 15l-22 -13l-11 9q-53 -16 -79 -19l-13 2q-25 -2 -61 -22h-14q-4 -4 -20.5 -15.5t-49.5 -31.5l-6 -9q-18 0 -29 -8 l-8 -20q-20 -10 -47 -60q-14 -23 -37 -71l2 8q-8 -14 -13 -25.5t-8 -21.5q6 -12 5 -21q10 -8 16 -14l10 -10l4 -17l-10 -10v-14q10 -27 17.5 -45.5t11.5 -32.5q20 -29 30 -43q4 -10 8.5 -19.5t6.5 -13.5q14 -25 25.5 -43t19.5 -31l-4 -12l-52.5 -12t-19.5 -4h-14 q-18 -14 -27 -17q-6 -8 -10 -13t-8 -9l-11 -2l-14 6l8 6q-31 -20 -45 -35l-12 -24l-8 2q-35 -25 -37 -68q-18 -16 -43 -74q-27 -63 -41 -84q35 -109 57 -157l17 -15v-24q4 -10 8 -18.5t6 -12.5q27 -35 41 -47q23 -72 156 -129q18 2 39 -12q10 0 31.5 -6.5t31.5 -6.5h6 q8 0 25 2l10 -4l14 2q12 -4 33 -4q31 0 49 9q6 -2 19 -3q23 0 73 23q51 20 62 25l33 24l6 17q55 61 55 77l14 -2q16 -20 30.5 -38.5t29.5 -34.5l12 -2l8 -15l25 -4l10 -6l10 -18q49 -2 66 -23q6 0 21.5 -4t23.5 -4h16q12 2 31 28l-4 13l2 16l-19 29q8 20 25 33q4 2 12.5 7 t24.5 15l12 2l17 27l22 4q8 16 36 43t40 59l-2 27l-8 12q-18 8 -27 8q-23 0 -53.5 -19.5t-46.5 -19.5q-20 0 -39 13q-14 8 -22.5 13t-12.5 7l-10 13q-6 0 -37 30q-27 31 -49 35q18 35 35 59q16 29 31.5 60t31.5 59q49 72 104 76q18 18 31 23l8 -7q59 16 82 29l29 37 q0 11 8 25zM809 1049q-4 -29 -9 -60t-9 -59q-23 -84 -95 -92q-39 43 -59 88l-19 18q-4 16 -22 45t-23 45l-16 74v8l-8 12q10 35 18 58.5t17 36.5q53 31 78 28l10 4q23 4 46 -10t44 -26q16 -35 28.5 -63t16.5 -44l-6 -18v-15l6 -8l-4 -16zM791 211q-4 -35 -46 -70 q-51 -41 -53 -49l-37 -6l-8 8q-33 -10 -45 -12l-51 16q-27 23 -49 33q-10 14 -19.5 23.5t-13.5 17.5q-8 23 -14 40t-11 30l-14 8l-6 18l10 -2q-6 23 -9 40.5t-5 27.5l4 26q0 10 -8 21q-2 -6 -2 80v31l8 20q0 4 -6 41q6 45 30 84q18 14 21 20l8 -2q12 -23 21.5 -40t13.5 -27 q10 -14 19.5 -23.5l15.5 -15.5q27 -35 73 -105q6 -10 22.5 -24t27.5 -41l41 -31q0 -33 32 -72q25 -33 31 -41z" />
<glyph unicode="'" horiz-adv-x="425" d="M358 1196q-31 10 -41 12q-23 18 -24 19q-6 12 -4 18l-8 4l-9 -4q-12 14 -12 51q-14 20 -16 29l-4 2l-4 6q-16 8 -29 8q-25 -14 -34 -39.5t-19 -33.5l-23 -45q-20 -14 -29 -17l-18 2q-4 -2 -14 -12l-2 -14q51 -47 43 -105l8 -16v-23q14 -23 14 -37q-2 -4 -2 -8q0 -2 -2 -6 l10 -12l2 -8l-8 -13v-6l6 -8l11 -6l4 -8v-11l-4 -10q0 -8 14 -63q8 -29 13 -47.5t7 -22.5q6 -16 27 -31q8 -2 22 4q18 31 23 76l4 2q2 14 6 25l4 4q-4 10 13 63q16 57 22 64q-8 8 -12 10q4 43 6 51l8 4q14 84 31 119l16 15z" />
<glyph unicode="(" horiz-adv-x="655" d="M569 1346q-2 8 -4 15t-6 15l-29 10q-6 -2 -12 -2q-4 0 -8 -2q-59 -63 -84 -96q-23 -41 -37 -53q-6 -16 -12 -26.5t-10 -18.5q-96 -182 -140 -279v-12q-39 -63 -61 -137l-49 -49q0 -12 2 -21l28 -24l11 -19q4 -43 20 -80v-10q4 -16 8 -31.5t7 -25.5q16 -23 38 -117l11 -12 v-17l10 -20l10 -6q2 -4 2 -11q0 -6 2 -14l8 -8v-19l7 -14q6 -4 12 -7t10 -7q0 -43 39 -96q49 -70 57 -91q27 -25 35 -26l4 -12l43 -31l21 -6l20 2q25 10 29 16l6 19q-10 41 -20.5 69.5t-20.5 48.5q-25 86 -49 252v37q0 16 2 27l-12 6l-4 14q6 25 10 43.5t6 30.5l-2 10 l-12 17q-2 16 -3 23l-1 7q0 4 3 14.5t3 14.5q0 25 -2 52.5t-6 60.5h-11q0 10 3 28.5t3 26.5q0 16 -8 39q12 18 25 35q-6 43 8 98q10 39 14 61.5t6 32.5l-4 12l-8 4v9l12 6l13 16q2 16 10 45t25 72q29 84 26 94z" />
<glyph unicode=")" horiz-adv-x="655" d="M541 707l-33 28q-29 70 -29 74q-10 31 -19 59.5t-18 55.5l-10 8q0 6 -4 20.5t-10 27.5t-12.5 24.5t-10.5 15.5l-18 6q-14 10 -21 35v10l13 10v17q-6 2 -56 78q-23 39 -36 61.5t-17 30.5l4 -8q-35 51 -76 94q-16 4 -34 22q-10 4 -18.5 6t-16.5 4h-10l-13 -6l-12 -18 q-2 -10 -2 -14v-5q0 -18 24 -69q8 -18 16.5 -36.5t16.5 -35.5q14 -39 24.5 -80t14.5 -86l10 -6l9 -29l-9 -32l7 -17q-4 -23 2 -47l12 -8v-20l-6 -17v-121q2 -94 22 -116l2 -37q-6 -12 -10 -35l8 -16l-2 -15l-6 -10q4 -16 -18 -90q-14 -63 -24.5 -109.5t-16.5 -79.5 q-18 -57 -32.5 -98t-25.5 -70q-10 -41 -10 -28v-21l14 -20l13 -8q23 -2 39 4q31 29 52 52.5t36 39.5q39 72 78 127v27l10 2q8 18 26 34q0 4 19 52q20 51 22 61l-2 16l9 5q14 37 26 73.5t25 73.5q37 102 63 131l15 6z" />
<glyph unicode="*" horiz-adv-x="569" d="M487 991v23q-8 10 -11 18t-5 12q-23 14 -43 25.5t-41 20.5l-6 8l6 18q31 23 51 27l6 8l9 4q16 12 22 41l-2 21l-8 16l-21 14q-8 2 -12 2h-2q-27 0 -90 -55l-4 8q8 18 4 66q-2 39 -16 63q-10 4 -17.5 6t-15.5 4h-12q-18 -10 -35 -38l-3 -15l-1 -4v-82l1 -6l3 -18 q-35 20 -76 63l-41 6l-18 -4l-11 -8l-14 -25q0 -4 1 -13t3 -23q70 -59 96 -66l-12 -23l-55 -36q-31 -27 -35 -56l6 -20l14 -17q18 -8 37 -8q66 41 101 68q-4 -27 -5.5 -51.5t-3.5 -46.5q8 -25 25 -41l20 -9q20 0 35 9l15 14q12 18 12 65v7l-6 10q6 31 4 47q72 -72 98 -72h6 q6 0 19 2q8 2 24 25q2 8 3 10z" />
<glyph unicode="+" horiz-adv-x="1396" d="M782 567h566v142h-566v565h-143v-565h-573v-142h573v-567h143v567z" />
<glyph unicode="," horiz-adv-x="477" d="M395 164l-6 20l-16 17q-41 27 -66 51l-6 12l-8 6l-7 17.5t-5 11.5l-56 39q-6 -2 -14 -2q-10 -8 -23 -8l-16 -17l-4 -10l4 -33l-4 -16l-16 -16l-5 -15q-29 -4 -53 -24q-16 -27 -14 -41l6 -17q29 -31 45 -37q43 -49 45 -55l-2 -31q-20 -18 -33 -45q-2 -8 -2 -10v-4 q0 -10 8 -29h11l8 -8q10 -2 17 -3t10 -1h6q23 10 32 16q12 12 21.5 22.5t17.5 18.5l6 17l11 4l4 8v8q29 61 41 88q25 18 47 27l14 16z" />
<glyph unicode="-" horiz-adv-x="747" d="M666 678l-9 35l-10 10q-10 4 -16 5l-6 1q-23 0 -74 -41q-47 -39 -105 -39q-8 0 -22 2t-21 2q-10 -4 -15 -5l-5 -1h-66l-24 8q-10 -2 -23 -2h-20l-10 9q-49 4 -84 -9q-12 -12 -19 -39q4 -10 6 -16t4 -10q2 -16 -2 -31q-57 -63 -63 -111q2 -10 2 -22l8 -18l25 -7 q47 20 61 35v8l27 15l10 -2l16 4l9 6l26 -4q12 4 21.5 5t15.5 3l23 -14q33 -2 57 -2h45q98 0 135 16q20 27 21 37q0 18 -4 35l8 30q27 35 46.5 63t31.5 44z" />
<glyph unicode="." horiz-adv-x="477" d="M395 160v18q-16 37 -37 39q-12 14 -22 24.5t-19 18.5l-8 4l-2 12l-14 9q-14 37 -29 53l-20 14h-25l-33 -12l-10 -12q-4 -10 -6 -19.5t-4 -13.5l4 -21q-23 -41 -57 -53q-23 -23 -31 -43l4 -24l20 -29l19 -6q20 -16 36.5 -29.5t31.5 -21.5l8 -25l43 -39l18 -4q10 4 17.5 6 t11.5 4q23 23 22 45v2q0 4 -2 11q2 23 39 51q33 25 45 41z" />
<glyph unicode="/" horiz-adv-x="806" d="M780 1401q0 14 -26 39l-21 4l-24 -8q-14 -10 -41 -62q-29 -53 -29 -63l-8 -8q-10 -37 -19 -52q-25 -16 -32 -73l-9 -9q-6 -27 -20 -57q-23 -23 -23 -47q-14 -16 -24 -28.5t-17 -22.5l-2 -15q-6 -14 -22 -30l-4 -13l2 -18q-18 -72 -68 -147l4 -11q-16 -23 -55 -123 q-33 -90 -66 -112q-18 -45 -30.5 -77t-20.5 -52v-29l-12 -4q-18 -41 -33.5 -70.5t-25.5 -50.5q-27 -63 -35 -90q-18 -35 -40 -81t-48 -103q-2 -10 -3 -18.5t-1 -14.5l8 -23q12 -18 33 -26h26q33 16 41 55l6 2v10q14 31 25 56q45 100 80 175t61 122q8 31 8 49l7 8l18 10 l22 53v17q18 35 32 60.5t24 41.5q0 4 16 41q14 27 30.5 67t35.5 95q61 129 119.5 255t113.5 251q47 104 47 127z" />
<glyph unicode="0" horiz-adv-x="1222" d="M1182 664l-4 22q-31 29 -46.5 78t-29.5 94l-19 19q-2 6 -2 8v4l1 9t5 26q-25 70 -30 108l-8 2l-5 31l-8 8q-8 14 -8 27q-8 12 -13 21t-7 18q-23 27 -41.5 46t-32.5 32q2 10 -4 26l-27 4l-10 10l-16 5q-61 47 -125 61q-43 8 -56 16q-10 0 -29.5 -2t-27.5 -2q-4 0 -17.5 3 t-21.5 1q-96 -14 -172 -41q-72 -25 -147 -104q-78 -80 -93 -147l-6 -7q-8 -23 -13 -38t-9 -25q-14 -70 -19 -103q-12 -23 -24 -36q-6 -29 -29 -86q-29 -68 -45 -78l-2 -21l6 -8h19q20 -29 30 -75t21 -87l14 -10q0 -68 31 -131q8 -12 28 -20l-2 -9q-10 -8 -14 -18 q12 -23 12 -31l7 -6q8 -16 13 -27.5t9 -19.5l8 -4q10 -29 25 -41h16q8 -45 70 -94l16 -6l4 -9q92 -47 146 -67q12 2 67 -4q51 -6 66 -6q143 0 219 63l8 2q10 14 30.5 34.5t51.5 49.5q27 27 46.5 50.5t33.5 45.5q8 10 12 18.5t8 12.5q18 45 23 49q2 12 6 23.5t8 21.5l-8 17 v14l14 4l11 16q-2 6 16 72q4 20 9 38.5t9 37.5q19 88 52 115zM831 688q-4 -18 -8 -26l4 -33l-10 -25q4 -20 -2 -158l6 -12q2 -14 -3 -22.5t-15 -22.5q0 -16 1 -29.5t3 -23.5q-6 -55 -12 -88l-11 -6v-13l-6 -16v-18q-23 -49 -55 -86l-14 -3q-39 -29 -76 -28q-49 0 -70 12 q-31 25 -51 33q-12 14 -23.5 27.5t-21.5 27.5l2 12l-18 58l-9 2q-2 29 -5 60.5t-11 66.5l-14 14l-2 17q6 8 6 24q0 8 -2 14v15l10 22q4 10 -6 27q-2 35 -2 53v19v10q0 12 2 35l-12 20l-3 15l3 8q18 14 20 24l-2 19l4 12l-14 10l-4 15l8 14q2 23 3 35l1 12q0 10 -3 30.5 t-3 30.5v13l16 39l-4 41q10 35 20.5 70.5t20.5 70.5q25 80 82 117q27 6 44 10t28 8l10 -4l26 4q16 -4 23 -6q12 -12 43 -23l27 -30q10 -23 17 -39.5t15 -28.5q31 -78 31 -201q0 -20 -4 -36l4 -13l-2 -14l10 -10l-8 -27l2 -31l8 -14l-2 -14l-6 -9q-2 -4 -2 -6v-2q0 -16 2 -22 z" />
<glyph unicode="1" horiz-adv-x="768" d="M754 55v2q0 4 -2 11l-11 12q-6 4 -10 6l-8 4q-29 6 -50.5 11t-37.5 10q-4 8 -13.5 15t-19.5 17l-6 17q4 23 -12 47l-11 6q0 14 -6 25q2 8 -6 30l-20 21l-6 24l14 13l-4 8q4 20 6 31.5t2 15.5q0 16 -10 47l-6 4q2 14 -1.5 32.5t-3.5 27.5q0 18 -2 54t-2 54v6t2 17l-8 12 q0 14 10 31q-4 63 -6 96t-2 37q2 96 -4 116q0 8 5 28t5 30v6l-6 12q14 57 19 92l14 56q2 16 37 82q25 51 24 86q0 31 -2 36l-71 37q-18 -2 -49 -32l-11 -21l-2 -39l-10 -10v-10q-8 -2 -47 -29q-27 -16 -49 -20l-27 -21q-31 -4 -86 -18q-37 -8 -75.5 -17.5t-65.5 -25.5 q-4 -8 -8 -15.5t-9 -17.5l5 -35q10 -8 17 -15t15 -12q39 -10 59.5 -15t24.5 -7l17 -19q2 -16 1 -29.5t-3 -21.5l4 -16l6 -8q-6 -29 -6 -37v-23l8 -18q-6 -37 -12 -53q2 -29 3 -49.5t-1 -34.5l-8 -13v-18l12 -10q2 -41 3 -73t1 -52l-12 -15l-4 -12q0 -14 2 -20l12 -6 q-2 -20 4 -39q-14 -31 -14 -99v-18l14 -12q2 -10 2 -17v-6l-1 -6t-5 -21q-10 -12 -15.5 -18t-7.5 -8q-4 -16 -8 -29.5t-6 -21.5l-8 -9l-2 -6q-25 -29 -43 -30q-8 -12 -27 -15q-18 -12 -31.5 -20t-23.5 -13q-2 -2 -9.5 -11t-23.5 -25q-18 -18 -18 -68q8 -27 26 -41l29 -12 q23 2 41 6q16 14 29.5 27.5t23.5 27.5l-6 -6q27 23 90 23q16 -4 23 -7q4 2 14 2q18 0 117 -28l16 8l23 -8l4 -12l22 2l19 -9q35 20 49 21l6 -12q14 -8 27 -9q100 0 153 31q21 22 21 51z" />
<glyph unicode="2" horiz-adv-x="917" d="M860 270v17q-4 8 -18 24l-18 3l-7 1h-10q-33 -27 -57 -55q-8 -4 -17.5 -8t-23.5 -8q-20 2 -37 -4l-10 6q-8 0 -17.5 -1t-23.5 -3l-15 10q-14 -4 -21 -5l-7 -1q-16 0 -43 2t-62 6t-61.5 7t-42.5 3q-141 0 -174 -51l4 16l12 15l2 18q10 20 34.5 45t59.5 55q25 14 37 25 q12 0 27 8q8 10 14 22.5t10 22.5l35 -12l12 4l13 21q16 8 32 24l17 4l16 21l15 -2q16 6 26 16l10 2q6 12 21 19l4 8l-2 12q8 -2 14 -2q8 0 15 -2l14 8l2 10l14 15q59 29 82 45l6 8q12 2 37 31q27 29 27 43v14l-8 18l-9 7l-2 8l5 12q20 14 36 68q16 55 17 84q0 12 -6 53 q-6 45 -4 55q-10 14 -19 62q-6 39 -31 53q-8 20 -6 29q-6 20 -32.5 41.5t-34.5 37.5q-55 37 -58 37l4 6h-8l-2 2q-8 2 -24.5 6.5t-42.5 14.5q-45 16 -74 16q-61 0 -102.5 -3t-69 -7t-45 -8t-29.5 -6l-8 -8q-23 -8 -39 -16.5t-27 -16.5q-162 -98 -161 -262q0 -49 28 -129 q27 -29 58 -43h16l8 -4q33 -4 64 16q23 23 32 53q4 39 -22 70l-29 18q-6 8 -8 29l-8 8l-8 2v12t2 19q4 2 8 3t8 3l10 20l15 13v45l24 10l2 19l15 14q4 2 6 2h2l37 -2q45 27 75 26h7q8 0 24 -2q20 -14 53 -20q12 -6 19 -21q8 -4 14 -8t10 -8l7 -16v-9q25 -16 26 -28 q-2 -14 6 -39l11 -14q4 -27 6 -45.5t4 -32.5l-6 -10q4 -20 2 -31l12 -6q-4 -12 -2 -17l-8 -20t-19 -17q-6 -23 -6 -30q-18 -57 -43 -90q-29 -16 -37 -37l-20 -15q-6 -53 -76 -90l-12 -24q-27 -20 -92 -101q-68 -84 -76 -104l-10 -8l-2 -11l-13 -6l-4 -6q-2 -10 -2 -24 q-33 -53 -33 -68l-4 -6l-2 -14q-18 -23 -24 -62l2 -14q-4 -14 -6.5 -23.5t-4.5 -17.5l2 -15l-6 -8q2 -16 2 -33q0 -16 2 -32q2 -41 19 -62l18 -14q10 -2 14 -3l5 -1q4 0 11 1t17 3q25 23 29 45l8 4l-2 8q45 14 78 22.5t55 10.5l11 -6l2 -16q10 2 20 2t19 2l20 -15 q80 -10 98 -20l35 -2l10 -6q8 0 21.5 -2t27 -5.5t26.5 -5.5t20 -2q76 0 98 31h6l2 23q-2 14 -20 34l-4 21l12 20q12 10 24 15l9 10q33 16 51 35l6 10l16 12q37 67 37 90z" />
<glyph unicode="3" horiz-adv-x="833" d="M793 457l-9 12l-18 12q-8 16 -13 27.5t-10 19.5q-2 23 -12 39q-2 20 -37 88q-16 35 -29.5 55.5t-21.5 26.5q-29 10 -41 6l-16 33q-18 4 -58 25q-41 23 -65 24q-94 8 -146 13q20 8 31 24l4 10q10 6 30.5 20.5t49.5 37.5q63 51 68 63q47 35 55 45q4 23 51 49l6 15 q27 14 76 80q49 63 49 94q0 23 -4 35q-14 14 -28 20q-20 2 -52 -10q-27 -25 -45 -35h-8l-14 -6q-10 0 -29.5 -2t-28.5 -2h-104q-16 0 -37.5 1t-50.5 3q-35 4 -56.5 5t-31.5 3l-19 -6q-31 2 -67 18l-23 23l-28 8l-21 -4q-12 -8 -20 -14l-9 -17q2 -16 4.5 -29.5t4.5 -23.5 q-6 -35 -13 -61q-45 -76 -57 -123l2 -21q6 -16 29 -32l18 -5l35 15l6 10q8 6 15.5 12t13.5 11q35 10 47 22h20q10 2 21 2q6 0 21.5 -2t23.5 -2l29 12l4 11l8 2l10 -4l10 -11h19l26 -10q6 2 23 6l47 -8q-4 -10 -18.5 -24.5t-40.5 -34.5q-55 -43 -68 -45l-10 -23l-23 -2 l-18 -18l-2 -11q-100 -41 -109 -116l6 -23l17 -18q41 -8 72.5 -10.5t54.5 -0.5q33 -10 45 -12q23 -20 53 -29l21 -28h-21l29 -15q12 -37 12 -39q10 -18 12 -22q-4 -16 0 -43q2 -16 2 -29v-14l7 -6q6 -10 6 -25v-12l-6 -14l2 -25l-19 -18q2 -12 -20 -58q0 -8 -4.5 -23.5 t-8.5 -25.5q-8 -6 -14 -11t-10 -9q-16 -47 -31 -70q-29 -31 -43 -49q-4 -12 -31 -31q-16 -35 -82 -80q-80 -53 -96 -69l-6 -25q6 -8 14 -20q37 -6 52 -5q43 6 36 9q8 2 25 12h8q72 45 115 45l10 8q10 0 27 10l22 27l8 -4h11l16 10q14 12 19 41q25 2 47 -10l12 12l2 8l35 23 q8 10 13 18.5t7 16.5q49 16 78 63l12 2q31 27 37 54l13 8q6 8 49 86q37 59 39 84z" />
<glyph unicode="4" horiz-adv-x="1134" d="M1094 578l-1 5l-3 15q-4 10 -23 20q-14 2 -32.5 -11t-22.5 -27q-14 -14 -32.5 -28.5t-43.5 -31.5q-35 -6 -61.5 -9t-43.5 -5l-14 6l-35 -8l-8 10q8 16 8 23q0 51 -1 81.5t-3 45.5l-6 12q4 10 6 16t4 10q-2 10 -2 50v147q-4 133 13 207l8 22q6 12 6 21q0 6 -3 19.5 t-1 19.5q8 47 8 67q0 4 -2 12.5t-4 16.5q0 8 -13.5 21.5t-56.5 13.5q-37 0 -135 -74q-78 -59 -125 -106q-4 -8 -6 -13.5t-4 -9.5l-62 -55q-18 -10 -22 -12q-18 -18 -31.5 -34t-23.5 -26q-16 -16 -25 -18q-4 -16 -23.5 -42t-52.5 -65q-66 -74 -73 -119q-20 -14 -70 -131 q-23 -57 -36 -95t-15 -56q-2 -16 -3 -29.5t-1 -23.5l4 -11l14 -12l4 -20l8 -9l13 2l8 -2l8 -8l10 -4l17 2l10 6q45 -6 63 -4q20 0 39 8l35 -8q14 4 23.5 5t15.5 3q14 -10 68 7l14 -9l29 13q76 -12 79 -17l3 -15l2 -5q0 -127 -56 -178q-14 -4 -23 -8.5t-18 -6.5l-10 -14 q-66 -31 -68 -33q-16 -14 -24 -21.5t-10 -9.5l-15 -30v-15q0 -8 6 -47q18 -18 58 -24q20 2 39 12q14 10 28 37q35 23 82 22q41 0 96.5 -7t127.5 -21q10 8 24 8l12 -4l7 -8l10 -4q16 0 28 6l27 -9l12 5l31 -9q25 6 74 4q4 2 12 5.5t19 11.5l14 2v6q23 16 22 39q0 4 -1 12 t-3 19l-10 8q-6 0 -20 10l-15 -2q-20 14 -35 12q-23 6 -45 29h-12l-12 8q-8 10 -17.5 23.5t-21.5 29.5l2 13l-6 8l-2 20q-12 14 -13 25l5 12q0 10 -5.5 33t-5.5 33v16l17 6q45 2 65 -4l13 2q35 -8 66.5 -13t57.5 -9l37 26l4 21q-6 31 -18 45q-4 10 6 33q64 58 64 121z M514 909v-20q0 -14 -2 -37q-10 -14 -18 -33q0 -12 8 -34.5t8 -32.5v-15l-8 -14q0 -10 -10 -35q16 -74 6 -102l4 -15l-10 -65l-29 -2l-10 -6q6 -2 -74 -2h-174h-12q-10 0 -33 2q-4 49 69 176v14q4 12 24.5 32.5t22.5 37.5l25 24l4 23q10 6 35 41q29 39 41 43q27 35 50.5 62.5 t43.5 47.5l6 -2l6 13l15 10l6 -12q-4 -18 0 -50q6 -41 6 -49z" />
<glyph unicode="5" horiz-adv-x="806" d="M766 1294v9q0 10 -2 26q-14 20 -31 27h-16q-8 0 -19 -2q-33 -23 -34 -41l-25 -25q-10 -2 -14 -3l-4 -1q-78 0 -97 -8q-18 2 -42.5 3t-53.5 -1q-43 -2 -67.5 -3t-28.5 -1q-8 0 -23.5 1t-38.5 3q-49 6 -65 4q-20 14 -27 41l-35 20q-10 -2 -17 -4t-15 -6l-19 -18 q-4 -20 -8 -37.5t-6 -32.5l2 -10q-12 -47 -12 -109v-12l4 -8q-2 -18 -6 -33q2 -25 6 -45q-10 -29 -13 -43q-8 -63 -11 -110.5t-5 -81.5q0 -2 -2 -5v-6v-14l10 -18q10 -10 29 -15q14 6 96 6q106 0 141 -30l13 -2q31 -37 57 -64q4 -4 9 -19.5t14 -37.5q14 -43 14 -62l18 -16 l4 -25l-16 -26v-8l10 -13l-8 -16q2 -6 -2 -16l-12 -9q-8 -23 -14.5 -38t-10.5 -25l-14 -17l-6 -18q0 -10 4 -23l-2 -16q-18 -10 -39 -14q-4 -10 -6 -17.5t-4 -11.5l-21 -27h-12q-4 -8 -8 -14t-9 -10l-4 -14l-20 -23l-10 -2l-4 -23l-13 -12l-30 -2q-12 -41 -52 -43 q-33 -31 -67 -51l-2 -8l-8 -8l6 -31l14 -17l16 -6q35 8 61.5 12.5t43.5 8.5l10 8l12 2q39 20 74 31l8 16l8 4q16 8 27.5 12.5t20.5 8.5q41 29 71.5 49t50.5 35q8 0 29 10q23 27 34 39t13 14l17 2q10 10 20 31l25 12l2 15l22 20l4 12q10 10 25.5 33t36.5 57q39 70 39 93v28 q-10 6 -13 27l-18 16q-10 29 -14 56l-6 10q0 2 -19 49l-14 10l-6 17v10q-10 16 -35 35q-14 25 -21 30l-22 17l-2 8q-4 4 -11.5 10t-15.5 14l-24 9q-14 10 -25.5 17t-22.5 11q-33 0 -73 21q-12 -2 -58 6q-47 8 -69 8q-14 0 -45 -5t-41 -5l-13 -6l-34 -2q-2 29 -2 43v16l12 68 l-6 12q4 27 7 45t3 33l8 6l8 2q14 -2 25.5 -4t21.5 -4l13 6l12 -8h10l10 4q6 0 23.5 -4t26.5 -4q8 0 14 2h14l15 -6q43 4 129 -15l6 4q10 2 22.5 3t28.5 1q20 0 61 13l19 24q2 10 -2 26.5t-4 24.5v3q0 4 2 8q39 33 76 53q2 6 36 41q23 26 23 59z" />
<glyph unicode="6" horiz-adv-x="1046" d="M1032 379l-4 12q-10 12 -24 17q4 37 -19 71q2 45 -31 121q-35 78 -67 102l-4 9q-10 8 -26.5 17t-35 18.5t-35 18.5t-24.5 15q-29 -4 -57 15l-13 -2l-33 12q-41 -6 -71.5 -9t-52.5 -5q-23 -10 -41.5 -21.5t-34.5 -26.5q-12 -23 -13 -45q0 -18 15 -41l24 -14q10 -2 35 4 q14 8 31.5 20.5t40.5 28.5l24 4l33 -6q39 -25 49 -84q-2 -4 -2 -10t-2 -14q10 -29 17 -35q6 -37 6 -43q0 -35 -8 -49q8 -14 8 -25l-6 -12q2 -14 3 -23.5t1 -13.5q0 -41 -4 -61l4 -15l10 -10l-16 -18q-14 -55 -32 -110.5t-69 -92.5l-10 2l-18 -12q-16 -2 -25 -2h-8l-4 1 t-13 3l-10 10q-12 4 -22 8q-18 23 -29 29l-4 18l-12 12q-2 4 -2 9q0 6 -2 14l-9 6l-6 14v21l-10 10q-2 10 2 23q-4 16 -6 27.5t-4 19.5q-10 14 -10 45v8q2 4 3 8t3 8l-6 25l6 14q-6 70 -6 54q0 33 6 94q0 14 -2 18l-17 23l13 47l-15 31l6 14l-6 20q0 6 21.5 50.5t21.5 121.5 q4 8 10.5 18.5t12.5 20.5l2 35q27 70 112 187q106 147 117 172l-2 16l-6 10l-12 4t-15 6q-94 -41 -166.5 -97t-126.5 -126l-16 -6q-6 -14 -37 -51q-31 -35 -31 -45q-25 -18 -40 -66l-23 -14q-6 -25 -18 -33q-31 -55 -58 -82q-10 -27 -12 -39l-39 -98q-4 -10 -7 -19.5 t-5 -13.5l-13 -12l-6 -18q33 -57 33 -91q0 -20 6 -47q6 -37 6 -49l2 -14l7 -12q0 -14 16 -74l12 -4q10 -51 15.5 -78t7.5 -31q16 -31 31.5 -55.5t27.5 -42.5q20 -20 34.5 -35.5t22.5 -26.5l19 -6q18 -25 53 -41q12 -4 66 -20q72 -23 96 -23q14 0 27 -4q16 2 29.5 3t21.5 -1 q98 6 166 39l8 4h6l4 17q8 8 18.5 18t22.5 21q6 -2 33 8v14h12q18 12 27.5 31.5t17.5 40.5q14 4 27 16q6 8 6 27l-4 16l10 19l12 6q39 88 76 119z" />
<glyph unicode="7" horiz-adv-x="772" d="M821 1300v17l-20 26l-21 9h-26l-19 -9q-12 -14 -20 -23t-13 -13q-31 -14 -155 -15q-115 0 -107 2l-14 6q-23 -4 -34 -6l-11 -2q-33 0 -64.5 3t-64.5 8l-6 8l-10 2q-35 27 -37 30h-23q-20 0 -37 -16l-8 -16l-2 -25l6 -8q2 -16 3 -26l1 -9q0 -16 -88 -178q-2 -12 -2 -18v-7 v-4t2 -14q4 -10 27 -31l18 -4l23 6l18 15q8 10 13.5 19t9.5 15q49 31 82 31q16 0 48 -3t48 -3l8 1t25 5l26 -8q20 2 35 -2q23 2 43 2h45q53 2 82 25q-10 -31 -41 -68l-55 -55l-12 -4q-6 -14 -32 -37t-42 -29q-4 -10 -5 -18.5t-3 -14.5q-25 -23 -31 -30l-29 -13 q-27 -33 -26 -39l-15 -4l-12 -14v-10q-16 -23 -28.5 -39.5t-20.5 -26.5l-4 -16l6 -15q-14 -8 -27.5 -34.5t-25.5 -34.5v-13l-4 -10l-9 -8l-4 -14l4 -15l-10 -26v-23q-27 -8 -37 -22v-17l8 -10q-2 -8 -4 -15t-6 -16v-24l-6 -15v-28q-16 -59 -12 -96l14 -25q-2 -14 10 -70 q16 -55 25 -63q0 -12 27 -45q27 -31 41 -37q14 -8 25 -12t20 -9h10q16 0 31 9l16 22q2 14 2 21v6q-4 16 -6 22q23 51 84 66l-2 10l20 16q27 8 58 13q31 20 59.5 41.5t38.5 58.5l-2 12l-12 17q-23 10 -38.5 18t-25.5 12q-4 23 -10 29l-23 4q-25 86 -24 99q0 70 37 174v8l4 10 q-6 27 -15 35l11 -4l14 12q14 45 18 68q20 23 21 34q18 20 20 46l-2 10l4 12q29 35 51.5 61.5t36.5 43.5q20 37 23 53q16 27 34.5 52.5t35.5 51.5q41 68 53 111q10 35 12 44z" />
<glyph unicode="8" horiz-adv-x="1050" d="M1022 377q-4 23 -12 41v8q-20 94 -66 147l-10 5l-35 45l-4 16q-31 16 -41 31l-12 4l-11 16q-18 14 -22 21q-39 27 -68.5 45t-52.5 30l17 2q98 47 98 48l12 24h14q45 29 72 96q10 29 20.5 57.5t20.5 57.5l-16 16q-12 27 -22.5 48.5t-18.5 38.5q-20 23 -35.5 40t-28.5 31 l-10 6l-4 13l-33 12l-14 18q-39 18 -113 45q-25 -4 -65 0q-53 6 -68 7q-8 0 -38 -6.5t-38 -4.5q-31 -23 -139 -51q-14 -10 -23.5 -19.5t-17.5 -13.5l-8 -4q-35 -47 -55 -67q-27 -51 -46.5 -89t-29.5 -65q-4 -18 31 -96q14 -35 25 -58.5t20 -35.5l8 -2q4 -14 14 -31l25 -17 q14 -20 28 -30l2 -11l7 -6l30 4l27 -47q33 -23 47 -22l-16 -15q-20 -2 -35 -4t-23 -4q-6 0 -19.5 -5t-28.5 -11t-29.5 -11.5t-26.5 -5.5l-10 -38l-11 -13l-18 -8q-31 -29 -66 -100q-35 -74 -49 -82l-24 -6q23 -27 34 -40.5t13 -15.5q31 -78 43 -116l14 -9l8 -32l17 -2 q2 -10 2 -17v-10q14 -14 23 -23.5t14 -17.5q41 -31 69 -57q166 -61 287 -62q39 0 100 13q74 12 88 26q14 0 44 20.5t38 32.5l21 9q16 25 53 49q14 27 25.5 46t19.5 34q4 4 11 9t16 13q-4 10 -2 17q16 41 26 69.5t15 48.5zM678 1016q0 -33 -14.5 -72t-26.5 -74 q-23 -20 -33 -36q-25 16 -43 29.5t-33 21.5l-6 20l-30 8l-15 -4l-4 33q-47 57 -57 94l-6 6q6 14 2 27q-2 10 -3 16.5t-1 8.5q0 55 26 114q51 51 94 52h39l8 -5l15 2q31 -16 45 -38.5t29 -47.5l14 -96v-59zM719 375l-14 -39v-25q-2 -8 -3 -14v-8q0 -12 7 -27q-10 -18 -7 -43 l-18 -29q-2 -8 -2 -22q-25 -37 -39 -51q-4 0 -49 -39h-16q-8 -8 -27 -8q-12 0 -34.5 4t-35.5 4q-16 10 -26 10l-4 6l-9 2l-10 10l-2 9q-23 12 -41 80q-16 55 -18 88l12 28v25l-10 14q4 16 5 24l1 9v12l-8 13l6 18q-6 37 10 98q18 57 49 80l25 8q33 -12 80 -49q35 -29 52 -43 t19 -16l11.5 -11.5t25.5 -29.5q35 -39 45 -76l8 -10z" />
<glyph unicode="9" horiz-adv-x="1017" d="M963 682q-16 23 -19.5 46.5t-5.5 49.5q-10 113 -12 172q-2 4 -5 16.5t-12 32.5q-14 41 -14 48l-8 12l-2 14q-14 33 -27 41q2 18 -12 45l-10 10l-5 13l-24 28l-23 9l-2 14l-18 16q-51 12 -64 39l-10 2q-45 51 -205 51q-92 0 -114 -16h-6q-29 -10 -46.5 -15t-23.5 -7 q-117 -76 -170 -162l-2 -13q-53 -100 -80 -167q-8 -4 -14 -14.5t-15 -24.5l15 -17q0 -8 4 -20q20 -55 26 -84l9 -29q8 -6 18 -24q0 -35 31 -74l2 -10q47 -63 89 -88t87 -50l8 2q33 -16 103 -16q4 0 65 6q23 14 39 24.5t27 18.5q16 10 25 17.5t15.5 15.5t10.5 20.5t10 32.5 l-2 37l-6 12q-4 4 -10.5 7.5t-10.5 7.5q-14 2 -39 -6q-27 -23 -55 -84l-20 -9l-33 4l-8 -10l-54 43q-4 25 -26 47q-2 10 -3 19.5t-3 19.5l-13 10l7 11l2 22l-11 15q-4 14 -2 32l-16 15v16q10 6 16 10t11 8q6 72 10 80q2 8 -4 21l-9 4q-2 14 5.5 42t7.5 40v6q0 8 -2 23 q6 12 20 18v20l17 25q-2 16 39 74q16 8 29.5 13t23.5 9q29 -8 51 -2q53 -29 65 -61q29 -63 33 -70l-2 -18q27 -74 27 -113q0 -49 4 -57q2 -4 -8 -58l6 -20q-12 -18 -12 -35q0 -8 1 -17.5t3 -19.5l18 -30q-6 -123 -33 -156l6 -23l-22 -53l4 -18q-12 -4 -20 -25l-5 -35 l-10 -10l-12 -37q-29 -29 -41 -55l8 -17l-6 -14q-6 -2 -22 -6q-47 -78 -84 -94l-21 -41l-16 -4l-11 -10l-2 -11q-23 -16 -43 -32.5t-43 -32.5q-59 -47 -67 -70l6 -18l8 -9l14 -6q55 6 82 15q8 8 33 12l6 6q25 10 37 10q72 45 124 79t83 57q10 8 17.5 15t11.5 11l2 10 q37 18 67 56q51 14 52 59l20 12q14 20 18 43l15 4q20 14 33 27q8 18 13 32.5t7 24.5q20 37 37 58l2 26q18 18 20 25q4 16 8.5 28.5t6.5 20.5q10 27 19.5 46.5t15.5 33.5z" />
<glyph unicode=":" horiz-adv-x="477" d="M395 905v19q-16 37 -37 39q-43 45 -49 49l-2 10l-14 8q-14 37 -29 53l-20 15h-25l-33 -13l-10 -12q-4 -10 -6 -19.5t-4 -13.5l4 -20q-23 -41 -57 -53q-23 -23 -31 -43l4 -25l20 -29l19 -6q20 -16 36.5 -29.5t31.5 -21.5l8 -25l43 -38l18 -5q10 4 17.5 6.5t11.5 4.5 q23 23 22 45v2q0 4 -2 10q4 18 8 25q66 51 76 67zM395 160v18q-16 37 -37 39q-12 14 -22 24.5t-19 18.5l-8 4l-2 12l-14 9q-14 37 -29 53l-20 14h-25l-33 -12l-10 -12q-4 -10 -6 -19.5t-4 -13.5l4 -21q-23 -41 -57 -53q-23 -23 -31 -43l4 -24l20 -29l19 -6 q20 -16 36.5 -29.5t31.5 -21.5l8 -25l43 -39l18 -4q10 4 17.5 6t11.5 4q23 23 22 45v2q0 4 -2 11q2 23 39 51q33 25 45 41z" />
<glyph unicode=";" horiz-adv-x="477" d="M393 905v19q-16 37 -37 39q-43 45 -49 49l-2 10l-14 8q-14 37 -29 53l-20 15h-25l-33 -13l-12 -12q0 -6 -4 -16t-4 -17v-6q0 -4 2 -14l-12 -21q-14 -10 -24.5 -18t-18.5 -14q-23 -23 -31 -43l4 -25l20 -29l19 -6q20 -16 36.5 -29.5t30.5 -21.5l9 -25l43 -38l18 -5 q10 4 17.5 6.5t11.5 4.5q23 23 22 45v28q4 8 15.5 18.5t25 20t24.5 19.5t17 18zM397 164l-6 20l-16 17q-23 14 -40.5 27.5t-27.5 23.5l-4 12l-8 6q-10 25 -28.5 39.5t-41.5 28.5q-8 -4 -14 -2q-8 -8 -21 -8q-16 -10 -20 -27q2 -35 0 -49l-18 -16l-5 -15q-27 -6 -51 -24 q-16 -27 -14 -41l4 -17q31 -33 47 -37q39 -43 43 -55v-31q-20 -18 -33 -45q-2 -8 -2 -10v-4q0 -10 9 -29h10l8 -8l18 -3l7 -1h8q12 4 24 14l8 2q12 12 21.5 22.5t17.5 18.5l7 17l8 4l6 8v8l6 14q6 13 16 39q14 35 32 44.5t34 17.5l14 16z" />
<glyph unicode="&#x3c;" horiz-adv-x="1486" d="M713 784l-6 21q-4 4 -8.5 9t-8.5 9q-10 2 -18 2q-6 0 -13 2l-6 41q-23 27 -28 35q-6 18 -7 29q-29 68 -45 94l-16 2q-8 16 -13 29.5t-9 23.5l-31 27l-29 2h-6l-10 -4q-16 -12 -25 -31l-2 -16q-55 -43 -70 -43q-20 -25 -98 -47q-82 -20 -94 -31q-4 0 -43 -12 q-16 2 -24.5 3t-6.5 1l-24 -12q-12 -18 -13 -31q4 -16 13 -29h18l-2 -24l18 -7q-2 -35 1.5 -61.5t7.5 -46.5l-4 -8q-2 -6 2 -19l-9 -22q-2 2 -2 -37v-8l4 -11q-2 -23 -1 -40t4 -29q-2 -45 -3.5 -70.5t-1.5 -34.5l13 -30l-13 -13q-4 -12 -8 -88q0 -35 -5 -55.5t-12 -32.5 t-13.5 -17t-10.5 -11q-4 -10 -5 -15l-1 -6v-12l8 -19l9 -6q6 -2 8 -2h4h51l12 -14l27 4l6 -17q12 -2 78 -36q33 -16 51.5 -26.5t22.5 -14.5q55 -14 82 -21l28 -8l10 1q11 1 31 3l17 21v28l-9 19q0 8 2 14t8.5 13t21.5 15.5t44 24.5q43 27 53 49l13 7q47 51 47 120v25 q-8 16 -12.5 28.5t-8.5 18.5l-43 21q-8 -6 -20 -8.5t-23 -14.5l-8 -20q0 -4 2 -13.5t5 -19.5t6 -20.5t3 -12.5l-6 -12v-8l-4 -11l-14 -4q-14 -18 -25 -20v16q-59 -4 -110 8q-78 16 -92 54l-2 14l18 10l4 10l8 9q0 8 8.5 28.5t8.5 30.5q0 86 -2 80l6 2q-2 4 -2 10q0 8 -2 16 l-9 7q0 12 6.5 31.5t6.5 29.5q0 12 -3 33.5t-3 32.5l-5 6l9 18l-4 25l2 8l-9 12q12 51 -22 113l-4 45l12 18l10 7q18 -16 35 -52q8 -27 23 -57l18 -16q55 -145 84 -170h21l20 8l10 12l11 31l24 26q27 12 55.5 25.5t44.5 36.5zM1411 915v29l-10 12l-21 9l-8 8q-41 14 -55 24 h-6l-15 11l-36 8q-20 16 -46 26l-4 9q-23 14 -38 25t-25 20l-12 2l-13 8q-6 2 -10 2h-2l-9 -1t-28 -3l-12 -6q-18 -23 -19 -41l1 -9q1 -8 4 -24l-5 -10l-24 -27l-29 2q-18 25 -18 88q0 80 2 72q8 16 8 37l-6 12q6 43 13 89t42 77q8 2 25 10q4 -2 10 -2t14 -2q12 -12 17 -18 q4 -20 -9 -49l7 -23l20 -29l49 2l29 19q4 8 7 13t7 9q2 8 2 15v12l4 8q-4 18 -5 31.5t-3 23.5q-33 45 -57 64l-12 2l-9 10l-8 2l-8 6q-27 4 -37 9q-8 -2 -12 -2h-2h-10t-17 2h-28q-59 -18 -86 -44t-56 -85h-14q-18 18 -32.5 31.5t-24.5 21.5q-10 0 -25.5 7t-22.5 9 q-29 -4 -43 -6l-8 -10l-8 -4l-2 -11q2 -6 2 -10v-2v-4q0 -2 -2 -8q23 -20 36 -33.5t17 -19.5q0 -10 6.5 -34t6.5 -38t3 -48t3 -50v-21q-12 -18 -13 -69q0 -8 4.5 -25.5t4.5 -24.5l-2 -75q-10 -16 -11 -45q0 -6 2 -11v-12l9 -12l-3 -8l5 -13q2 6 2 -63q0 -8 -9 -27l13 -43 q-6 -66 -6 -53q0 -8 2 -14v-17l-13 -16l-6 -29q18 -37 15 -78l6 -14q2 -10 -6 -31q4 -23 -3.5 -43t-7.5 -28q10 -35 11 -43q0 -16 -8.5 -46t-10.5 -42q-39 -20 -57 -43l-4 -15l2 -28q2 -12 16 -23l39 -6l8 -8q41 -10 74 -35v-8l10 -11l8 -2l17 -12l-8 2q53 -47 84 -47 q6 0 14 1t18 3l19 16q2 14 3 20l1 7q0 20 -12 49v13l8 18q12 12 32 16l9 7l16 4q14 10 24.5 19t18.5 13l6 15l8 6l7 14l-3 10l3 11l-9 16l-28 14l-27 2l-2 15q-39 63 -33 100l-4 8q6 18 6 170q0 16 -4 51t-4 54q0 8 1 17t3 20l-6 10q-2 6 -2 8v4q2 51 7 85t13 52l7 -4l-2 8 l30 21l11 -14q63 -35 104 -56q-23 -86 -33 -130t-12 -66l6 -15q-8 -74 6 -106q4 -41 7 -82t8 -82l4 -10q-6 -27 0 -70q4 -29 6 -45t2 -24q0 -14 -6 -47t-4 -52q-25 -55 -25 -112q0 -45 23 -113l30 -33l35 -12l49 10l25 23l10 41l-6 34q-10 12 -12 21q-12 10 -21 14l-29 35 q-2 10 -3 14l-1 4q0 31 6.5 51.5t16.5 34t23.5 23.5t25.5 23q49 20 68 34l24 2l31 21l4 24l-20 23l-7 16q-4 25 -7 49.5t-7 49.5l-4 8q-2 14 -2 27v30v88l-14 19q2 20 12 26v15l-6 10v22q-2 8 -2 13v10q0 12 4 35.5t4 36.5q0 113 -2 102q6 63 39 84l-8 -10q18 18 22 28z" />
<glyph unicode="=" d="M776 834l-10 34l-12 11q-14 4 -20 5l-7 1q-31 0 -90 -41q-57 -39 -125 -39q-8 0 -25.5 2t-25.5 2l-25 -6h-78l-30 8q-14 -2 -27 -2h-25l-12 8q-61 4 -100 -8q-16 -14 -23 -39q6 -16 13 -27q2 -16 -2 -30q-70 -63 -76 -111q2 -10 2 -22l10 -19l29 -6q55 20 73 35v8l33 14 l13 -2l18 4l10 7l33 -5q14 4 24.5 5.5t18.5 3.5l27 -15q39 -2 69 -2h53q121 0 164 17q25 27 25 37q0 23 -6 34l10 31q33 35 55.5 63t38.5 44zM776 516l-10 35l-12 10q-14 4 -20 5l-7 1q-31 0 -90 -41q-57 -39 -125 -39q-8 0 -25.5 2.5t-25.5 2.5l-25 -7h-78l-30 9 q-14 -2 -27 -2h-25l-12 8q-61 4 -100 -8q-16 -14 -23 -39q6 -16 13 -27q2 -16 -2 -31q-70 -63 -76 -110q2 -10 2 -23l10 -18l29 -6q55 20 73 34v9l33 14l13 -2l18 4l10 6l33 -4q14 4 24.5 5t18.5 3l29 -14q39 -2 69 -2h54q119 0 161 16q25 27 25 37q0 23 -6 35l10 31 q33 35 55.5 62.5t38.5 43.5z" />
<glyph unicode="&#x3e;" horiz-adv-x="1492" d="M713 784l-6 21q-4 4 -8.5 9t-8.5 9q-10 2 -18 2q-6 0 -13 2l-6 41q-23 27 -28 35q-6 18 -7 29q-29 68 -45 94l-16 2q-8 16 -13 29.5t-9 23.5l-31 27l-29 2h-6l-10 -4q-16 -12 -25 -31l-2 -16q-55 -43 -70 -43q-20 -25 -98 -47q-82 -20 -94 -31q-4 0 -43 -12 q-16 2 -24.5 3t-6.5 1l-24 -12q-12 -18 -13 -31q4 -16 13 -29h18l-2 -24l18 -7q-2 -35 1.5 -61.5t7.5 -46.5l-4 -8q-2 -6 2 -19l-9 -22q-2 2 -2 -37v-8l4 -11q-2 -23 -1 -40t4 -29q-2 -45 -3.5 -70.5t-1.5 -34.5l13 -30l-13 -13q-4 -12 -8 -88q0 -35 -5 -55.5t-12 -32.5 t-13.5 -17t-10.5 -11q-4 -10 -5 -15l-1 -6v-12l8 -19l9 -6q6 -2 8 -2h4h51l12 -14l27 4l6 -17q12 -2 78 -36q33 -16 51.5 -26.5t22.5 -14.5q55 -14 82 -21l28 -8l10 1q11 1 31 3l17 21v28l-9 19q0 8 2 14t8.5 13t21.5 15.5t44 24.5q43 27 53 49l13 7q47 51 47 120v25 q-8 16 -12.5 28.5t-8.5 18.5l-43 21q-8 -6 -20 -8.5t-23 -14.5l-8 -20q0 -4 2 -13.5t5 -19.5t6 -20.5t3 -12.5l-6 -12v-8l-4 -11l-14 -4q-14 -18 -25 -20v16q-59 -4 -110 8q-78 16 -92 54l-2 14l18 10l4 10l8 9q0 8 8.5 28.5t8.5 30.5q0 86 -2 80l6 2q-2 4 -2 10q0 8 -2 16 l-9 7q0 12 6.5 31.5t6.5 29.5q0 12 -3 33.5t-3 32.5l-5 6l9 18l-4 25l2 8l-9 12q12 51 -22 113l-4 45l12 18l10 7q18 -16 35 -52q8 -27 23 -57l18 -16q55 -145 84 -170h21l20 8l10 12l11 31l24 26q27 12 55.5 25.5t44.5 36.5zM1454 236v16l-6 10l-10 8h-21l-33 13l-16 30 q0 14 -2 41t-2 37q0 18 2 25l-8 10v14l18 35q-16 74 25 133v8l-15 23q-72 29 -90 27q-8 4 -15 7t-15 7l-13 -2l2 27q31 27 39 45q23 35 42.5 66.5t35.5 64.5q20 8 43 51l-10 37l-12 8l-15 3l-4 1h-4q-4 0 -14 -2l-47 16l-17 15l-6 2q-49 14 -65 24q-14 10 -28.5 19.5 t-29.5 19.5q-47 29 -59 29h-29l-14 -6q-10 -31 -17.5 -52.5t-11.5 -35.5q-20 -27 -35 -31l-30 14q-6 37 -6 74v2q0 4 2 8q-2 8 -2 19l4 10q0 14 3 41t3 39q0 96 47 174l22 12q10 2 15 2h6l4 -1t14 -3q2 -14 -4 -35.5t-6 -31.5l1 -7q1 -8 3 -22q14 -27 33 -39l16 -4 q29 4 37 10l7 6q8 6 22 21l4 20l-21 21v8l13 8l10 16q-4 35 -8 45q-2 2 -8.5 10.5t-20.5 24.5q-47 55 -147 56l-8 -1l-21 -3q-8 -4 -18.5 -10.5t-26.5 -12.5q-25 -10 -66 -51q-4 -10 -7 -19.5t-7 -15.5v-14l-10 -7q-16 23 -31.5 41.5t-32.5 28.5h-8l-16 8q-20 2 -32.5 1 t-20.5 -3q-12 -10 -23 -35v-16l25 -14q6 -10 12 -22.5t14 -24.5q4 -43 7 -61.5t3 -14.5q0 -242 2 -248l15 -8v-23l-6 -10l4 -18l10 -6v-7l-18 -22q-10 -41 -11 -107v-18t2 -25v-45l-8 -16l4 -51l6 -11q-10 -47 2 -77q-4 -35 -14 -50v-20l6 -12v-11q0 -6 2 -16v-27 q0 -14 -5 -44.5t-5 -45.5q0 -49 -12 -80l-10 -8l-7 -12q-18 -12 -26 -39q2 -10 2 -22q16 -10 29.5 -16.5t23.5 -10.5q4 -4 15.5 -12.5t27.5 -22.5q27 -23 49 -29l15 -14l6 -14l26 -15l6 -8l44 -10q20 8 30 18l6 31v6l-18 37q4 27 12 35l25 18v11q68 23 90 84l-10 18 q-8 6 -14.5 11t-10.5 10h-14l-13 6l-10 24l-8 8q-2 10 -3 15.5t-1 9.5q0 45 2 51q-14 37 -14 58v26l8 8q2 4 2 7v2q0 2 -2 24.5l-6 67.5q-6 68 2 82l-4 8q2 16 2 29q0 14 2 22l-13 -4q-2 16 -3 26.5t-1 18.5l17 10q2 14 2 21v6q0 16 -2 20q4 20 6 34.5t4 25.5l14 10 q23 0 64 -21q47 -23 53 -34q37 -20 68 -17l8 -4h8l12 10h11l4 -12l-2 -14l-9 -6q-41 -90 -69 -117q-20 -6 -33 -21l-18 -4q-23 4 -39.5 6.5t-26.5 4.5l-8 -2l-14 -13l-7 -12q-4 -16 15 -43l28 -12l7 -9l28 -4q20 -25 68 -30l18 -17l-12 -41q-14 -10 -10 -41q-6 -10 -6 -28 q0 -16 3 -42t7 -59l-4 -14q8 -45 -29 -80l2 -8l-18 -18l-2 -31q8 -8 19 -16.5t28 -16.5h12l10 -4l4 8l4 -14q10 -8 20.5 -16.5t20.5 -18.5l2 -8q6 -10 20.5 -21.5t31 -21.5t32 -17.5t25.5 -7.5l16 2l9 10l14 46l-8 34q2 27 39 54l-2 18q23 0 32 6q33 52 33 58z" />
<glyph unicode="?" horiz-adv-x="782" d="M729 971q-8 16 -13 27.5t-9 19.5q-23 113 -27 123q-20 66 -70 102l-4 25h-28l-7 8l-12 6l-8 10q-106 41 -141 41q-8 0 -127 -24q-8 2 -13.5 4t-9.5 4l-4 8l-37 29q-12 2 -18 2h-6q-12 0 -27 -8l-21 -27q0 -12 7 -68l8 -8l6 -18q0 -29 -18 -68q-18 -12 -33 -39l-13 -6 q-4 -6 -30 -55q-18 -35 -19 -62q0 -35 15 -55l16 -14l23 -8q33 0 43 10q10 25 24 39l-2 12l10 10l-8 23l10 14l21 10l18 25q10 0 45 8l13 -6q10 -2 18 -2h18l46 -19q23 -23 38 -39t23 -24q8 -63 27 -96q-4 -12 -7 -31q-6 -63 -40 -143l-24.5 -49t-45.5 -84v-13 q-6 -4 -12.5 -15t-11.5 -26.5t-9 -30t-4 -22.5q0 -53 2 -55q4 -8 8 -14.5t6 -10.5l23 -10q14 -2 22.5 -1t12.5 3q12 12 26 18l13 23q6 29 12 50.5t10 35.5l17 18q2 10 2 15v6t-2 8l8 12h10l27 17l4 8l-2 14q27 16 55 27l2 20l14 9l9 18l-7 14l9 19l26 8q49 68 68 104 q-4 14 12 56q18 55 19 59q8 8 14 14.5t10 14.5zM535 178l-15 29q-10 10 -24.5 20.5t-30.5 20.5h-10l-25 24q-2 8 -3 17.5t-5 21.5l-12 2l-15 17l-10 4h-16q-6 2 -15 2q-10 0 -22 -4l-21 -17q-6 -29 -6 -43q-25 -27 -44 -44t-34 -27q-4 -12 -6 -19l-2 -6v-26q23 -20 41.5 -35 t28.5 -25l16 21l10 -7l4 -30q61 -68 87 -76h10l6 6q6 2 16 12q4 31 7.5 46.5t3.5 17.5q25 29 63 49z" />
<glyph unicode="@" horiz-adv-x="1394" d="M1360 883q0 260 -182 426q-182 168 -443 159l-61 -2l-58 -8q-250 -35 -413 -225q-164 -193 -164 -442q0 -295 192 -502q193 -209 484 -209q156 0 309 72q160 74 246 198q35 29 67 119l-108 -6l-29 -43l-31 -37q-170 -203 -448 -203q-231 0 -387 146q-152 143 -184 381 q-2 10 -3.5 21t-1.5 22l-2 45q-8 236 172 409q174 168 414 168q231 0 381 -133q150 -131 150 -365q0 -166 -170 -323q-82 -76 -113 -76q-20 4 -23 14l-6 46l2 409l11 62l16 43q8 23 39 59l-47 25q-16 -20 -35 -33q-10 -6 -33 -6q-61 0 -100 18l-92 41q-6 6 -19 8l-16 4 q-31 -35 -68 -43q-55 -23 -82 -22l-18 -4h-51l-25 2l145 -258q-164 -176 -153 -308q10 -127 139 -221l209 170q4 -23 9 -43t14 -43q31 -51 79 -82q39 8 95 41q41 23 69.5 39.5t42.5 24.5q281 182 281 465zM776 967h-12v-179l-139 62l-105 186l252 -80zM776 739h-12v-194 l-92 -74q-92 76 -92 164l8 86l24 74l160 -68z" />
<glyph unicode="A" horiz-adv-x="1556" d="M1556 49l-10 23l-26 16q-27 0 -54.5 10.5t-33.5 10.5q-10 12 -16.5 22t-10.5 19l-27 8l-6 24l-12 17q-2 25 -27 59q-18 2 -43 16l17 23v8q-10 29 -18.5 52.5t-14.5 43.5q2 10 -2 31l-15 21v12q-8 25 -18 35l2 18l-4 12l-8 5q-8 23 -13.5 41t-9.5 28q33 -16 49 -14 q12 -8 20.5 -12.5t12.5 -8.5q12 -20 21.5 -35.5t13.5 -27.5l29 -21q8 -2 16 -3t16 -3q29 10 43 27l13 41q-4 16 -6 27.5t-4 15.5q-16 29 -35 39l-9 2q2 10 -4 24l-16 -6l-6 21q-41 25 -68 24l-24 17q-41 -6 -74 14h-8l-21 29l-4 26q8 33 -14 66l-12 10q-2 10 -3 14l-2 4 q0 6 -3 25t-7 49l-14 13l2 18l-25 123v10l7 8q0 16 6 23q37 29 53 41q39 2 100 49q10 27 25 35l8 37l-4 24q-6 6 -12 13.5t-13 15.5q-16 4 -23 7l-7 3h-31l-25 -10l-26 -37q-41 -25 -117 -25l-8 4q-70 6 -105 -10l-8 -14l-18 4l-15 -14l-8 20q-10 4 -16 5l-6 1 q-139 0 -166 -6q-47 12 -158 12l-16 7l-4 12q-14 12 -23.5 21.5l-15.5 15.5h-13l-8 6q-6 2 -10 2h-2q-10 0 -43 -6l-10 -6q-12 -16 -24.5 -33t-12.5 -41q0 -12 6 -33l14 -20q25 -14 35 -27q27 -4 48.5 -8t37.5 -8q16 6 43 -2l43 -13l23 -16v-16l4 -9q-6 -6 -29 -123l-27 -40 v-21q-10 -29 -19 -52.5t-15 -39.5q6 -16 -2 -35q-12 -10 -17 -20l2 -13l-10 -20l-2 -19l-4 -8l-27 -12q-98 -2 -176 -43q-96 -49 -96 -137q0 -23 2 -33l33 -33q16 -2 25 -3l10 -1l6 1l18 3q31 31 31 35v10q16 37 28 49q43 29 78 25q8 -2 21 -6q-4 -10 -13.5 -34t-19.5 -58 q-20 -63 -39 -88v-13l-8 -16v-6q-8 -23 -18.5 -42.5t-22.5 -35.5l-2 -21q-8 -10 -15.5 -20t-13.5 -21q-27 -14 -33 -38l-12 -11q-25 -4 -31 -10l-4 -16q-16 -16 -94 -56q-70 -35 -90 -82l-2 -32q10 -16 17.5 -27.5t11.5 -19.5q8 -2 14 -2q8 0 12 -2l11 2l8 -2q23 10 37 15 t22 9l8 16q61 27 78 29q10 2 30.5 4t53.5 6l8 -4q63 -6 56 -6l8 -6h16h8h45l15 -4l8 -14l27 -2q8 -4 47 -5q47 0 116 15l31 22l8 15q-4 20 -5 31l-1 10q-8 6 -13 10t-9 8q-111 18 -133 53l-3 8l-10 13q-16 49 -20 55v23q0 66 22 98l-2 16l-18 23l14 12l2 10l-12 27l27 10 l8 8l4 19l-4 20l-4 6q0 10 10 37l8 11l-2 18l14 -2l-2 -10h8q86 -59 111 -140q18 -59 19 -61l34 -14l19 4l22 18q39 156 146 191q20 -70 20 -111q0 -53 8 -84l-4 -39l11 -24q6 -45 -29 -91.5t-78 -66.5l-14 -2q-29 -27 -44.5 -39t-17.5 -14q-31 -33 -26 -74q8 -27 34 -47 q16 -8 31 -8q10 4 22.5 8t28.5 8l2 8q25 18 41 35l15 2l10 10l31 10l8 -4h6l10 4q119 6 246 -24l2 12q10 2 27 -2q31 -20 57 -16q39 -12 61 -19h13l16 6q29 -6 80 5q39 14 55 38q4 10 5 17.5t3 11.5zM920 641l-19 4q-51 -14 -88 -41l-8 -2q-18 -20 -31.5 -35.5t-21.5 -25.5 q-100 119 -162 125q-2 10 -3 14l-1 4v4q0 6 2 17q20 20 33 77q12 59 26 76v10q20 57 23 80q20 66 36.5 113t32.5 76l13 4l14 -15l76 -223l-8 -14l6 -23l34 -39v-30q-6 -6 -10 -23q2 -6 13.5 -33.5t11.5 -42.5v-6t-2 -16l31 -17z" />
<glyph unicode="B" horiz-adv-x="1273" d="M1233 387q-14 33 -21 41q-18 43 -38.5 87t-59.5 75v12l-6 8l-16 -2l-41 27l2 8l-6 8l-17 -2l-22 13l-7 10q-10 -2 -16 -2h-10l-14 6l-7 -2q-70 20 -96 22l33 27l61 14q70 41 113 97q14 23 24.5 39t16.5 28q4 27 7 46.5t7 33.5l17 27q-16 45 -25 59q6 29 -39 96 q-47 72 -76 80l-14 19l-14 -2l-17 18q-29 10 -32 16q-10 2 -38 10.5t-40 8.5h-8l-7 -15l-14 7l4 16q-86 6 -69 6h-134q-27 0 -73 -8q-55 -10 -62 -14q-61 -10 -97 -15.5t-46 -5.5q-51 0 -60 6q-16 16 -26 29.5t-19 23.5l-75 13q-10 -10 -31 -19q-14 -39 -16 -53 q4 -41 18 -54t31 -30l32 -14h9q4 -4 11 -10.5t15 -14.5q10 -35 14.5 -58.5t6.5 -33.5l-4 -16l2 -19l6 -10q4 -23 0 -53l4 -10v-39q0 -14 -2 -25q0 -10 3 -38t3 -42l-2 -72l-8 -14l2 -78q0 -6 -7 -21.5t-7 -23.5q0 -6 4 -18t4 -19q0 -18 -6 -45l4 -24l14 -8q2 -6 2 -11v-2 q0 -25 -8 -47v2l-4 6v-6l-13 -8q-6 -23 -6 -45q0 -10 3 -29.5t3 -27.5q-12 -18 -12 -31q2 -4 4 -9t4 -14q2 -10 -39 -92l-28 -20l-4 -6q-61 -27 -78 -45l-10 -3q-18 -8 -35 -32l-21 -51l2 -31q27 -41 45 -53l52 8l16 10q14 16 23.5 28.5t17.5 20.5q20 8 55 25q27 -2 51 4h58 l4 -1l12 -3l10 4q39 -12 64 -12l16 -13l23 6q16 25 29 27q2 -10 3 -19.5t1 -15.5l12 -10l20 6q16 -2 36 -3t42 -5l6 2l23 -8q4 4 84 -6l12 4l10 -4q98 12 93 12h6q6 0 18 -2q55 12 129 53l6 19l11 -3l-3 -10q8 6 20.5 17.5t26 26t26.5 25.5t26 17l14 19l-14 24 q31 10 37 19.5t12 15.5l-4 16l24 23v8l7 10l2 19q16 27 24 35l2 16l17.5 24.5t11.5 18.5zM864 377l-18 2l2 -12q-6 -16 -6 -31q0 -23 2 -27q-6 -10 -6 -18q0 -4 1 -9.5t3 -15.5l16 -18l-20 2q-10 -33 -17.5 -56.5t-11.5 -39.5l-12 -11q-2 -14 -22.5 -31.5t-35.5 -17.5l-6 -6 h-16q-6 -2 -15 -2q-35 0 -55 18l-10 23l-10 4l-2 23l-23 12l2 31q-18 57 -24 86l-9 4v12q2 6 2 12q0 8 -5 24.5t-5 24.5q0 10 2 32t2 34q-6 4 -12 7t-10 7v13q4 14 12 26q-10 80 12 109v26l-12 27q-4 35 -6 68.5t-2 62.5v6t2 17l-16 14q10 12 20 16q-6 18 -2 80q2 29 4 48.5 t6 29.5l-8 18v19q0 31 14 74l-6 30l8 35q14 12 25.5 23.5t19.5 21.5l31 6l8 7q8 2 13 2h4q12 0 57 -15l45 -41l27 2l-13 -20q12 -23 13 -35l6 -6l10 -25l-4 -12l2 -16l23 -29l2 -33v-8l-11 -14l-4 -19q6 -16 4 -45l-4 -8q0 -43 -20 -84q-25 -51 -57 -66l-11 64l-18 29 l-31 14q-31 2 -60.5 -22.5t-29.5 -55.5v-35q37 -25 61 -61h17l22 -12l9 2l20 -19q20 2 86 -63q10 -33 17.5 -55.5t11.5 -38.5q4 -31 5 -55.5t3 -45.5z" />
<glyph unicode="C" horiz-adv-x="1255" d="M1323 -158v41l-18 33q-16 10 -25 14l-8 4q-16 -6 -35 -4q-20 -16 -49 -20l-17 2q-6 10 -12 16t-10 11q-27 45 -47 135l-6 2l-6 -8v12q-2 6 -3 12v8l7 13q-12 14 -9 80l-12 10l6 14q-6 18 -4 35l-10 10v19l14 8q-2 4 -2 6v4q0 23 2 25l-10 24l14 14l-14 -4q2 10 2 17 q0 8 2 12l-8 25q0 10 12 39q0 12 2 33.5t2 33.5q0 66 -16 94l-23 17l-10 -2l-22 4q-35 -16 -56 -60l-4 -59l8 -10v-15l-14 -14l-4 -18l2 -13q-4 -25 -10 -32q-2 -10 -2 -17v-4q0 -37 -2 -39l-10 -12l-3 -6l3 -13l-4 -12q-3 -12 -9 -39q-8 -29 -18 -45v-8q-47 -72 -64 -86 l-21 -14t-18 -11l-18 -2q-10 -4 -17.5 -8t-11.5 -6h-32l-13 -6q-8 -2 -29.5 5t-29.5 7h-4q-4 0 -13 -2q-20 14 -36.5 26.5t-28.5 22.5q-10 20 -17.5 34.5t-11.5 25.5l-12 6q2 10 -14 74q-18 70 -19 77q10 35 12 52q-10 8 -14 18q-4 14 6 61l-10 29q2 10 2 17v6v49l-10 2 l-2 6q2 16 4 28.5t4 20.5l-2 8q-6 6 -18 11q-2 16 -3.5 29.5t0.5 21.5l-4 10q2 8 4.5 14.5t6.5 14.5l-4 16q12 31 12 43l-10 25q4 16 6 29.5t4 23.5l-2 14q4 4 18 66q16 68 15 71q25 61 30 84q8 8 37 52q23 35 78 63l12 2l8 6l37 11q8 -2 20.5 -3.5t33.5 1.5q55 -20 65 -31 h14q27 -23 39 -31q61 -74 56 -117l14 -10l6 -12v-21l10 -18l-6 -10q6 -27 12 -35l-8 -21q14 -45 19 -71q-4 -33 -7.5 -45.5t-3.5 -8.5v-10q0 -8 3 -24q4 -8 8 -15.5t8 -15.5q18 -18 37 -25q37 2 71 29q23 35 23 72q0 14 -6 41.5t-6 42.5q0 12 6 22q0 14 -5 37t-5 31 q2 -10 2 10v76l-1 4t-3 14l8 15q-4 59 49 100v10l10 4l8 19v-9l11 56l-5 22q-6 14 -30 27h-13q-8 0 -24 -2q-31 -16 -74 -60l-4 -8l-20 -16h-13q-80 51 -139 61q-70 12 -78 19h-39l-8 4q-102 -6 -156 -6l-14 -6h-12q-53 -20 -88 -27q-23 -10 -39.5 -18.5t-26.5 -16.5v-10 l-35 -16l-6 -9q-12 0 -33 -12q-51 -66 -75 -80q-8 -18 -23 -37l-26 -2q-6 -4 -17 -33q8 -51 -45 -139l-2 -20l-8 -13q0 -10 -7 -30.5t-5 -32.5l-31 -96q-27 -37 -39 -49q8 -16 14 -32t11 -28q2 -14 4 -24.5t6 -18.5q-2 -12 -2 -22q0 -8 -2 -15l12 -14q-4 -16 2 -35l-8 -33 l31 -26q4 -8 8 -16.5t6 -18.5q-2 -14 -2 -25q0 -10 -2 -16q6 -23 4 -31q4 -6 11 -20.5t16 -36.5q16 -41 40 -57l9 -2l2 -25q6 -6 16 -31q20 -16 33.5 -29.5l23.5 -23.5q0 -18 9 -33q53 -55 82 -57q8 -6 14 -11.5t12 -9.5h12q55 -29 89 -26q20 -20 71 -21q12 0 32.5 2t49.5 6 l29 -10q16 10 31 10h4q4 0 14 -2l29 13l18 -8q47 20 64 20v10l12 6l8 -6l25 19l2 10l10 -2q27 18 31 18l4 6q27 18 43 31l24 -92q14 -53 37 -86v-8q23 -43 31 -66q12 -14 22 -18l31 -33q16 -8 26.5 -14t18.5 -11q31 -10 39 -12h37l10 6h12l21 11l6 8l-6 12l10 -2l8 4 q27 45 27 51z" />
<glyph unicode="D" horiz-adv-x="1361" d="M1321 690l-14 10q-4 10 -6.5 19.5t-4.5 15.5l-14 -2q-27 68 -27 129q-2 6 -12 17q0 66 -12 96l-14 14q-12 66 -66 137q-45 57 -45 62h-14q-10 12 -13 24q-41 27 -45 31l-14 -6h-8l-2 12l2 8q-8 4 -15.5 8.5t-15.5 8.5l6 -2q-113 70 -215 69q-29 0 -50.5 -1t-35.5 -3 l-12 6l-15 -6q-41 4 -63 -8q-10 2 -86 -12q-78 -16 -82 -21q-4 0 -15.5 -2t-24.5 -5t-24.5 -6t-15.5 -3q-8 0 -14 2h-17l-12 8l-26 6l-5 9q-16 16 -29.5 27t-21.5 20q-23 6 -51 6q-4 -2 -10 -3t-10 -3l-31 -21l-12 -26q2 -10 -5 -25l2 -18q16 -35 39 -54q18 -8 30.5 -13 t19.5 -9l12 6l4 -12l-2 -11l14 -10q23 -41 25 -112q2 -70 16 -101q-8 -53 -13 -91t-7 -64q6 -16 16 -31l-2 -8l-10 -2q-6 -14 -4 -37l-4 -11v-8q0 -111 -19 -155l9.5 -9.5t11.5 -13.5q4 -23 -11 -53l2 -14q6 2 21 -3l-18 -8q-8 -14 -9 -41l4 -8q2 -14 -6 -63 q-10 -51 -14 -58q2 -8 -2 -20l4 -15l14 -12l-26 2q-29 -41 -45 -57q-35 -12 -62 -35l-10 -2l-2 -8q-10 -4 -21 -10l-41 -56q-2 -18 -6 -28l4 -31l25 -31q23 -12 33 -16h39q16 8 22 10l21 23l-2 8l-9 4l5 6h20q35 27 68 29q47 2 57 6l33 -8l8 2l27 -6l8 -9q33 -2 55.5 -4 t38.5 -6q12 -4 20 -4l17 -10q20 2 57 -4l8 4q12 0 23 -6l12 2l12 -6q14 4 43 -3l23 17v-14l10 -9l23 2l16 9q61 -6 197 34l8 11l12 6l8 10q16 8 25 10l12 13q6 2 11 2q6 0 10 2l14 22q10 4 19.5 5t13.5 3q10 20 49 66q16 20 28.5 39.5t22.5 38.5v8l10 6l5 23l20 14 q16 35 27 59l-6 15q6 8 11 13l9 9l-2 15q14 37 22.5 62.5t12.5 41.5q4 18 6 20q0 20 16 82q15 58 29 78zM936 602q-10 -20 -12 -27q18 -129 -27 -256q6 -20 -4 -61q-10 -6 -21 -10l-14 -41q-8 -8 -14 -14.5t-10 -14.5l-5 -26q-33 -37 -51 -50q-31 -14 -63 -14q-6 0 -10 2 h-13q-16 12 -24 12q-39 33 -56 60q-2 14 -6 25.5t-8 21.5q4 61 -8 88l-15 14q-2 12 -2 19v6q0 10 2 20v23l-6 12q2 10 6.5 18.5t8.5 16.5q0 2 -1 5t-2 13.5t-2 30t-1 53.5q-4 14 -19 25q2 16 -8 41q2 6 2 8v4v4q0 6 -2 17l8 26q-4 12 0 135q2 37 2 58q0 20 2 24q-8 10 -8 50 q0 6 5 20t5 21q0 6 -2 20t-2 20q0 4 1 15.5t3 27.5q2 14 3 24.5t1 18.5v3q0 4 -2 10l11 20q-8 49 51 103q12 -4 30 6q94 -16 115 -33q41 -31 43 -39q14 -6 23 -18l2 -13q10 -8 32 -55l5 -33q2 -6 16 -16q8 -16 6 -61q10 -31 19 -39q0 -12 6 -21q2 6 2 -80l4 -8q0 10 1 -13.5 t3 -82.5l-12 -19q0 -10 6 -31.5t6 -33.5v-31z" />
<glyph unicode="E" horiz-adv-x="1228" d="M1317 -162v33l-14 35l-7 6l-71 27h-35q-25 25 -27 63l-8 8l-12 -4q-14 104 -31 174l4 53l4 9q-12 88 -12 77l4 11q-2 14 -6 65q-4 39 -19 72l-8 8l-16 4l-8 6l-33 -8q-12 -12 -23 -14q-8 -20 -22 -84q-6 -27 -12.5 -47.5t-14.5 -34.5q-6 -4 -16 -14q-6 -41 -14 -54 q-25 -20 -37 -39l-2 -16q-16 -16 -27.5 -28.5t-19.5 -20.5l-11 -2l-14 -12q-10 -2 -25 -2l-12 -13q-37 -16 -59 -16h-15l-8 4l-12 -2l-72 31q-25 14 -31 20q-72 88 -81 197l-9 10q-4 10 -5 19.5t-3 15.5h-10l10 53l-10 10v31q0 20 2 49l-10 12q-2 16 -2 23v8q0 27 6 45 l6 -12l18 -2l9 4q94 0 102 4l111 -6q49 -6 100 -49q0 -31 6 -45l-2 -11q27 -29 49 -36l31 12l20 27q6 25 9.5 46t5.5 37l-21 19q-4 31 -12 63l14 11q-12 100 -12 96v14q8 6 15.5 28.5t11.5 43.5v24l-13 23l-20 10q-10 -2 -17 -2q-6 0 -10 -2q-29 -29 -51 -51.5t-37 -40.5 l-18 -4l12 16l-22 -14h-43l-11 -8l-4 10q-20 -2 -31 -2h-10q-186 0 -198 -4l-13 12l11 23l16 8q-2 4 2 51l-12 14l8 15q0 4 12 47l-6 20l8 2l19 62q12 33 22 55.5t19 36.5l16 8q14 20 27 33q29 16 58.5 28.5t57.5 16.5l21 -8l10 12q16 -2 34.5 -3t39.5 -1q33 -12 45 -20 l6 -11q16 -4 26.5 -8t18.5 -6q12 -16 21.5 -28.5t13.5 -22.5l2 -33l20 -8q-8 -18 -2 -41l6 -8q16 -49 19 -76q-2 -16 8 -49q12 -10 16 -21q14 -8 35 -8q20 0 37 18l19 39v45l-9 13l9 16q4 141 51 219l-6 17l24 18l19 33l2 33l-8 18l-9 6q-27 2 -39 6l-22 -8q-10 -14 -23 -16 q-10 -8 -30 -41q-14 -20 -41 -37q-10 -2 -17 -2h-4h-6q-39 31 -100 47l-4 10q-4 2 -7 2h-2q-10 0 -14 -2q-84 25 -154 25t-208 -33l-9 -8l-24 -4q-53 -33 -76 -41l-12 -2q-16 -12 -30.5 -24.5t-31.5 -22.5q-35 -29 -43 -62l-8 -8l-24 -8q-6 -25 -25 -49q2 -2 -8 -31 q-10 -4 -16.5 -8t-10.5 -8l4 -11l-28 -59v-12q-25 -47 -23 -84q-8 -12 -18.5 -35t-21.5 -47.5t-22.5 -48t-23.5 -39.5l-2 -15q16 -23 18 -34l13 -11q8 -61 34 -110l-4 -19q10 -51 16 -76l7 -26q-8 -27 4 -49l10 -13q8 -39 39 -90l12 -8h7l2 -12l-4 -15l22 -10l8 -22l-4 -15 l4 -12q8 -8 17.5 -18.5t19.5 -22.5l19 10l4 -37q29 -16 51 -29.5t39 -27.5q70 -37 110 -49l13 2l8 -4q23 -4 38 -8t25 -8q29 -4 49.5 -5.5t34.5 -3.5h13q6 2 12 2h55t29 2q8 8 29 9h2q4 0 10 -2q6 2 86 36q61 29 76 62h12t29 -2q14 -66 24 -98v-7l6 -8q0 -35 25 -80 q12 -18 24.5 -36.5t22.5 -36.5l10 -4q43 -33 66 -41q12 2 22 2t21 2l10 -4q12 2 25 14q2 6 -2 18l14 -12l16 4q19 14 27 45z" />
<glyph unicode="F" horiz-adv-x="1171" d="M1130 801q0 6 -2 20.5t-2 22.5q-6 8 -12 14l-12 12q-33 10 -39 9q-4 12 -4 82v6t2 18l-4 8q16 72 18 107q-10 14 -10 20l14 29l4 98q-4 23 -8 41.5t-6 32.5q-10 10 -49 22q-16 -10 -25 -24q-10 -4 -30.5 -8t-53.5 -8q-68 -6 -80 -5l-10 -4q10 -2 -90 -2h-6t-18 2l-29 -18 v10l-19 12q-8 0 -22 -2t-21 -2q-18 0 -56 2t-56 2q-4 0 -14.5 -3t-14.5 -3q-14 0 -48 6.5t-48 6.5q-6 0 -18.5 1t-25.5 3t-26 2h-16l-21 12q-6 8 -13 16.5t-15 18.5l-25 12q-23 2 -33 3l-10 1h-14l-31 -14l-25 -31l-3 -12l-1 -4q0 -39 17 -62q8 -12 28 -18h19l8 -6l2 -8 q10 -4 20.5 -6.5t22.5 -4.5q25 -53 31 -80q6 -18 -10 -41l12 -14q-2 -14 -1 -31.5t3 -40.5q2 -27 2 -43v-26q0 -16 -2 -53t-2 -58l4 -8l-2 -10l4 -10q-8 -18 -8 -45q0 -43 -12 -58q-2 -10 2 -22l10 -11q-6 -29 -6 -45l4 -10q0 4 1 -4t3 -25q-8 -10 -8 -104q0 -37 6 -51 l-6 -8l-4 -27l8 -25l-33 -131q-23 -41 -57.5 -60.5t-46.5 -33.5q-16 -8 -27.5 -14t-20.5 -10l-4 -9q-45 -27 -45 -98v-14l13 -21l20 -16q10 -2 22.5 -3t28.5 -5l47 37l11 24q14 4 22 10t12 11q16 -2 46 3t43 5q29 0 63 -6q12 4 23 8q27 -2 41 -15q25 4 90 -6q4 0 14 -4 t16 -4q18 0 33.5 -1t30.5 -3l10 -6q41 -4 70.5 -8t50.5 -8q18 6 45 4l8 4q39 8 65.5 14t43.5 14q18 16 30.5 29.5t20.5 24.5q16 55 16 47q0 47 -20 69q-16 8 -25.5 13.5t-13.5 7.5h-14q-31 0 -58 -25q-4 -14 -12 -28q2 -8 -6 -35l-13 4l-55 -23l-18 4q-2 6 -17 17l-10 -4 l-10 28l-14 7l-29 28q-8 25 -21 41l-4 31l4 12l-6 12l-20 13q-4 10 -6 17t-4 16q0 20 2 26l10 10l2 11q-4 16 -6 25l-2 9v9q0 8 2 24q-12 45 -13 76q8 14 9 31v14l-15 14q-2 14 -2 21v6v2q0 4 2 8q25 8 121 8q23 0 60 -6q53 -31 53 -67q0 -10 -5 -30.5t-5 -33.5l4 -14 l20 -21l25 -10h12q27 2 45 43q16 37 16 64q0 18 -12 59l-12 16q6 25 -4 58l6 14q-6 39 24 133q2 2 -10 60q-16 16 -35 16q-27 0 -39 -14q-6 -6 -11 -13.5t-13 -15.5t-22.5 -19.5t-39.5 -25.5h-14l-12 -8l-17 4q-33 -4 -54 -6t-34 -2h-10t-16 2h-27q-8 10 -4 106q0 37 2 39 l-4 10q0 4 -2 12.5t-2 12.5q0 10 12 72q14 63 19 69l16 13l6 20q61 35 86 41q59 8 139 -39q10 -12 19.5 -23.5t17.5 -21.5l11 -2q10 -27 20 -45.5t21 -30.5q12 -47 18 -55q10 -78 18 -109q4 -23 8.5 -41t8.5 -32q6 -10 11 -17.5t9 -11.5q27 -27 64 -27q18 0 55 17 q6 14 18 26q2 10 2 15v4z" />
<glyph unicode="G" horiz-adv-x="1249" d="M1208 408q-27 37 -28 51v39q-14 39 -17 55l-8 2v16l4 11l-12 20l-2 19q-16 10 -23 43l-20 26v17l-47 14l-4 12l-13 10l-6 13q-10 8 -65 30q-53 23 -66 25l-16 -4l-27 8l-10 -4l-19 2l-59 -16l-22 4q-90 -41 -138 -84l-15 -15l-5 -4q-14 -29 -22.5 -49t-12.5 -31 q2 -8 -2 -26.5t-4 -24.5q0 -8 5 -24.5t3 -26.5q14 -16 23.5 -29.5t17.5 -23.5q16 -4 27.5 -8t19.5 -6q35 4 66 20q14 12 20 33l-2 20l8 27l-22 37q-27 8 -33 22q-4 20 8 49q10 10 31 21q39 -12 45 -12l29 -25l20 -41q20 -37 21 -37l4 -26l10 -17l-8 -6q2 6 2 -16 q2 -33 1 -55.5t-3 -36.5l10 -23l-6 -21l-10 -12l-5 -16l9 -8q-23 -78 -31 -129l-25 -56q-16 -16 -28 -43q-49 -23 -80 -30l-10 4l-11 -2l-10 2l-8 -2q-16 10 -33.5 18t-38.5 16q-18 29 -33.5 50.5t-25.5 35.5q-4 10 -5 16.5t-3 10.5l-9 4q0 10 -2 25.5t-6 31t-7 30t-3 22.5 q0 23 2 26q-2 6 -4 14.5t-4 18.5q8 10 8 47q0 78 -10 115l-10 14h-11q-4 20 -5 31l-1 10q0 154 13 201l-3 10q8 35 9 62l-6 30l20 25q0 39 10 80l-6 18q18 25 37 80l12 6l2 31q45 29 88 68q2 2 11 6q27 4 46 8t33 8l7 8l28 -4q6 -4 33 -11t41 -20q8 -10 15.5 -18t13.5 -14 q2 -10 18 -27v-12l4 -11q12 -14 22.5 -26t18.5 -23q-2 -25 4 -41q-4 -12 -2 -22q29 -78 35 -121l21 -16l38 -2l15 10q6 10 11 19.5t9 13.5l2 34q0 6 -2 9l6 8q-2 12 4.5 33.5t6.5 31.5q-2 4 -2 6t-2 7q6 18 2 34l-15 23q20 63 23 92l49 86l6 33l-6 22l-62 21 q-31 -8 -47 -32.5t-32 -49.5l-21 -8q-14 2 -24 2q-8 0 -13 2q-61 53 -180 67q-31 0 -39 -2q-29 2 -43 2h-16q-6 2 -19 3q-27 0 -88 -19q-66 -16 -73 -14l-9 -10q-25 -10 -55 -43l-27 -5q-23 -18 -41 -32.5t-28 -24.5q-10 0 -19 -8l-6 -8l-2 -11l-26 -22l-5 -10l-10 -9 q0 -14 -33 -65q-31 -53 -38 -55l2 -17q-2 -8 -6.5 -21.5t-14.5 -29.5q2 -10 1 -19.5t-3 -15.5h-8q-8 -18 -8 -35l-17 -26q0 -14 -55 -107q2 -23 14 -41q0 -12 13 -92q12 -76 16 -88l12 -8l6 -10l-10 -23q2 -27 6 -39q8 -29 12 -42l3 -13q2 -10 18 -31q10 -16 12 -41 q8 -12 22.5 -36.5t35.5 -63.5q16 -33 32.5 -57.5t30.5 -42.5h19q12 -31 47 -54.5t67 -44.5h9q8 -10 24 -12h10l6 -8q6 0 17.5 -3t25 -6t23.5 -6.5t14 -3.5q29 0 45 7l23 -13l29 -2l8 4q12 2 61 -6l10 2l11 -2l6 10h16q8 2 17 2l10 -1t31 -3l13 6.5l9 4.5l19 2l8 4h10 q29 10 65.5 29.5t81.5 48.5l9 16l12 -4q20 16 34.5 31.5t24.5 25.5l4 21q25 14 52 63q2 20 8 29v26q4 4 6 8.5t4 8.5l8 4q0 8 10 24q6 71 37 89z" />
<glyph unicode="H" horiz-adv-x="1304" d="M1264 -139q-2 16 -7 47q-14 39 -51 55q-16 -2 -28 -2t-21 -2q-20 -14 -33 -14q-16 -35 -20 -56q2 -10 2 -18v-14l18 -23l-8 -14l-14 -4l-23 8l11 -6q-41 25 -56 43q-10 31 -18 39q-2 123 26 170q29 39 39 71q14 12 62 109v8l14 25l-2 14l-12 6q14 14 41 98l22 70 q8 23 8 180q0 4 2.5 13.5t2.5 13.5q0 76 -31 110q2 12 -4 27q-14 16 -24.5 27.5t-18.5 19.5l2 17q-35 66 -86 96l-6 14q-10 2 -23 15q-20 4 -34.5 8t-24.5 8l-13 -2q-23 8 -39 12t-26 8l-8 -2q-25 6 -52 6q-10 0 -32.5 -6t-34.5 -6q-25 -8 -43.5 -13t-32.5 -9 q-35 -12 -74 -50q-16 -16 -30.5 -32.5t-30.5 -32.5l-4 -19l-10 7l4 10l-6 22l10 101q-6 12 -6 28q0 27 26 109l19 18q29 16 141 17q12 0 34.5 -3t33.5 -3q29 0 41 6l26 -6l25 6l2 22q37 6 57 6l6 9l23 -4l65 18q39 27 43 31l17 22q0 4 1 10.5t3 16.5q2 8 3 14t1 12 q0 16 -10 43q-14 8 -24.5 12.5t-18.5 8.5q-31 4 -54 -12l-24 -27q-8 -33 -19 -39l-18 -2l-25 -12q-25 0 -55 -8q-41 -8 -53 -13l-14 -12l-17 2l-14 10q-10 2 -28.5 -2t-26.5 -4h-58l-10 8l-78 -6l-8 -12l-2 12q-10 2 -27 2l-10 4q-18 -8 -59 -8q-39 0 -56 10l-20 2l-8 -6 q-20 2 -101 6q-31 2 -55.5 6.5t-44.5 8.5l-33 -4l-28 -21q-8 -10 -11 -43l2 -8q10 -6 17 -22q27 -10 45 -19.5t33 -15.5q39 -31 38 -90l-1 -10q-1 -9 -3 -25l9 -19q-10 -23 -13 -32q4 -23 5 -34l1 -11v-5q0 -2 -2 -8l-8 -6l-2 -14l2 -8q6 -10 12 -13l19 4l-19 -22v-31 q0 -12 3 -20l-5 -11l7 -12l-5 -10v-158q0 -6 -5 -18.5t-5 -16.5l-6 -63q-4 -25 12 -49q-6 -29 -6 -45l4 -15q-4 -23 -6 -40t-4 -29q4 -14 8 -25.5t6 -19.5l-14 -23l-2 -12l-12 -6v-60q-8 -20 -13.5 -35.5t-9.5 -25.5l-22 -14l-6 -11q-25 -10 -43 -26q-6 0 -31 -11 q-16 -16 -32.5 -31.5t-27.5 -43.5q2 -4 -4 -25l6 -27q4 -12 41 -34h31l23 12l8 16l14 11q8 16 28.5 23t39.5 15h51q12 2 217 -24l14 10l41 -10q39 -10 43 -12q16 2 27 2h18q27 -10 58 -2l8 -9l14 13q43 6 56 14q8 12 13 21.5t9 15.5l-6 33l-14 16q-6 2 -19.5 5t-29 5 t-29.5 6t-23 11l-14 -4q-63 33 -86 170l-14 6q20 35 20 67q0 14 -2 21l-8 8h-6v20l-8 7q-2 10 -3 14v4q0 29 11 45v27l8 18q0 10 -3 28.5t-3 26.5q0 70 12 93l-2 20q14 33 25 51l-2 8l10 11l-6 12q4 4 10 9t12 11q12 4 19 11l10 24l24 19l13 -2l4 8q27 2 41 16q14 2 20 2h6 h7q6 0 20 -2l12 -8h8l3 -12l20 -4l8 -9l15 -32v-9l16 -12q10 -27 10 -94l6 -12l8 -4q-6 -8 -10 -12.5t-6 -8.5q4 -47 0 -72l-12 -18l6 -23q-6 -25 -2 -40q-8 -18 -8 -50q0 -47 22 -63l8 -2q-4 -18 -6 -31.5t-4 -21.5l8 -13l-12 -18l8 -17l-14 -16q-12 -86 -6 -104 q-2 -6 -2 -15q0 -6 -2 -16l8 -16l-8 -21q14 -45 16 -86q0 -10 8 -45q8 -39 6 -45l13 -6l4 -25l10 -14q2 -10 4 -19.5t4 -13.5q88 -113 209 -113q90 0 141 101q-3 10 7 39z" />
<glyph unicode="I" horiz-adv-x="831" d="M819 39l-2 16l-12 23l-14 12q-57 10 -82 12l-17 17l-22 2l-11 14l-10 4q-39 63 -41 140l-12 14l6 20q-4 16 -2 25l-4 10q12 39 12 60v12l-14 20q-2 23 -3 34t-1 9q0 53 14 97q-14 16 -14 36q0 16 4 33q-2 10 -3 49t-1 109q0 45 8 59l2 56v10l-8 12l2 68l-8 16l-17 4 l29 31q16 76 23 82l-9 2q25 27 25 31q57 45 90 53q37 37 47 67q-2 20 -15.5 32.5t-25.5 25.5q-59 0 -76 -8q-53 -49 -118 -50q-20 0 -58.5 -4t-58.5 -4q-18 0 -46 3t-67 7q-37 4 -64.5 7.5t-45.5 3.5q-55 0 -80 -29v-29l14 -8q12 -10 25 -37l14 -4l10 -10q12 -2 29 -14 q2 -12 20 -23q0 -4 2.5 -14t5.5 -22.5t5 -25t2 -18.5q0 -10 -1 -22.5t-3 -22.5l10 -12q2 -8 -2 -24.5t-4 -22.5q0 -45 6 -60l-6 -8q0 -6 -3 -16t-3 -15v-71l14 -19l-16 -28l12 -19q2 -12 1 -33.5t-3 -52.5l-4 -10l4 -14l10 -9l-8 -10q-4 -43 -14 -61q0 -6 3 -18.5t3 -18.5 t-1 -12t-3 -15l-7 -8l-2 -12l11 -12q-6 -66 -7 -68q0 -154 -55 -215q-14 -10 -25.5 -16.5t-19.5 -10.5l-53 -32l2 -9l-10 -4h-11q-10 -16 -20 -18q-27 -27 -27 -70q0 -6 2 -10v-14q8 -16 23 -29q29 -16 55 -16q18 4 45 22q8 10 15.5 19.5t17.5 19.5q35 10 62.5 14t44.5 6 q12 0 20 -8h10l25 15q20 -8 34.5 -13.5t24.5 -9.5q154 -18 144 -18q33 0 53 10l4 -14q12 0 34.5 3t33.5 3q8 0 26.5 -4t28.5 -4q47 0 82 20l14 20z" />
<glyph unicode="J" horiz-adv-x="1114" d="M1100 1284q0 35 -6 51l-25 19q-18 8 -55 8l-33 -14l-23 -29q-33 -20 -100 -27q-27 -2 -53.5 -3t-52.5 -3l-9 4q-37 -12 -84 -2l-10 -4q-6 2 -110 2l-17 14l-20 -8q-100 8 -111 17q-16 20 -28.5 34.5t-20.5 22.5q-59 12 -78 18q-35 -23 -43 -32t-16 -21q-2 -16 -2 -24v-9 q0 -29 23.5 -55t52.5 -35l2 9q31 -10 38 -9l5 -10h12q6 -2 12 -2h37l10 4q14 -4 21 -5l8 -1h4q6 0 16 2l15 -6q16 6 30 4l13 -6l8 2q31 -16 45 -19l10 -20l6 -2l23 -37q2 -12 3 -20.5t1 -12.5q0 -16 -2 -26q0 -10 8 -19q2 -14 3 -20l1 -6q0 -6 -2 -20.5t-2 -22.5l10 -19 q0 -12 -12 -33q2 -16 6 -29.5t8 -25.5q-2 -10 -2 -16t-2 -11l2 -8l-4 -10v-22l-12 -9v-16q0 -33 10 -47q2 -23 3 -33l1 -10v-4q0 -2 -2 -8l6 -29q-6 -53 -9 -92t-1 -66l4 -20q-4 -16 -5 -25l-1 -8q0 -8 -2 -23.5t-2 -21.5v-8l16 -27v-18q-23 -35 -22 -58l8 -12l-6 -8 q-4 -16 -5 -24l-1 -9q0 -18 2 -29l-12 -22l-11 -2q-6 -10 -14 -22.5t-18 -26.5l-29 -17q-6 0 -18.5 -4t-18.5 -4q-41 0 -84 14l-6 9l-10 4l-11 18l-8 2l-2 10l-14 11q-16 61 -17 108l1 10q2 9 4 27l-5 12l3 15l10 18q0 35 24 60q0 23 -6 40l19 7q8 10 12 40.5t12 45.5l15 12 q-2 10 -2 14v4v33l-11 12l21 33q2 16 2 23v8q0 2 -6 18.5t-10.5 29.5t-8.5 24v12l-14 22l-19 7l-12 14q-29 10 -37 20q-16 6 -41 6q-4 0 -16 -2t-18 -2q-41 -10 -52 -41l-6 -21l-2 -7q0 -16 4 -37l13 -19l32 -16h25l20 -37q-16 -20 -31.5 -33.5t-25.5 -21.5q-49 -8 -72 -49 q-23 -6 -55 -62q-10 -20 -22.5 -39.5t-24.5 -40.5q-6 -63 -10 -71q-2 6 -2 -74q0 -41 41 -113q39 -70 75 -86v-8l9 4l-2 -8l21 -7t13 -5l2 -10q68 -6 86 -29q35 -6 64 -12.5t51 -10.5q59 -2 93 -3t42 -1l10 1q9 1 29 3l4 13l8 4l5 -13q94 2 129 23l18 -2l8 4l8 -2 q41 23 88 35l11 8q8 -2 20 2l27 18l18 5l15 -5l16 17l10 -4h8l19 14q4 -2 59 14l19 19l6 16q-2 14 -3 23.5t-1 15.5q-39 29 -66 43q-23 55 -22 53v19l8 20l-4 15l-13 14q-8 45 -12 72q-10 2 -12 12q8 16 4 80q-2 47 -3 68.5t-1 17.5l2 12q2 12 6 39l-8 10l-2 27l6 25 q-14 31 -14 129l1 14q1 14 3 43l-13 8l13 8q0 6 2 17.5t2 15.5q0 176 26 227q41 55 105 58l10 10l10 2q19 24 19 47z" />
<glyph unicode="K" horiz-adv-x="1341" d="M1323 -244q37 74 37 109v4q0 2 -2 6l2 10q-8 16 -12.5 26.5t-6.5 14.5q-18 12 -30 19q-61 8 -88 -19q-20 -35 -21 -65q8 -16 12.5 -29.5t8.5 -24.5q-2 -12 -15 -20h-30l-31 23q-10 14 -17 30v8l-8 7q2 10 -2 26.5t-4 24.5q0 -4 14 74l7 10q16 70 30 100q4 39 7.5 67.5 t3.5 49.5l12 18q-2 16 -3 32.5t-1 31.5q0 8 2 29.5t2 31.5q-12 20 -12 37v6t2 19q-29 94 -50 104v10q-31 14 -51 62q-29 16 -50 29.5t-36 21.5l-8 -4l-37 29q-88 14 -94 18l12 8q12 0 97 12q4 4 8 8.5t12 8.5l4 8q76 37 111 139q-2 16 -2 27q0 12 -2 20q20 25 24 72l-6 23 q4 18 8 24q-4 39 -6 66.5t-4 46.5l8 24q-6 20 8 54q18 20 31.5 33.5t24.5 23.5q2 8 2 10v4v17l-4 8q-31 18 -82 22q-20 -4 -34.5 -6t-25.5 -4q-23 -10 -41 -17t-30 -11l-9 -11q-27 -6 -57 -51l-8 -4q-18 -43 -28.5 -67.5t-12.5 -28.5h8q-4 -8 -8 -17.5t-6 -23.5l-8 -4 q-4 -16 -8.5 -28.5t-6.5 -20.5q0 -2 1 -9.5t3 -23.5l-8 -17q16 -76 -14 -155q-10 -23 -12 -31q-45 -70 -127 -70q-51 0 -88 13l-7 8l-8 4q0 10 -10 31q4 12 0 34q-6 25 -6 33q0 4 1 8.5t3 12.5l-4 10v14l-8 4l2 17l12 12q2 29 4 59.5t4 61.5q8 86 39 106q8 6 43 19 q25 8 39 22l14 4l-4 11l21 28l10 -4l16 8l6 19q-2 10 -3 19.5t1 19.5l-8 6q-12 12 -22.5 20.5t-18.5 12.5l-24 -2q-4 -2 -21.5 -12.5t-52.5 -32.5q-39 -25 -84 -27l-10 4q-53 -6 -80 -6l-21 8q-16 -4 -24 -5l-8 -1q-14 0 -44 5t-44 5h-5q-2 0 -6 -2l-28 8l-11 -2l-8 6h-24 q-10 6 -33 7h-8q-10 -4 -17.5 -6.5t-11.5 -4.5q-8 -6 -13 -10l-10 -8q-14 -16 -16 -37q0 -16 12 -31q10 -10 15.5 -15t7.5 -7l35 -14q10 2 25.5 -6.5t21.5 -8.5l24 -24q18 -43 13 -82l8 -15q-4 -20 -6 -33.5t-4 -21.5q0 -16 10 -37q0 2 -3 -24.5t-7 -83.5q-6 -10 -13 -25v-6 l19 -47q-2 -27 -3 -45.5t-1 -30.5l16 -2l8 -6q-6 -2 -24 -17v-18l10 -10l-12 -19q-2 -29 -3 -49t-1 -35l-9 -6v-20q-2 -10 -2 -21v-4q0 -2 2 -10l15 -23q-8 -25 -12.5 -39t-6.5 -18q6 -27 13 -39q-4 -16 -8.5 -29.5t-6.5 -21.5v-12q-18 -74 -55 -127l-18 -4q-27 -14 -50 -41 l-10 -4l-18 2l-6 -9l-17 -10q-8 -18 -26 -37q-8 -31 -9 -51q0 -12 2 -16l23 -35q10 -2 20.5 -4t20.5 -6q33 4 72 39q41 39 71 41q23 2 39.5 3t26.5 1h6q4 -2 8 -2h8q10 0 27 2l22 -9l17 5q12 -6 34.5 -8.5t34.5 -10.5l25 -4q2 6 10 18q55 -23 58 -28l20 -6l8 10l11 -2l12 6 l14 -6l-2 -6l19 -4l14 4l29 -4l14 4q14 -6 39 -6l8 6h16q16 10 25 10q16 12 25 22q6 18 6 27v6l-13 23l-28 20q-106 12 -135 33q-25 23 -35 57q0 12 -2 34t-2 32q0 6 4 18l-6 45l-17 2q-4 16 -6 23q0 104 2 168.5t6 91.5l6 8l21 8q20 -4 30 -5l9 -1q12 0 37.5 3t38.5 3 q29 0 81 -34q4 -10 8.5 -18.5t6.5 -16.5l10 22l6 -16v-14h-8q18 -33 25 -54q0 -6 5 -26.5t5 -28.5q0 -14 -3 -43t-3 -43l-4 -10l12 -23l-17 -24q2 -10 -12 -49q-12 -41 -12 -54q0 -12 41 -78l-2 -22l4 -8l-6 -19q4 -27 5 -50t-1 -46l8 -8q10 -23 6 -39q20 -49 25 -72l18 -8 l10 -22l19 -9l6 -16q12 -2 27 -21l2 -12q68 -35 102 -57l23 6l10 -2l16 -12l4 -9q47 -6 70 13h12q31 12 59.5 25t57.5 40z" />
<glyph unicode="L" horiz-adv-x="1118" d="M1092 680q0 20 -15 51q-16 18 -51 29l-10 -4q-16 6 -25 4l-4 -10q-12 0 -18 2q-23 -10 -35 -13v-8l-19 -6l-6 -12q-12 -6 -20 -21l-12 -6l-3 -16l-20 -2q-6 -14 -6 -25q0 -8 -14 -39q-10 -25 -11 -41l-8 -14l-2 -14q-27 -37 -22 -66l-9 -8q-2 -6 -10 -23v-10l6 -10 l-8 -21l6 -18v-19l-10 -10l-2 -24l-10 -7q-2 -10 -2 -14v-4v-8l8 -12q-4 -12 -9.5 -25.5t-11.5 -28.5q0 -98 -69 -116q2 0 -56 12v10q-18 4 -45 33q-31 61 -30 102q0 49 -7 66l-6 2l-4 12q4 4 7 11.5t8 15.5l2 37l-17 6v6l6 8q-2 8 -6 29q2 8 3 15t-1 18l-6 6q4 29 -6 59 q8 23 2 45l-6 12v15v24l6 17l-6 8l8 39q-8 39 -8 33t2 4t6 37l-8 32l4 13l-2 18l8 8q-8 14 -8 72q0 96 8 106q0 59 12 97q14 14 23.5 23t17.5 16q29 4 54.5 6t48.5 2l39 18h18l14 -10q37 2 56 6l6 6l16 -2l11 10q20 4 44.5 31t28.5 49q6 27 -16 52l-25 18q-2 0 -15 1t-36 3 q-47 -27 -67 -47q-53 -31 -164 -31h-72q-20 0 -12 2l-8 -4h-15l-8 -4l-8 -4l8 -6q-10 -2 -16 -2h-7h-10l-18 12q-6 0 -24.5 3t-26.5 3h-5q-2 0 -6 -2q-57 10 -71 4q-2 2 -6 2q-51 0 -54 -2q-76 10 -112 13q-10 -4 -19.5 -8.5t-15.5 -8.5l-15 -20l-4 -17l4 -26 q16 -14 28.5 -23.5t19.5 -13.5q8 2 43 -8q16 -10 32 -35q10 -45 11 -74v-43q0 -10 2 -2q0 -4 -3 -14.5t-3 -16.5q0 -10 3 -33.5t3 -33.5v-39q-2 -14 -2 -25v-16q0 -2 -5.5 -15.5t-5.5 -17.5q0 -8 5.5 -20.5t5.5 -18.5q0 -16 -2 -20q6 -29 6 -51q0 -4 -2 -11v-10l18 -6 l-6 -12l-12 -9q2 -10 -11 -53q4 -23 8.5 -40t8.5 -27l-2 -21l-4 -8l-11 -2q0 -119 -12 -139q12 -33 2 -66l6 -8v-21l6 -16l-12 -16l-2 -17l-8 -12l2 -8q-4 -29 -23 -51q-8 -6 -14 -11.5t-10 -9.5q-14 -10 -28.5 -19.5t-31.5 -19.5q-37 -31 -45 -55l-3 -27l-1 -10q0 -4 4 -25 l25 -32q20 -12 37 -13h16q14 8 25 9q29 23 51.5 41t38.5 34q29 4 41 7.5t4 3.5h109q20 -4 28 -7h-4q18 0 47 -6q18 -4 30.5 -6t16.5 -4l17 6l20 -12l27 4l14 -10q6 0 53 -8q12 4 21 2l10 -7l25 5q68 -12 112 -13l21 21v8l14 -23l19 5q23 -6 88 16l14 -2l6 4q8 0 21.5 4 t19.5 4l23 17l10 2q2 10 4 21t4 28l-20 12q-18 25 -17 45q-25 57 -24 80q0 2 2 10t2 12l-21 46q2 12 -4 26q2 27 3 40l1 13l-1 4l-3 15l4 24l-10 11l8 10q2 35 2 53t2 23l11 12l2 33q6 10 12 41l14 18l15 4l10 -2l20 4q10 10 13 17l10 -2q12 4 23.5 24.5t11.5 32.5z" />
<glyph unicode="M" horiz-adv-x="1789" d="M1708 51v4t-2 15l-23 24q-14 2 -22 2h-6h-6t-21 -2l-12 -8h-8l-23 14q-25 27 -20 47l-15 17q-2 10 -2 22l-6 9v12q4 8 9 14t10 15q-6 8 -7 34q0 6 4.5 21.5t4.5 21.5v4t-2 13q2 4 5 12t9 25q8 23 8 34q4 8 8 13.5t6 9.5l-2 31q14 20 19 53l-4 12q8 23 18 39q0 20 -2 27 q10 49 14.5 81.5t1.5 49.5l5 10q-10 84 -13 125q-23 100 -43 127q-8 10 -14 19.5t-10 13.5l-13 4l-10 26l4 23q-14 8 -106 123l-6 24l-37 5l-29 18h-10l-8 33h-19l-12 8q-16 6 -27.5 12t-19.5 10q-80 27 -123 37l-4 2h-17l-8 4q-10 0 -29.5 2.5t-27.5 2.5h-4q-2 0 -8 -3 l-15 9q-4 -2 -6 -2h-2q-37 0 -41 2l-14 -4l-19 8h-22q-8 0 -21.5 -3t-19.5 -3q-37 0 -51 8q-31 -6 -54.5 -10.5t-39.5 -6.5l-9 2q-31 -16 -77 -12q-27 -14 -60 -18l-10 2l-8 -10h-9q-82 -41 -92 -54q-25 -6 -49 -22l-4 -8q-14 -8 -23.5 -12.5t-15.5 -8.5l-14 -18l-17 -8 q-51 -74 -65 -80l-6 -19q-20 -10 -29 -24v-29q-10 -8 -33 -49q-23 -37 -24 -58l2 -16q-41 -78 -41 -164q0 -143 22 -194q0 -8 19 -78q18 -68 24 -80l11 -12q2 -47 18 -68q0 -14 2 -24l6 -11q0 -10 1 -24.5t2 -30.5t3 -30.5t2 -20.5l-3 -12l-9 -33q-16 -12 -18 -27l-19 -10 q-12 -2 -18 -2h-6l-7 1l-24 3l-12 18l-2 15q14 35 14 53t-12 41q-31 31 -47 33q-10 2 -60 -15l-22 -20q-4 -8 -8.5 -18.5t-8.5 -24.5q2 -66 6 -68l13 -8v-14q14 -39 51 -66q94 -37 131 -37h55l15 6q39 -6 98 27q51 29 82 66q18 31 31 53q16 49 24 82q4 4 8 10t9 12v21l10 26 q2 51 10 74t8 37l-16 4l-6 12l14 15l-3 15l-1 5l1 8l3 21q-10 47 -14 57l4 27q31 55 30 69q0 51 -38 109q-6 55 -19 92h-10l-2 15l10 2q-10 18 -8 73l6 17q-8 14 -12 28q12 16 16 23l-6 29q2 8 4 15t4 11v21l25 26v21l37 55q29 39 51 41l43 6q-4 0 43 -12q8 -8 22 -31v-39 l7 -16v-37q0 -20 -3 -25q2 -14 4.5 -24t4.5 -21q-8 -14 -9 -28l5 -11q0 -4 -7 -49l7 -10q6 -61 6 -106q0 -4 -1 -19.5t-3 -44.5q-2 -20 -1 -35.5t3 -27.5l-9 -15v-20l7 -15l-7 -30q0 -10 7 -19q0 -14 -7 -22v-15q2 -6 3 -12q0 -63 -3 -65l3 -13l-11 -18l-2 -16l8 -11 q0 -12 -3 -36.5t-3 -36.5v-5q0 -2 2 -8l-4 -8q0 -59 -26 -111q-23 -27 -53.5 -39t-61.5 -24q-31 -18 -53 -31q-10 -16 -17.5 -28.5t-11.5 -22.5q-2 -14 -2 -22v-7q0 -33 20.5 -48t38.5 -15l9 1l24 3q39 45 70 57h6l12 6l29 -4l4 -10q14 6 20 14q12 2 19 3h6h2q4 0 8 -3 q25 6 51 5l15 6h12l16 -17h11l8 4l10 -6q12 -2 22.5 -1t18.5 3l14 -6h27q8 -6 53 -10q43 -4 56 -12q14 0 39.5 -4.5t39.5 -4.5q39 0 64 11l8 8l14 4q2 6 13 16q2 6 4 12.5t4 10.5q0 25 -10 39l-11 6l-8 10l-12 -2q-35 8 -80 49q-45 39 -49 72l-6 8q-4 23 -8 40.5t-9 29.5 l5 18q-2 23 -7 41l-16 25q-2 18 -3 29.5t-1 15.5q0 6 2 12v12l-6 15h-21l27 33q0 25 4 36q-4 10 -6 19.5t-4 17.5q0 63 10 88l-6 37q2 8 0 43l-19 21l-2 16l15 21l-2 28l-13 -2l15 23l-2 18q-14 20 -15 33q8 25 19 153q10 115 35 144l16 10h8l17 6q16 2 34 -4l5 -6l28 -4 q27 -23 43 -37l8 -20l11 -5l2 -12q18 -10 26 -49l-2 -16l2 -9l6 -8l2 -22l7 -11l-2 -30l6 -8q-4 -57 -6 -99.5t-5 -70.5l-14 -17q8 -29 -14 -135v-16q14 -20 14 -35q0 18 -18 -98q-2 -8 4 -25q-14 -16 -10 -57q-2 -4 -3.5 -10.5t-3.5 -10.5q8 -31 9 -51v-14t-2 -43l6 -13 q-2 -8 -3 -15t1 -17l6 -7q4 -49 18 -75q20 -37 27 -58q23 -16 33 -35l14 -6l2 -10q16 -10 31 -33l30 -12q23 4 41 -4l9 -6q4 2 45 -4q39 -6 49 -6q100 0 127 32q10 31 10 39z" />
<glyph unicode="N" horiz-adv-x="1339" d="M1257 737q-6 12 -6 33v16t-2 31v45l-16 4q2 27 12 43l-2 9q-4 4 -8 10t-8 14l6 19q-6 31 -11 53t-10 37l-14 18l-4 27l-12 8v10q-41 51 -60 76l-20 24q-6 4 -12.5 10.5t-14.5 10.5l-14 2l-2 14h-19q-6 6 -20 12.5t-29.5 14.5t-31 16.5t-21.5 16.5q-43 2 -72 22l4 -16h-14 l-6 16l-29 6q-10 -4 -65 0q-35 2 -54 3l-18 1q-8 0 -30.5 -3t-57.5 -7q-76 -8 -88 -16h-14q-6 0 -19.5 -4t-19.5 -4q-8 0 -17 2h-18l-10 -4l-2 12l-11 -16q-29 -12 -86 -13h-16q-10 0 -29 2l-22 11l-2 8l-9 2q-35 59 -69 59q-33 0 -47 -8l-39 -39q2 -8 -4 -33l10 -32 q33 -45 90 -66q8 2 25 -4l8 -10l22 -11q-4 -25 7 -59q4 -23 7 -37t5 -22q2 -23 3 -44.5t1 -43.5q0 -57 -2 -98.5t-6 -65.5l6 -13q2 -20 -4 -45l16 -14l-4 -18l-8 -13q-2 -2 -2 -86q0 -63 6 -82l-14 -22q-2 -10 -3 -16l-1 -5q0 -14 3 -40.5t3 -41.5q0 -20 -2 -24l-9 -12 q0 -25 -6 -37q2 -8 2 -25q0 -88 -71 -141l-9 -2q-16 -10 -26 -29l2 -12l-6 8l-23 2q-16 -14 -29.5 -23.5t-21.5 -13.5q-2 -14 -18 -26q-8 -23 -13 -41q6 -43 21 -58q23 -23 51 -22h14q10 8 23 8q16 14 28.5 27.5t22.5 23.5h12l9 8q27 10 49 11l8 4q14 2 20 2h6q94 0 113 -13 l25 2q14 -6 26 -4l25 -10q10 2 26.5 -2t22.5 -4h59l9 -8q27 -4 32 -8l9 2l16 -4q14 4 27 14l14 -12q61 -6 102 36q0 6 7.5 18.5t7.5 20.5v17l-11 20q-33 16 -41 17l-12 -2q-23 6 -31 4l-6 10l-18 8q-23 25 -37 37v8l-16 15q-18 51 -25 86l6 14q-14 10 -22.5 20.5t-12.5 18.5 l13 20v15q-2 4 -2 6q0 4 -2 8l4 12l-6 15v14q0 8 3 19.5t3 17.5l-6 14q2 10 2 16v13l-11 8v20t-2 25q-10 10 -16 33l8 8q-2 10 2 31l-10 37q16 43 16 53v24l-10 4q-2 47 4 62l-4 37l2 -8l-4 10l2 26l-6 13v37l6 16v27q2 10 2 16v10l-1 7q-1 6 -3 20l6 16l-2 21l-2 -6 q6 12 21 75q4 27 67 78q23 8 62 8q16 0 34.5 -6t26.5 -6q20 -16 34.5 -27.5t22.5 -21.5l6 -14h9l12 -9l-4 -20l10 -33l8 -6q6 -35 11.5 -61.5t9.5 -42.5l6 -11q0 -8 -2 -19t-2 -15v-101q0 -59 -12 -98q6 -23 4 -31l-9 -4q-10 -31 -10 -78l-10 -8q-10 -57 -16.5 -81.5 t-6.5 -20.5v-9q0 -8 2 -24q4 -10 10.5 -16.5l10.5 -10.5v-22l-4 -11v-12l8 -10q-14 -37 -18 -53q8 -25 6 -33l10 -14l-6 -50v-4q0 -2 2 -10l-10 -24v-21l6 -12l-4 -35l-6 -10q0 -14 2 -25l10 -12l2 -21l-4 -10q2 -12 -4 -27q6 -25 4 -36l6 -11q-6 -31 20 -90 q10 -27 22.5 -48t23.5 -38l12 -4l4 -14l22 -17l9 -12l12 -2q35 -23 86 -22q16 0 31.5 1t29.5 3l11 8v8l34 10q80 63 80 148v12q-16 43 -16 45q-8 4 -14.5 10t-10.5 11q-16 0 -24 6q-6 4 -60 -13q-18 -14 -30 -32l-4 -45q6 -25 16 -35l-14 -23q-6 -2 -11 -2h-2h-4t-12 2 q-66 41 -59 101q14 141 36 170l2 16l11 18v33l18 19q4 27 8 43t8 24l13 12q14 41 37 70v16q2 14 39 54q2 37 6 55q10 23 17 41t9 33l-2 16l4 17l21 22q4 20 12 29q4 83 14 108z" />
<glyph unicode="O" horiz-adv-x="1316" d="M1276 717l-4 22q-29 12 -43 27q-10 74 -22.5 150.5t-47.5 138.5q-27 47 -33 53v10q-2 6 -22.5 26.5t-22.5 33.5l-8 6l-4 16l-22 6l-5 8l-110 72q-12 -4 -41 12l-10 -4l-19 2v17q-10 10 -39 6l-8 8q-12 0 -18 2q-49 14 -133 14h-21l-2 -10l-27 2l-12 6q-4 -2 -27.5 -7 t-66.5 -13q-41 -8 -63.5 -11t-24.5 -3q-14 -14 -70 -47q-49 -27 -69 -54l4 -16l-23 -21l-22 -4q-4 -2 -37 -63q-27 -57 -53 -80q-6 -14 -12.5 -35.5t-10.5 -54.5t-10 -52.5t-11 -29.5v-19q-10 -18 -12 -22l-4 -43l-37 -21q-12 -10 -12 -26v-14q10 -23 15 -33l5 -10 q2 -2 15 -78q12 -72 12 -76l8 -12l2 -19l-4 -14l4 -14l11 -3q-2 -8 8 -45l12 -8l4 -16l-8 -12l8 -13l14 -10l9 -12l2 -11l-4 -14l32 -78q8 -10 13.5 -16t9.5 -10l10 -6l7 -17.5t7 -13.5q23 -16 38.5 -31.5t25.5 -26.5l2 -10l8 -10l8 -2q45 -45 140 -86l26 -2q23 -18 88 -25 q23 -2 47.5 -4t49.5 -4l12 8l31 -6l20 10l8 -6q25 6 39 4q37 8 62 13l10 8q18 6 30.5 9t23.5 8t21.5 14.5t26.5 25.5l8 23l-2 20l15 -18l24 6q31 29 52 45q4 10 16 24.5t29 34.5q31 33 32 68q4 4 9.5 7t13.5 7q16 29 16 58l17 10l4 18l-2 11l4 8q8 2 18 20q6 61 8 56l11 18 q4 51 13 96t21 86q15 58 19 68zM922 651l-7 -14l-10 4q2 -10 3 -18.5t-1 -18.5l-6 -10q-10 -66 -6 -76l-4 -16l4 -17l8 4l-6 -26l-6 6q2 -20 -14 -57l6 -23q-4 -23 -9 -29q0 -47 -22 -81q6 -43 -43 -138q-25 -25 -31 -32h-8q-23 -16 -40 -26.5t-30 -14.5l-20 4l-10 -4 q4 -2 -37 -2h-4t-13 2l-12 8l-14 2q-12 18 -39 26q-14 23 -23.5 39.5t-17.5 26.5v16l-8 7l-17 83q-10 57 -10 39q0 39 4 52l-12 18l-8 41q4 14 5 20l1 7l-1 10t-3 33l8 26q-25 51 -18 129l-29 6q-6 14 -6 33q0 74 8 82v53l2 -10q-4 76 4 92q8 20 11 34.5t5 23.5l-6 22 q8 16 14.5 29.5t10.5 23.5v31l18 14q4 16 5 29.5t4 22.5q18 16 22 34q27 20 45.5 35t32.5 25l84 14l31 -8l10 4l37 -16l18 -23l8 2l23.5 -23.5t17.5 -15.5l8 -41l9 -6l8 -20v-13l10 -18l2 -27l12 -24l-2 -15q14 -10 19 -18l4 8v-30q-10 -23 -12 -33l10 -23v-28l-8 -13 q8 -16 10 -24l-6 -43q0 -39 6 -52l12 -4q8 -41 8 -73l9 -4z" />
<glyph unicode="P" horiz-adv-x="1220" d="M1188 911q-8 18 -14.5 35t-14.5 33q-8 23 -15 49.5t-11 54.5l-15 11q-2 16 -20 30l-4 15l-17 14l-12 27l-8 8l-8 2l-5 10l-10 8l-8 17l-16 8l-4 14q-20 12 -39 17l-9 6q-27 10 -49 20t-43 21l4 -6q-84 20 -114 20q-12 0 -26.5 3t-16.5 3q-31 0 -39 -8q-29 -2 -51.5 -4 t-38.5 -4q-12 0 -19 2q-47 -18 -147 -25l-8 4l-56 -12q-10 0 -61 12q-10 14 -19.5 24.5t-15.5 18.5q-16 2 -45 25q-25 2 -61 -4l-27.5 -27.5t-20.5 -21.5q2 -6 -2 -17q4 -16 8.5 -26.5t8.5 -18.5q8 -14 49 -39q41 -27 47 -39l2 -16l8 -8q4 -12 6 -21.5t5 -13.5q-2 -6 8 -33 l-8 -16q-2 -12 10 -29l-6 -14l8 -29l-10 -20l2 -17l8 -6q4 -20 6 -35.5t4 -25.5l-6 -47l8 -29l-2 -20l-6 -13q20 -33 22 -47l-20 -53q0 -16 2 -27q-2 -4 -2 -6v-2q2 -20 2 -35q0 -12 2 -16l-4 -10l18 -43l-10 -9q-16 -29 -18 -47l10 -10q-6 -29 -2 -53l-14 -27v-22l8 -17 q0 4 -4 -23.5t-13 -86.5q-4 -14 -8 -24.5t-8 -18.5q-14 -14 -24.5 -23.5t-18.5 -17.5q-14 -10 -25.5 -17.5t-19.5 -11.5q-18 4 -59 -35l-9 -2q-55 -59 -53 -94q4 -10 5 -19.5t3 -15.5q25 -33 60 -33q49 0 67 23l13 2q2 33 55 49q37 14 82 14q35 0 43 -4l14 2l8 -4l8 2 q20 -6 44 -6h8l18 17l23 -23q27 -4 42 -6t23 -4l8 -6q57 0 72 -11q8 2 47 0q23 -2 35 -3l12 -1q37 0 47 7q8 -2 45 6q45 12 52 12q23 14 36 20.5t15 8.5q51 45 51 100q0 10 -10 35q-6 2 -19 2l2 16l-22 15h-12q-6 2 -13 2h-16l-33 -15l-18 -24q-4 -29 -13 -47 q-12 -8 -20 -13.5t-12 -7.5l-23 8l-12 -2l-10 4l-29 29q-8 20 -6 45q-4 12 -10 19h-19q-6 14 -12 32.5t-10 42.5q6 12 4 21l-11 12q-4 16 -8 27.5t-8 19.5q-18 63 -18 115q0 25 2 31l-9 14l3 33l-7 18q0 4 7 35q0 4 -2.5 11t-2.5 9q0 8 1 16.5t4 18.5l-9 31l6 14v11l-12 32 l10 45q0 16 -8 33q4 12 4 176v19q0 12 2 32q2 16 3 28.5t-1 23.5l13 12q12 66 22 80l27 18q16 2 28.5 3t22.5 1q68 -41 74 -43q27 -37 35 -61q14 -39 16 -53l-2 -21q20 -33 25 -47l-9 -29q4 -37 15 -53l-6 -20l6 -21l-17 -22l13 -50q-18 -59 -19 -83q0 -37 2 -35 q-39 -94 -71 -123l-19 -4q-4 14 -5 24.5t-3 18.5l-25 24l-39 2q-29 -16 -41 -28q-14 -29 -14 -41q0 -39 6 -54q41 -49 86 -51l11 -10q6 0 16 3t14 3h21l12 -10q31 0 47 14l19 -2q18 12 28 13q6 4 12.5 8t10.5 8l16 -2q20 14 34.5 24.5t25.5 20.5l14 2q20 25 39 37 q16 31 41 49q14 45 35 61h12l10 7q4 20 8 35.5t6 25.5l9 12l4 25l6 8q12 55 10 66q10 27 19.5 45t13.5 30z" />
<glyph unicode="Q" horiz-adv-x="1316" d="M1491 -47l-10 16v8q-4 4 -11.5 9.5t-15.5 11.5q-10 2 -19.5 4t-15.5 4q-53 4 -82 -47q-4 -16 -6 -34.5t-4 -39.5l-14 -8l-21 -3l-8 -1q-31 0 -41 2l-33 23l4 12q37 27 46 47l6 33l-17 6q12 2 29 22l-12 27q-20 12 -23 25q-53 18 -74 18q-4 0 -13 -2t-15 -2l-15 6h-6 q-18 -10 -24 -20l-23 2q-92 -53 -178 -62q-10 0 -18 8l2 9q8 14 36 18q45 35 83 64.5t71 54.5l10 6l6 16q-2 4 -2 9q0 6 -2 12q45 37 80 115q12 33 24.5 65.5t26.5 65.5l-4 12q18 45 31 110q14 63 18 99l11 10v33q-25 27 -43 106q-16 72 -17 117h-8l-2 16l6 11l-8 20l4 35 l-14 8q0 14 -6 31q-16 2 -29 16l-4 10q2 31 -12 62l-11 8l-26 8l-8 15l-3 16l-22 31l-8 4q-10 2 -17 2h-4q-6 0 -8 -2q-51 68 -110 69l-11 13q-31 8 -37 8l-8 6q-20 4 -34.5 8t-24.5 8q-23 2 -38 3.5t-26 1.5q-96 6 -84 6q-16 0 -44.5 -5.5t-45.5 -5.5q-16 -4 -32.5 -7 t-32.5 -7q-63 -12 -76 -31q-14 0 -49 -10l-4 -26l-33 8l-72 -64l-14 -4l-8 -14v-12q-10 -16 -17.5 -31t-11.5 -25l-8 -2l-8 8l-13 -10l-4 -18l6 -21l-4 -10q-16 -12 -20 -19.5t-6 -21.5l-15 -16q-4 -18 -16 -29q-4 -35 -18 -49v-8l6 -11q-8 -33 -14.5 -56t-10.5 -40l-6 -8 q-18 -63 -39 -84l-4 -27l6 -18q16 -16 28.5 -63.5t8.5 -71.5l16 -29q0 -2 -1 -11t-3 -30q4 -8 8.5 -14t6.5 -10q-2 -14 18 -70q23 -55 29 -62l4 -20q72 -123 82 -133l24 -14q4 -6 14.5 -16.5t26.5 -24.5q35 -29 37 -41l16 2l5 6l16 2l6 -27l8 -12l19 4q33 -16 58.5 -26.5 t45.5 -18.5h33q23 -10 35 -12l14 2q74 -12 113 -13q66 -16 106 -30q66 -29 114 -52.5t81 -39.5l18 8l13 -2l8 -23l12 -8q16 4 35 -6l12 2l4 -14l10 -11l15 4l20 -16q25 2 41 -4l8 2q27 -4 35 -10h10l9 6l12 -6q8 -2 22 4l21 -2l12 8q148 19 158 166zM899 694l-8 -16 q6 -41 6 -60q0 -12 -3 -39.5t-3 -39.5q0 -113 -12 -131v-11q0 -6 2 -16l-27 -19l-2 -26l8 -14q2 -6 2 -11v-2q0 -6 -16 -65q-14 -8 -21 -21q6 -20 -4 -47q-16 -23 -29.5 -40t-23.5 -30q-4 -2 -16.5 -5t-32.5 -11q-31 -10 -51 -10q-27 0 -60 8q-41 25 -61 37q-47 53 -47 90 l-6 8q-4 27 -7.5 45.5t-7.5 30.5q-12 12 -12 41q0 12 4 37.5t4 38.5q0 10 -9 28.5t-11 26.5q0 10 4 30.5t4 28.5q0 -2 -3 29t-11 94l-11 11l-10 4l-8 8l-6 31v12q14 16 16 31q-4 16 -4 45q0 10 -2 18v18q0 16 8 52q8 33 6 49q8 8 13 51q6 43 18 61l2 21q16 29 31.5 59.5 t32.5 59.5q27 39 112 67l12 -2l9 4q12 0 18 2q18 -6 34.5 -11t31.5 -9q84 -68 84 -105l8 -6q0 -14 8 -30l10 -7q4 -57 6 -87.5t2 -34.5l19 -17q-8 -27 -8 -61v-60q0 -23 2 -36l-9 -23q9 -49 25 -74z" />
<glyph unicode="R" horiz-adv-x="1318" d="M1366 -143q0 16 -10 41q-14 37 -15 39l-16 14l-10 2q-12 10 -21 12q-37 -4 -63 -24q-20 -29 -21 -56v-24q4 -8 9.5 -17.5t13.5 -23.5l-10 -10q-16 -8 -39 -9l-21 9q-2 4 -3 8t-3 8q-12 10 -20 14l-7 8h-14q4 20 5 30l1 11v17l-4 10v27q8 12 10 32l-2 11l13 41 q-6 16 -4 24l4 10l16 17q2 47 21 72q-12 51 8 116q-8 20 -13 35l5 16q-4 12 -6.5 21.5t-4.5 15.5q-4 25 -8 40.5t-8 23.5q-6 12 -37 57q-8 12 -10 23q-14 12 -41 16l-17 14l-8 27l-35 2q-16 10 -43.5 22.5t-62.5 26.5q16 18 45 35l25 2q29 33 47 43q29 23 57 78 q16 29 24.5 45t10.5 20l6 19q6 20 20 59q14 41 39 70q-33 45 -47 70q-53 94 -57 98v8q-35 47 -113 98q-76 49 -139 60l-16 10q-20 -2 -29 -8q-10 4 -19.5 8t-15.5 8q-43 -4 -76.5 -5t-56.5 1q-37 -4 -64.5 -10t-46.5 -10q-98 -16 -147 -25q-6 2 -39 2l-27 14q-14 31 -38 45 l-58 19q-31 -6 -55 -31l-12 -24l4 -9l-2 -8q10 -47 39 -67q57 -37 61 -45q16 -31 25 -89l12 -10l2 -12l-10 -21q0 -12 6 -20q-14 -29 -19 -39l19 -14l-2 -33l-8 -16q6 -12 6 -29q0 -158 -15 -184q6 -23 -8 -64l10 -16l11 -4q-2 -8 -3 -18.5t1 -24.5q-2 -4 -4 -9.5t-5 -9.5 l11 -10l2 -8l-6 -21q6 -72 10 -84q-12 -12 -23 -45l13 -18l8 -4l6 -13h-14q-4 -29 -11 -36l4 -21l-8 -18l4 -19l-4 -13q-4 -13 -12 -40q-10 -31 -37 -45q-57 -35 -59 -39h-21q-16 -16 -27.5 -26.5t-19.5 -18.5l-12 -4q-23 -35 -23 -57v-33q2 -12 15 -29l24 -16l29 -6 q29 16 50.5 30.5t31.5 24.5l6 10l12 6q8 0 28.5 5t31.5 5q115 0 161 -20q12 4 30 -1t32 -11q14 0 24 6q20 -4 34 -7t24 -3l14 -11q12 -2 29 2l10 -6q6 -2 27 6l18 -6l23 11q31 -2 60 12l30 14l18 37l-2 18l-12 21q-51 20 -82 24q-12 8 -21.5 15.5t-17.5 11.5q-18 27 -31 37 q-10 39 -17 68.5t-11 52.5q6 27 4 33q-14 18 -17 28q6 18 4 33l-22 4v19l12 14q2 4 2 6v2q0 -10 -12 76v88q0 4 -1 16.5t-3 32.5q-2 29 1 50.5t17 41.5q2 20 2 29v10q-4 16 -6 23l4 18q-10 39 -12 68q8 14 8 92v16q0 18 2 53l-10 31q2 4 6 9.5t8 13.5q16 47 19 69 q27 39 65 39q53 0 84 -30q14 -18 27.5 -37t28.5 -35q12 -96 28 -119l-4 -29l-12 -6q-4 -68 12 -84q-8 -70 -11 -100.5t-5 -24.5l-29 -59l-31 -29l-10 -4l-12 2q2 31 -4 47l-29 37l-22 6q-31 -2 -54.5 -28.5t-23.5 -40.5q12 -39 18 -72q6 -4 15.5 -11t21.5 -16h8l13 -8 q10 2 22 -2l10 2l4 -16q23 -4 38.5 -10.5t25.5 -10.5l4 -14q20 -10 29 -10l10 -27l20 -22q2 -20 11 -33l-11 -23l4 -14l7 -6q-4 -6 -5.5 -19.5t-2.5 -29t-3 -29.5t-6 -22q2 -12 -6 -38t-8 -36q0 -53 2 -58l39 -28q0 -14 -7.5 -44t-7.5 -46q0 -10 4.5 -36t2.5 -40l6 -10v-15 l4 -6l4 -33l12 -10q10 -23 17.5 -39t13.5 -26l20 -7q2 -29 13 -49q23 -10 41 -17t28 -11q14 -10 17 -23q8 0 24.5 -2t34 -6t33.5 -7t24 -3q55 0 91 12q10 4 29.5 14.5t47.5 26.5q8 14 43 43q8 27 15 33q0 6 5 19.5t5 19.5z" />
<glyph unicode="S" horiz-adv-x="1153" d="M1071 457q-4 8 -7 27.5t-7 47.5q-8 53 -22.5 79t-24.5 42l-9 6l-6 13l-2 22q-4 4 -9 9.5t-9 13.5h-12l-15 6q-2 10 -4 16t-4 11v-9l-6 13q-57 51 -72 51q-92 78 -254 80q-20 -2 -41 -39q-18 8 -43 8l-35 20l-16 -12l-18 4q0 10 -11 27l-10 4q-31 25 -59 96q2 18 -4 51 l14 23l-8 23l2 22q23 29 38 49.5t25 34.5q33 25 56 37q10 0 32.5 6t34.5 6h29q37 -14 63 -14l7 -8q29 -12 48 -21.5t33 -15.5q14 -16 15 -25l-6 -22l4 -13l18 -12q27 -102 31 -147q14 -37 41 -54q16 -4 22 -6h7q8 0 22 2l23 13q8 14 13 23t9 18v8q0 35 -18 63q6 37 4 51 l20 31l-2 43l6 2q94 76 95 170q0 25 -29 53l-8 5q-14 -2 -23 -3h-6h-4q-2 0 -6 3q-23 -10 -43 -33q-4 -8 -12.5 -19.5t-18.5 -27.5l-47 -9q-68 14 -104 31q-63 20 -156 21q-84 0 -121 -19l-10 2q-25 -8 -33 -12l-12 2q-53 -31 -94 -55.5t-68 -44.5v-8q-35 -25 -55 -58 l-2 -14l-13 -12l-8 -23h-8l2 -8q-29 -55 -35 -121l-12 -16q10 -20 10 -31l8 -2l6 -14l-12 -5l-10 -10q4 -41 8 -66.5t8 -39.5q10 -16 11 -25l6 -8v-8l7 -10.5t7 -8.5l16 4l9 -12l-9 -16l9 -23q27 -10 34 -39l11 -4l26 -35q14 -8 30.5 -16t35.5 -18l2 -17l18 -6l4 -14l25 -6 l12 2q12 -12 49 -29h19q6 -2 16 -2l7 1l24 3q4 4 10 9t15 13l4 21l8 10q10 -2 19 -1t16 3q25 -8 43 -13t30 -9q39 -33 58 -43h8q10 -4 33 -41q20 -33 20 -47l8 -6q0 -12 6.5 -35t6.5 -35q-6 -25 -13 -43q2 -12 3 -21.5t1 -15.5q-12 -12 -26 -39q-4 -14 -2 -41 q-25 -18 -39 -20q-6 -6 -10 -19l-9 -4q-4 -4 -9 -10t-11 -12q-37 -14 -102 -15h-46q-45 18 -77 25l-9 8q-23 12 -32 12q-35 31 -56 82q-10 27 -17 43.5t-11 20.5v20l-11 19l5 10q-18 84 -25 125q-6 14 -6 22q-47 33 -64 52q-39 0 -49 -3q-18 -10 -35 -32l-6 -21 q0 -18 8.5 -37.5t16.5 -37t15 -30t7 -18.5l-4 -10q2 -6 2 -20q0 -12 -10 -43q-6 -18 -9 -30.5t-5 -16.5q-16 -16 -62 -113q-23 -49 -36 -80t-17 -43l2 -10q-16 -49 -20 -86q2 -16 3 -28.5t-1 -20.5l6 -15l-2 -20q4 -10 7 -22.5t7 -22.5q23 -35 43.5 -50.5t42.5 -31.5 q70 -12 74 -12q39 0 45 2q29 14 37 16q37 27 55 43q18 37 18 51v14q0 14 -2 43l-4 9l-14 12l-33 12q-8 -2 -12 -2h-2h-4q-2 0 -10 2l-15 -6q-10 -10 -17 -18.5t-11 -12.5l-5 -20l-4 -6l-22 -15q-6 -2 -41 9l-19 28q-2 18 -3 28l-1 9q0 18 7 37l18 27v10l12 14q23 6 37 27 q8 4 14.5 6t12.5 4q27 -6 47 4q6 2 20.5 -1t18.5 -3l20 10l12 -2v-14l11 -10l30 8q96 -6 113 -16h14q55 0 80 6l6 -4l15 -2l14 6h17q4 2 9 4t9 4l25 -4l14 10q12 -2 34.5 5t28.5 18l23 10l12 12l14 -2q80 33 109 76l2 10q6 14 19 21q2 20 43 73l12 8v9l16 22q-4 14 -5 20 l-1 7v20l31 33l2 16q-4 10 -6 16.5t-4 10.5q4 29 20 49z" />
<glyph unicode="T" horiz-adv-x="1275" d="M1212 1290v6t-2 17q-12 12 -26 14h-10l-15 6q-27 -20 -143 -26q-6 0 -19.5 -4.5t-21.5 -4.5h-31l-18 13l-13 -6l-8 -15h-12l-31 -16l-8 16q-18 0 -57 2t-58 2l-8 -1l-24 -3l-7 -8q-14 10 -47 10q-61 0 -69 -4q-47 4 -74 6t-31 2t-61 -6l-17 6q10 2 -6 2h-55q-63 0 -76 7 q-74 -12 -123 24l-18 -2l-14 6l-21 -4q-14 -8 -27 -31q-2 -4 -2 -8v-2q0 -43 27 -63q16 -33 16 -103q0 -10 -4 -38.5t-2 -41.5l-6 -12l6 -18q-8 -35 -8 -62q-4 -10 -7 -19t-7 -16q-2 -10 -3 -17t-1 -11q-8 -23 -14.5 -40.5t-10.5 -29.5q4 -10 7 -19.5t7 -15.5l17 -8 q-2 -20 -3 -43.5t1 -52.5q2 -72 22 -90v-17l10 -4l3 -16q6 -6 10 -31q31 -37 59 -59q18 -8 55 -8q4 0 12.5 2t14.5 2q39 23 52.5 37t13.5 38q0 10 -1 18.5t-3 18.5l-23 27q-45 10 -61 8l-19 14q-4 16 -8 26.5t-8 19.5q0 8 1 24.5t3 38.5q2 20 3 35.5t1 25.5v5q0 4 -2 14 q4 8 8 25.5t12 44.5q4 20 11.5 37.5t15.5 33.5q-2 10 -3 17.5t-3 15.5q4 4 7 10t7 10l4 23l-6 18l12 7l11 -19q4 12 22 33l2 8q18 25 25 37q63 47 94 61l35 -20q8 -43 11 -86t3 -86q-2 -18 -10 -37q0 -10 8 -36.5t8 -41.5l-4 -14q2 -6 2 -12t2 -11q-4 -12 0 -24 q-4 -18 -12 -27q2 -14 2 -22v-7v-4q0 -2 -2 -10l8 -10l-1 -6t-3 -19l-14 -10l-6 -18q14 -8 28 -13v-18l-16 -33q-2 -16 2 -33l6 -10l2 -24l-12 -37q0 -6 3 -18.5t3 -18.5v-14l-8 -17v-20q-14 -14 -14 -35l10 -17q2 -29 -4 -47l6 -16q-6 -12 -12.5 -45t-18.5 -51h-10l-4 -15 l-13 -12q-20 -6 -41.5 -16.5t-46.5 -24.5l-2 -14l-16 -10l-8 8l-8 -2q-94 -63 -95 -113q0 -6 3.5 -21.5t3.5 -23.5l8 -4l24 -27h15q10 0 26 -2q18 8 43 33l8 18q23 10 43.5 17.5t36.5 15.5l19 15q14 -8 28 -9q8 2 15.5 4t13.5 5q-10 2 12 2h78q59 0 76 -13q14 -2 23 -2 q10 0 14 -2l6 -8q14 4 29 2l12 -8q16 0 42 -3t62 -7q39 -4 67 -7.5t46 -3.5q20 4 32.5 8.5t20.5 8.5l21 -19l18 9h10l19 14l16 29q18 -6 27 -5q55 41 59 80l8 15q2 20 -10 55l-18 25q-18 12 -51 14l-35 -8q-8 -10 -14.5 -17.5t-10.5 -11.5l-10 -23v-36l-6 -11l-17 -10h-12 q-20 6 -34.5 10t-24.5 6q-68 41 -70 93l-16 16q2 8 2 21l-25 28l-4 15q4 10 8 18l8 16l-6 31l4 10l-20 6l-8 -8l-4 8q0 12 8 21q-2 20 -4 33.5t-4 23.5l6 25q-4 6 -8 10t-7 8q4 23 9 29l-9 12q-2 10 2.5 34t4.5 32q0 57 10 74v12l-19 37q2 10 3.5 26.5t1.5 38.5 q-14 16 -17 31v37q4 4 8 10t9 14q-2 27 -3.5 63t0.5 83q2 96 17 133q4 6 11 13l18 18q20 4 18 4h6q6 0 21 -2l12 -11l14 -2q10 -8 17.5 -12t11.5 -8q16 -35 27 -43l12 -4v-10q35 -35 47 -107q4 -29 7 -59.5t7 -59.5l19 -37l22 -6q2 -14 4 -26.5t6 -24.5l-6 -12l4 -31 q-4 -8 -6 -14t-4 -13l2 -14q-12 -45 -33 -59l-14 -2q-25 10 -57 -4q-4 -4 -10.5 -9.5t-14.5 -13.5q-4 -14 -5 -22l-1 -7v-8q25 -59 29 -63q8 -2 13 -3t9 -1q8 -2 15.5 -4.5l13.5 -4.5q49 0 78 29q57 61 73 92q8 16 15.5 45t11.5 70l8 2v35l-10 14q-2 10 -3 16l-1 5v14l6 16 l8 6l2 66l-8 18q2 45 -1 83t-7 67q2 6 2 8v4q0 20 -5 59.5t-5 57.5q0 8 4 23.5t10 31t10 27.5t4 16z" />
<glyph unicode="U" horiz-adv-x="1269" d="M1257 59q-4 14 -14 27q-37 27 -67 23q-8 10 -39 22q-43 43 -50 152q-4 14 -8 24t-6 19q6 14 4 28q-6 25 -6 27q0 18 2 20q-4 6 -7 13.5l-7 17.5q12 20 14 35q0 43 -14 63q0 4 1 14.5t4 23t5 22.5t2 16q0 14 -3 46t-3 46q0 37 2 43l-8 15l4 159l-8 13l-2 12l12 16 q-2 12 0 51.5t6 49.5l-4 26q8 27 13 46.5t10 33.5l30 23l17 4l6 8l8 4q14 -4 43 12l10 11l19 8l6 14l10 10q4 12 4 13v39l-16 24l-21 10h-43q-33 -14 -55.5 -25t-38.5 -22h-20t-21 -2l6 -6l19 -8q-14 2 -25 2h-14q-14 4 -23.5 8t-15.5 6l-21 -6l-8 -2q-78 0 -102 8l-15 -2 l-28 9l-21 -3l-8 7l-10 -4l-19 8q-16 2 -30 2h-21q-20 -2 -43 -23q-12 -16 -12 -33q0 -31 8 -40l33 -13l10 -24l31 -6l-8 8q20 -14 26 -35l15 -12q2 -16 3 -23l1 -8v-23q0 -20 -2 -63l6 -8v-86q0 -8 -4 -21q2 -8 2 -12t2 -8q-2 -25 -2 -47q0 -20 -2 -39q10 -4 14 -15 q0 -35 -18 -49q-2 -23 -3 -33t-1 -8l4 -10q-6 -16 -4 -27l10 -20q0 -14 -8 -25q2 -10 2 -18t2 -12q-2 -8 -2 -19q0 -10 -2 -22l-9 -15q6 -10 7 -35q0 10 -2.5 -6t-6.5 -61l9 -25l-5 -20q2 -39 11 -49v-9l6 -10q0 -12 -2 -18q-31 -25 -33 -29l2 -10l8 -12q0 -25 -15 -56.5 t-15 -44.5q-18 -14 -32 -23.5t-22 -17.5q-29 -6 -37 -6q-12 0 -33.5 7t-33.5 7l-12 11l-11 2q-47 53 -61 102q-12 37 -19 115q0 6 9 47l-13 20l2 31l4 8l11 9q2 6 6 22q-4 10 0 35l8 4l4 18l17 15q-4 12 -3 24l19 39v10q0 8 -2 19l-21 22q0 6 21 48q20 45 24 79q6 14 19 27 q-2 49 18 76q2 8 2 16q0 10 2 25q4 4 6.5 8t4.5 8q-2 6 -2 19q0 14 2 20l8 14l3 21l1 8q0 106 -21 156q-18 51 -90 127q-29 10 -48 18t-34 12q-25 -2 -49 -4t-51 -4q-61 -10 -82 -43l-10 -4q-12 -12 -19 -16q-14 -27 -21 -41.5t-9 -16.5q0 -2 -6.5 -30.5t-1.5 -46.5l-5 -11 q0 16 13 -53q8 -8 14 -27q12 -8 25.5 -15t27.5 -11q57 -2 86 29l9 28l6 6q2 6 2 9v4q0 14 -37 73l-2 15q4 12 10 18v12q16 10 27.5 18.5t19.5 12.5l19 -10l4 -8q31 6 47 6q23 -37 24 -57q4 -16 6.5 -31t4.5 -31l-7 -31l5 -10l-13 -27l-16 -14q-4 -20 -39 -63 q-39 -49 -53 -58q0 -12 -8 -22q-20 -8 -54 -47q-4 -8 -14 -21.5t-27 -34.5q-4 -2 -9 -4t-9 -4l-12 -20l2 -25q-4 -18 -13 -26l-12 12q-8 -8 -14 -13.5t-10 -9.5l-7 -10q2 -23 -10 -47.5t-24 -46.5q-20 -76 -23 -109l2 -12l-6 -18q2 -10 2 -17v-4q0 -70 2 -72l16 -6 q8 -8 9 -20l-15 -60l43 -43l2 -8l-2 -14l27 -39v-8q20 -16 47 -56q12 -4 35 -24l6 -10q16 -8 27.5 -15.5t19.5 -11.5q119 -68 268 -68q92 0 179 13q78 10 114.5 15t30.5 5q59 0 117 -10l10 -6q18 6 45 -4q92 6 139 6h-16q23 8 39 14t26 10z" />
<glyph unicode="V" horiz-adv-x="1331" d="M1358 1253q-2 20 -3 33.5t-1 20.5q-51 29 -56 28q-16 0 -26 -2q-47 -29 -49 -30h-9l-10 -9q-23 -4 -35 -7l-12 -3q-41 0 -65.5 1t-34.5 3l-8 -4q-35 -4 -119 0l-10 6q-10 2 -17 2h-4q-6 0 -18.5 -4t-18.5 -4q-78 0 -102 -18q-14 -27 -15 -41l15 -29l22 -14q20 0 76 -17h6 l10 9l9 -3q14 -10 24 -24l21 -8q8 -8 14 -15.5t10 -11.5q4 -12 5 -21.5t4 -15.5q-8 -82 -13 -127q-18 -74 -18 -84t-8 -18l-4 -19l6 -12q0 -14 -17 -37q4 -49 -22 -90l8 -14l-6 -29l-8 -12l-2 -15l4 -10v-10l-23 -18q2 -8 3 -14.5t-1 -14.5l8 -16l-8 -23l-24 -25 q2 -16 -15 -47q2 -6 -2 -16l-20 -16l-2 -25l6 -8l-8 -21l10 -16q-2 -14 -4 -24.5t-4 -18.5l-19 -12l-16 -29l-4 -25l-15 -20q-16 59 -30.5 109.5t-24.5 91.5l2 10q-18 100 -24 153q-18 14 -35 19l6 31q0 -2 -1 12t-3 47l-10 4q-27 92 -27 111l-10 10q-4 6 -8 33q4 59 -5 71 l-18 39q-2 18 -1 31.5t3 24.5l-6 10q-2 29 1 51.5t7 42.5l-2 10q23 14 39 24.5t27 18.5h10q14 4 21.5 8.5t11.5 6.5h8l18 12q14 14 19 37q-2 12 -13 28q-29 29 -71 31h-82l-19 8l-6 -22q-16 -8 -28 -8q-2 0 -9.5 1t-17.5 3l-12 14q-18 -4 -50 0q-20 2 -32 2h-17 q-205 0 -250 27l-16 16q-18 8 -31.5 11t-23.5 5q-23 -6 -33 -12l-23 -28l-4 -25l7 -29q18 -18 30 -35q35 -14 58.5 -25t40.5 -20q31 -16 67 -98q39 -78 45 -123l12 -10v-25l17 -36q0 -4 -3 -16.5t-3 -18.5v-4q0 -2 2 -11l16 -12q10 -39 12 -57q18 -25 29 -56l-4 -10l10 -22 q-2 -6 2 -25q2 -10 3 -16t1 -11l9 -8q6 -23 10 -39t8 -26q-2 -10 -2 -21q12 -20 21.5 -34.5t15.5 -24.5l-15 -23q4 -10 6.5 -20t6.5 -19l14 -8l10 -20l-2 -19l-10 -2l-4 -6l2 -18l14 -13l4 -14l-6 -8l4 -19l5 -6q8 -78 -68 -129l-8 -2l-4 -8q-29 -8 -45 -18 q-10 -8 -17.5 -13.5t-11.5 -9.5v-8h-12q-10 -8 -18.5 -15.5t-12.5 -11.5v-10l-6 -10v-10l-4 -11v-10q4 -10 8 -18.5t6 -14.5l23 -18q39 -8 53 -8l6 2l12 12h12l13 10l8 2l8 13l8 2l9 10q25 4 34 6l7 8q14 -4 43 0q16 2 26 3t14 1q201 0 277 -39l20 19q37 -8 65 -15.5 t46 -11.5q27 4 51.5 8.5t50.5 8.5q59 8 93 41q2 12 4 19t4 11l-10.5 17.5t-6.5 11.5l-16 10q-29 4 -37 8h-26l-9 4q-14 2 -34 -4q-8 10 -23 15l-14 14l-11 23l2 8q-2 6 -6 22q4 80 43 199l9 6l6 25l-6 8q23 53 36 94v14q8 8 13 21l-4 20q10 41 17 68t11 41l10 12v10l9 17 l-4 10q33 88 36 131l7 10q33 131 65 211l12 6q16 41 35 64q59 45 96 47l35 31.5t23 23.5z" />
<glyph unicode="W" horiz-adv-x="1779" d="M1745 33v33q-4 18 -23 28q-86 12 -108 47q-4 6 -31 117l-8 10q-6 63 -14 86l4 6q0 92 -6 142q12 33 -3 59l3 27v10v4q0 6 -3 16l11 35l-19 21q-2 8 -2 10v4v33q16 29 17 37v18l-7 10q-2 23 -2 33v12v5q0 4 2 12l-12 10q-2 6 -2 19q0 14 -2 20q2 4 2 8q0 6 2 13 q10 10 12 16q-2 43 7 119q10 96 28 118q25 16 35 23q12 2 27.5 7t36.5 16l28 26l4 14l9 9l2 34l-13 21q-27 14 -34 14q-33 0 -87 -28l-16 -2l-10 -23l-19 -2q-4 -2 -9 -4t-13 -4q-10 2 -25 2l6 10q-66 4 -116.5 5t-87.5 -1l-6 4q-25 -2 -39 0l-25 15q-16 -4 -29.5 -6.5 t-23.5 -4.5l-2 13l-10 -4h-21l-2 -7q-23 -18 -25 -55q8 -29 37 -43q6 -4 19.5 -8t34.5 -12l14 -21q2 -25 14 -37q0 -100 6 -112l-2 -11q2 -6 2 -18l4 -6q6 -35 -14 -49q12 -98 8 -111q4 -33 4 -74t-2 -90q0 -6 -3 -19.5t-3 -21.5q0 -6 2 -20.5t2 -22.5l6 -10v-49l9 -16 l-4 -17l-31 -26l-6 -29q31 -23 32 -29l-4 -12l11 -51q-12 -20 -21.5 -34.5t-17.5 -25.5l8 -24l-4 -29q-8 -12 -13 -35l-6 -8l-6 -20q-51 -41 -88 -64q-4 0 -15.5 1t-27.5 3l-2 -8q-16 -4 -63 18l-11 11q2 6 6 26q80 94 93 189q-12 33 -23 45l-22 6l-33 -10 q-23 -35 -40.5 -67t-33.5 -60l-8 12l6 16v17l-10 8v8q0 8 2 24.5t2 26.5l-6 15q0 12 3 29.5t7 34t8 28.5t4 16q0 14 -2 19l-8 4v6q4 18 31 45l2 12l-2 10l14 35v17q2 8 2 16v10l-10 19q31 74 61 135q47 152 47 299q0 121 -79 180q-10 8 -19.5 13.5t-15.5 9.5q-61 20 -121 20 q-88 0 -143 -63q-33 -55 -41 -80l10 -58q16 -10 26.5 -18t18.5 -12q61 8 78 41q8 39 8 45q6 20 24 39l41 12q10 -2 19.5 -4t19.5 -6l33 -45q2 -14 2 -21v-6q0 -8 -2 -25.5t-2 -27.5q-4 -8 -11 -18.5t-16 -24.5l-2 -15l-14 -24l4 8q-2 -12 -12 -23v-10q-2 -6 -41 -53 q-27 -33 -33 -55l-14 2l-10 -19l-11 -6q-31 -41 -56.5 -73.5t-45.5 -55.5l-2 -12q-6 -10 -12.5 -18.5t-10.5 -16.5l-8 -4l-4 -12l-8 -9q-2 -6 -2 -10v-2v-18l6 -8q-59 -102 -61 -138l4 -10q-2 -8 -4.5 -14t-4.5 -13q4 -14 5 -21l2 -7v-23q-2 -10 -2 -24t6 -41t6 -41 q6 -6 10 -19v-10l8 -8q4 -12 2 -16q20 -41 31 -62l10 -4l2 -10l11 -8l2 -11l14 -10l-2 -25l-10 -4l-11 2l-20 -6q-84 12 -78 13q-20 10 -30.5 15t-12.5 7q-72 70 -80 148q6 18 6 49v45q0 27 -2 61l6 17l-4 12q10 29 17.5 51.5t15.5 36.5v18q8 16 13.5 29.5t9.5 22.5 q2 6 -4 28q10 23 18 42.5t16 35.5l25 68q2 8 6 23.5t8 37.5q8 39 19 57q-2 14 0 39q6 27 6 37q0 121 -25 170q2 25 -24 62q-10 14 -21.5 26.5t-21.5 26.5l-11 4l-4 8l-18 8v9q-18 0 -54 10t-57 10q-49 0 -65 -10l-19 -2q-55 -33 -67 -35q-68 -102 -68 -137q0 -20 15 -80 l14 -17l6 -20l14 -6l9 -10h8q14 -4 23.5 -8.5t17.5 -6.5q82 2 84 84q-2 18 -39 56l-3 21l-1 7v17l16 26q23 14 35 19l33 -4l-2 12l12 2l18 -4l11 -15l2 -14l14 -20q2 -10 4 -17.5t6 -15.5q0 -10 -4 -40t-12 -79q-14 -20 -19 -39l-8 -10v-8q-8 -10 -18.5 -22.5t-20.5 -28.5 l2 -21l-26 2l-4 -14l-11 -4q-47 -59 -73 -86q-18 -29 -25 -43l-18 -13q-2 -10 -7.5 -27.5t-7.5 -27.5q-12 -10 -41 -70q-27 -57 -30 -75q-2 -12 -3.5 -21.5t-1.5 -15.5l11 -25l-2 -10l-6 -4l-7 -10l-6 -37v-10l10 -19l-2 -18q-8 -14 -8 -21q0 -63 25 -119l2 -24l10 -4 q10 -23 18.5 -42.5t16.5 -39.5q39 -27 68.5 -49.5t50.5 -42.5q20 2 37 0l6 -23q14 -4 24.5 -8t16.5 -8q12 -2 21 -3t18 -1q8 -4 10 -4l20 -9q8 2 43 -6q16 4 25 7l10 3h12l9 -14q4 -2 6 -2h4q37 0 45 2q8 12 27 12q8 0 24 -6q14 4 24.5 6t18.5 5q23 10 40 16t28 10l12 14 l4 19q14 0 39 -12h6l8 -9q27 -10 48.5 -19t41.5 -17h13l8 -5l84 -10q35 4 62.5 5t47.5 -1q6 2 11 2q4 0 8 2q109 10 164 27l8 -2q45 14 74 8q8 4 55 -2q57 -6 59 -6h17l6 8q8 -2 24 -14l27 -4l10 8l11 2l4 -10h18q80 0 113 33l4 20z" />
<glyph unicode="X" horiz-adv-x="1417" d="M1417 45v18l-6 17q-14 18 -33 29q-111 27 -139 43q-12 25 -51 43l-31 41q-16 25 -37 34l-4 21q4 16 2 31l-4 6l-8 4h-31v12l6 16q-20 43 -30 60l-11 -2l-14 18q2 27 -4 45q-25 6 -35 17q-2 12 4 28l-2 13q-4 6 -8 10l-8 8q-18 51 -64 119l-37 24l2 19q4 4 16.5 25.5 t35 60.5t34 59.5t13.5 24.5v20q76 70 82 129l37 23v10q16 16 30.5 31.5t26.5 30.5q35 14 57 30q33 18 63.5 33.5t59.5 30.5q23 29 27 65q-10 37 -45 58q-33 0 -35 2q-63 -27 -90 -45l-6 2q-70 -14 -70 -15h-158h-104t29 2q-45 0 -74 -20l-12 -14l-5 -15l7 -39 q70 -33 110 -39l12 -41q-14 -37 -25 -64.5t-20 -43.5l-14 -14l2 -13l-8 -10q0 -10 -29 -51q-29 -43 -41 -51l2 14q-6 10 -26 47q-10 20 -15.5 32.5t-7.5 18.5l-24.5 24.5t-18.5 16.5l15 -6q-2 16 -14.5 47t-12.5 47q0 20 2 27q27 33 43 41q20 31 25 47l-19 37q-12 4 -21.5 8 t-15.5 8h-18q-8 2 -17 2h-69l-15 6l-14 -6l-6 -8q-10 -2 -23.5 -3t-29.5 -1q-4 0 -13.5 2t-13.5 2l-18 12q-6 2 -23 -4q-49 4 -86 6t-63 5l-7 -3q-29 8 -43 13q-31 20 -43 33l-10 2l-6 6q-25 8 -35 8h-8q-6 0 -20 -2q-12 -8 -19 -10l-18 -21q-4 -10 -6 -20.5t-7 -18.5v-10 q2 -4 4.5 -12t6.5 -19l8 -6v-14q49 -37 84 -49q12 2 59 -11q45 -8 57.5 -18t21.5 -18.5t13 -14.5q14 -20 17 -37q18 -14 20 -41l15 -10q20 -33 33.5 -57.5t17.5 -40.5q8 -4 13 -9t9 -10l6 -26q8 -10 16.5 -24.5t18.5 -33.5l11 2q-4 -49 22 -71h12l9 -21l-19 -57l-8 -10 l-2 -8q-27 -41 -35 -62v-10l-12 -2l-10.5 -17.5t-8.5 -11.5q-8 -23 -13 -40t-9 -27q-33 -55 -37 -72l-8 -8l10 -21l-27 -16l-4 -15q-16 -14 -43 -51q-29 -37 -24 -49l-11 -8l-2 -12q-25 -37 -62.5 -60.5t-74.5 -46.5h-14l-15 -12l-26 -8q-14 -14 -23 -19q-14 -18 -32 -28 l-17 -23l-8 -33l4 -32q8 -16 27 -35q10 -2 14 -3l4 -1q27 0 31 2q18 14 34.5 24t32.5 21h11q14 14 25.5 22t19.5 13q14 -2 76 6l10 -6h24l11 -7q27 0 75 -16v6q6 2 9 2h4h30q10 -6 19.5 -11t15.5 -9h17q6 -2 14 -2q25 0 96 18q37 35 35 66q-12 14 -12 20l-11 6l-8 13 q-2 2 -49 8q-31 6 -48 21.5t-28 51.5l-20 7q0 12 14 39q-4 10 2 43q8 12 31 38l2 11l-4 16q25 45 43 62l4 18l6 6q12 25 25 78q6 6 15 14t22 21q23 -35 39 -63.5t24 -55.5l10 -6q20 -47 52 -92v-11q0 -6 2 -16q12 -25 21 -47.5t17 -44.5q2 -20 -4 -37l2 -12l-4 -19 q-20 -6 -61 -51t-41 -63q0 -51 33 -70q14 -2 20 -3l6 -1q18 0 29 2q53 33 90 59l16 2l11 6q4 0 15 3.5t15 3.5h7l8 -4q23 6 84 -5l33 11l16 -19l21 -3l6 -1q16 0 38 8l13 -12v-4l8 -14q27 2 51 6l12 -4q-6 -2 41 -2q20 0 37 1t27 3l8 -2q16 4 27.5 6t19.5 4l29 16l14 23 q2 4 2 6v4z" />
<glyph unicode="Y" horiz-adv-x="1269" d="M1237 1262l-4 36q-10 18 -31 31q-16 4 -26 5l-9 1q-20 0 -53 -18l-14 -14q-23 -6 -45.5 -12.5t-44.5 -10.5q-68 6 -101 6q-35 8 -24 8h-8q-14 -2 -27 -18l-21 2l-4 12l-16 2q-61 4 -88 6q-4 0 -11.5 3.5t-9.5 3.5q-59 0 -100 -29q0 -14 -8 -29q-2 -4 8 -33l21 -20l43 -14 l8 -15l37 2q6 -2 14 -7t18 -13q27 -59 27 -111v-6t-2 -18l6 -19l-6 -18q0 -8 4 -21l-12 -20l2 -16l20 -5q-2 -12 2 -32l-22 -23l-4 -12l8 -29q-6 -84 -10 -92l4 -18l6 -9l2 -14q-10 -6 -27 -31q0 -14 -3 -21t-11 -34l-10 -12q-16 -111 -119 -140q-53 2 -68 7q-23 6 -55 36 l-2 9l-22 22q2 8 -13 43q-14 31 -14 49l1 10l3 27q-6 12 -6 19v8l10 2q4 49 12 70l-2 14l-6 8v10l12 11q10 12 27 106q14 78 14 117q0 8 -2 16v17q0 4 4.5 16t4.5 14q0 14 -5.5 43t-5.5 43v2q0 4 2 13q-10 25 -17 43t-11 30q-10 18 -18.5 31.5t-14.5 22.5q-12 8 -21.5 13 t-15.5 9l-12 2q-23 20 -51 21q-98 0 -140 -21q-53 -25 -80 -104l2 -19l-6 -6q2 -6 2 -41q4 -6 8.5 -14t10.5 -19l29 -18h45l6 8l20 10q18 25 21 56q-4 14 -5 21l-1 7v4t2 13q4 6 14 16l20 6l23 -6l12 -18v-8l6 -13q0 -4 2 -14t2 -16q0 -8 -2 -15v-14q-16 -43 -35.5 -81 t-41.5 -71q-10 -4 -16.5 -10t-10.5 -10l-2 -12l-29 -37q-8 -4 -16 -9.5t-19 -9.5l5 -28q-43 -61 -44 -93l-6 -8q-2 -16 -10 -54t-8 -60q0 -12 1 -28t4 -31t6 -27.5t7 -16.5q0 -43 29 -78l2 -26q8 -12 15.5 -23.5t15.5 -21.5q20 -4 26 -7q20 -37 23 -53q55 -23 82 -24l8 -19 l18 -6l11 2q35 -23 108 -22h15q16 0 47 2l8 4l39 2l20 16l15 -8q8 4 15 7t15 7h13q10 8 18 13.5t14 7.5q53 47 78 78q2 -4 2 -7v-2q-4 -125 -12 -194l-8 -14v-11l-21 -41q-39 -18 -59 -16l-21 -10h-73h-80l-6 -11q-29 12 -62 13q-10 0 -27.5 -1t-45.5 -3q-49 -6 -68 -4 l-10 -15q-6 -6 -15.5 -9t-22.5 -9t-29.5 -19.5t-37.5 -38.5q-10 -23 -12 -32q8 -37 12 -60q6 -8 10.5 -13t8.5 -9q8 -4 14 -8.5t10 -8.5l35 -2q8 6 27 6q37 16 63 74l8 4l13 15q49 23 104 22l7 -1t24 -3q8 4 102 4q10 0 33 -2t35 -2l10 -2h94l19 8l14 -6l8 -6h10q12 0 25 4 q20 -12 238 -12q113 0 135 16q20 14 35 29l2 26q-10 33 -39 41l-10 -2q-20 12 -35 15l-9 8l-24 8q-14 29 -31 39q-2 16 -2 25v8q0 8 2 14v14l10 23l-26 31v28l6 8q4 59 -14 107q10 31 10 149v50q0 20 -2 32l-8 2l-2 21l10 16q2 14 2 25q0 10 2 16l-4 17l-12 10l12 12 q2 14 3 23.5t1 13.5q0 8 -2 18v17l-6 12q0 25 -6 43l14 17q-4 10 0 28q2 12 3 19.5t1 9.5q0 39 4 55q-4 12 0 37q6 33 6 39q12 43 41 61l23 9l8 8l14 2q58 33 74 74z" />
<glyph unicode="Z" horiz-adv-x="1249" d="M1104 481q63 25 63 97q0 35 -16 51q-27 14 -64 14q-27 -2 -63.5 -43t-36.5 -65l12 -9q-10 -16 -19 -26.5t-15 -18.5q-4 -53 -82 -174v-10l-13 -10v-15l-10 -16q-45 -39 -61 -66q-29 -20 -51.5 -34.5t-38.5 -22.5l-4 -12l-17 -6l-8 14h-10l-11 -6l-8 -10l-18 -7 q-10 0 -40 3.5t-44 1.5l-25 24l-6 17q2 14 2 20v6v4q0 6 -2 17q14 33 22.5 54t12.5 34q16 20 26.5 34.5t16.5 24.5q23 20 39 34.5t29 22.5l3 15l1 4v8l-4 10l-19 2v13q55 61 84 90q49 70 64.5 94.5t21.5 38.5l23 14l8 15v6l14 30l17 11l4 26l-4 11q4 10 8 17t8 15l25 21 q2 23 14 41l8 4q8 31 29 47q0 18 4 31q37 37 69 86l2 12q47 59 78 174q14 12 21 43l-10 35l-21 10l-12 -4t-15 -6l-10 -10q-31 -10 -41 -13q-90 -18 -184 -12l-10 -14l-74 4l-10 10l-13 -2q-20 4 -159 4q-8 0 -30 -3t-30 -3q-47 2 -78 6l-51 -12l-6 10l-12 8q-27 4 -41 6 t-19 4l-10 9q-4 27 -14 35t-31 14h-12q-82 -37 -82 -172q0 -2 1 -16.5t3 -41.5q4 -49 2 -53l4 -20l-2 -11q8 -12 12 -30q-6 -14 2 -37q-10 -35 3 -66q-2 -10 -3 -24l5 -10q-12 -45 -11 -66l-6 -10l-10 -8l-12 4l-39 -6l-23 -21q-12 -25 -12 -37q0 -18 8 -43 q14 -14 25.5 -23.5t19.5 -13.5q20 -2 29 -2h10q53 0 105 76q51 70 49 123q4 8 9 14t9 15v10q33 88 37 98l14 19l2 22h13l12 16l2 11l-6 20l20 27l13 -4l14 4l-8 -8l22 18l8 2q12 10 27 41l16 8l13 -6q16 6 28.5 12.5t20.5 10.5q12 2 27.5 3t31.5 1q31 0 58 -33 q2 -10 3 -24.5t1 -34.5q0 -27 -41 -93q-23 -35 -34 -56t-13 -30q-33 -39 -54 -69l-2 -13q-8 -6 -26 -24v-12l-31 -37l-4 -17q-45 -51 -61 -84l2 -12l-19 -4q-43 -45 -65 -88q-8 -2 -23 -27l-16 -8q-4 -14 -19.5 -35.5t-38.5 -50.5q-47 -59 -55 -92l-16 -21l2 -14l-6 -12 l-13 -2l-16 -15q-16 -47 -25 -55l4 -20q-6 -33 -28 -49q-10 -47 -16.5 -79t-6.5 -48q0 -49 27 -70q20 -10 29 -16q20 -2 36 4q29 25 52 61q55 12 96 12q10 0 29.5 -2t52.5 -6q66 -6 71 -8h7l8 -4h24l6 6l13 4l22 -6l17 -14q10 -2 16 -3l6 -1q4 0 14.5 2t14.5 2 q8 0 24.5 -4.5t22.5 -4.5h12v15l31 2l18 -23q39 2 146 6q96 0 143 9q41 8 66 12l20 12l6 13q2 14 -6 30l-10 4l-8 11l-6 20l4 8q-4 31 -6 39l2 8l-9 15q8 35 17 51v8l-15 19l-8 2l-3 18l-1 6q0 20 6 31q0 6 -1 18.5t-3 28.5q-6 31 0 49l-4 17q2 14 4 23t6 17l11 9 q0 10 10 26z" />
<glyph unicode="[" horiz-adv-x="763" d="M748 29v12q-6 23 -29 48.5t-45 31.5l-10 10l-15 -2l-8 -8h-12l-21 8l-16 -12l-17 18l-20 -20l-14 4q-25 18 -39 37q-12 37 -13 96q-12 20 -12 39v67q0 41 2 95q2 111 2 163q0 53 6 72l-6 10q2 14 -4 29q4 16 6 25l2 8q0 18 -6 41q4 14 5 21l1 7q0 20 -8 43q6 16 4 31l6 8 q-10 35 -10 140q0 18 12 41q0 57 13 94l21 24.5t18 14.5l14 4l20 -23l17 19l16 -11q8 2 21 7h12l8 -9h15q10 8 22 16.5t23 16.5q29 20 39 55q4 20 -15 54q-29 16 -33 16l-43 4q-16 -4 -28.5 -8t-20.5 -8l-20 -17l-35 -10q-16 10 -43 10h-10t-31 -2l-8 -4q-18 2 -31 -6l10 -8 q-10 2 -19 1t-15 -3l-17 12l-51 8l-10 -4q-10 2 -23.5 4t-28.5 7l-20 -7q-16 2 -43 7l-18 -7l-13 4l-10 -4l-10 -14q2 -14 -12 -57l6 -68q2 -23 6 -39t8 -26q-2 -8 -2 -13v-4v-10q0 -4 2 -12v-23q0 -4 -3 -14t-3 -15q0 -12 3 -34.5t3 -34.5v-72q0 -18 -2 -8q-10 -16 -10 -33 q0 -10 4 -28.5t4 -32.5t-4 -32.5t-4 -20.5q0 -23 10 -43v-48q0 -18 2 -30l-6 -328q0 -8 2 -24.5t2 -24.5q0 -37 2 -43q-10 -39 -14 -72t-6 -59q14 -43 12 -58l10 -14l10 -4l13 2q10 -2 14 -2h4h63q10 0 52 6l10 -2q14 2 26.5 3t24.5 3l17 13h34l-10 -9q27 -10 39 -12 q20 -2 31 -2h10l43 12q70 -25 104 -43q23 2 35.5 3t14.5 1q8 6 15 10.5t11 8.5q15 23 15 37z" />
<glyph unicode="\" horiz-adv-x="641" d="M668 1317l-1 7t-3 22q-31 8 -54 8q-20 4 -73 57q-27 25 -44.5 43.5t-25.5 30.5q-14 4 -21 5l-6 1h-22l-23 -14q-8 -33 -18 -45q-29 -37 -109 -64q-80 -29 -131 -29h-47l-20 -18l-4.5 -9l-4.5 -9l9 -29l12 -17l22 -10q23 -23 29 -35q0 -14 3 -43.5t3 -44.5q0 -66 13 -80 l-5 -14l-22 4q-6 -2 -12.5 -4t-10.5 -4q-90 0 -79 2q-4 -31 -7.5 -56.5t-3.5 -47.5v-9l8 -18q6 0 17.5 -4t17.5 -4q8 0 23.5 4t21.5 4q8 0 24.5 -2t22.5 -2l-8 -12q0 -84 -4 -101l4 -14q-4 -16 -5 -26l-1 -9v-10l6 -10q2 -20 -12 -76l10 -23q0 -25 4 -70.5t4 -70.5 q0 -27 -6 -39l-12 -10l-2 -8l2 -8l6 -9v-16q0 -113 -12 -139l2 -13q-10 -16 -18.5 -28.5t-16.5 -20.5l-2 -28q10 -16 23.5 -21.5t19.5 -11.5h21q16 -6 29.5 -12.5t27.5 -12.5l6 -8h8l10 -12q16 -6 26.5 -10.5t18.5 -8.5q27 -23 43 -30q2 0 45.5 -18.5t73.5 -18.5h4q4 0 15 2 q31 14 39 26v25q-2 6 -21 20l-4 13q4 10 15.5 25.5t31.5 33.5q41 37 49 64l-10 24l-10 10q-35 12 -43 11l-6 4q-8 0 -80 14l-15 23l-30 -11l-41 9l-4 10q20 35 30.5 54.5t14.5 23.5q8 29 12 47q2 23 3 39t1 26l-6 23q10 20 11 45.5t1 44.5q0 6 -2 8l-10 8q-8 18 -8 199v16 t2 49q0 12 -3 30t-7.5 36t-7.5 35.5t-3 28.5q0 10 2 26.5t5.5 33.5t6.5 32.5t3 21.5q0 76 -29 115l-20 12l-5 58q8 8 19 8l24 -8q12 -6 19 -21l14 -10l17 2q45 -123 106 -125l10 2q18 8 25 23q0 45 12 61q33 20 55.5 34.5t38.5 24.5l7 9q2 8 2 10v4z" />
<glyph unicode="]" horiz-adv-x="763" d="M614 76q0 16 -3 39.5t-7 56.5t-7 56.5t-3 39.5q0 4 3 15.5t3 15.5q-2 135 -2 236q0 102 -2 170q10 20 10 34q0 10 -4 31t-4 31t4 27.5t4 25.5q0 25 -10 41q2 66 3 103.5t1 45.5q0 4 -3 14.5t-3 14.5q0 16 3 40t7 56.5t7 57t3 41.5q0 10 -6 29.5t-6 27.5l-8 14l-12 4 l-13 -4l-18 7q-35 -4 -43 -7l-19 7l-51 -11l-12 4l-51 -8l-17 -12q-14 4 -32 2l8 8q-12 8 -31 6l-8 4q-20 2 -31 2h-8q-27 0 -43 -10l-37 10l-20 17q-16 4 -27.5 8t-19.5 8q-39 0 -52 -4q-8 -4 -14 -8t-10 -8q-16 -23 -17 -41v-13q10 -35 39 -55q10 -8 22.5 -16t22.5 -17h17 l6 9q12 4 35 -7l14 11l16 -19l21 23l14 -4q10 -14 23 -17q31 -31 30 -78q0 -27 -2 -32q10 -31 11 -80q0 -84 -9 -107l9 -8l-2 -16l4 -15l-8 -30q2 -14 4 -23.5t4 -17.5q-4 -14 -5 -24.5t-3 -16.5l8 -33l-4 -12l2 -17l-9 -10q10 -37 11 -59v-338q0 4 -13 -47q14 -39 -12 -88 q-27 -29 -39 -37l-14 -4l-21 20l-16 -18l-14 12q-10 -4 -16 -6l-7 -2h-12l-6 8l-17 2l-10 -10q-23 -6 -45 -32t-29 -48q-4 -25 17 -49l24 -19q2 0 15.5 -1t36.5 -3q70 27 104 43l43 -12h8q10 0 31 2q27 10 39 12l-8 9h32l17 -13q8 0 25.5 -3t25.5 -3h2q4 0 10 2q25 -4 51 -6 h62h4t14 2l13 -2l12 4l8 14q0 8 6 28t6 30z" />
<glyph unicode="^" horiz-adv-x="831" d="M696 1268l-6 26q-12 18 -35 35v14q-8 6 -32 11l-7 8l-14 2q-121 80 -131 84l-10 14q-51 23 -62 23q-23 0 -43 -21q-16 -16 -24 -23t-10 -9q-14 -8 -23.5 -14.5t-17.5 -10.5q-10 -8 -17 -11l-6 -3l-14.5 -14.5t-28.5 -26.5q-35 -31 -39 -31q-25 -23 -37 -49q-2 -10 -2 -15 v-4q0 -29 17 -45l21 -3l7 -1h4q6 0 17 2l16 13l4 8h10q20 27 82 57q63 31 95 31q14 0 92 -41q78 -39 88 -53q35 -10 47 -15l31 6l14 19l4 20z" />
<glyph unicode="_" horiz-adv-x="1024" d="M1024 -473v203h-1024v-203h1024z" />
<glyph unicode="`" horiz-adv-x="608" d="M471 1473l-4 18l-14 14l-21 8q-43 -6 -37 -6h-39l-10 6h-55q-4 0 -14.5 -3t-14.5 -3q-29 0 -48 1t-30 3q-6 -4 -13 -7t-17 -7l-17 -20l4 -31q23 -20 40.5 -34.5t29.5 -22.5l39 -70l10 -6l-2 -21q27 -41 68 -75q35 -4 59 18l8 25q0 14 -8 37.5t-8 35.5q0 20 8 39 q4 4 15.5 14.5t27.5 24.5q31 23 39 41z" />
<glyph unicode="a" d="M809 244v28l-21 17q-43 0 -55 6l-6 10q-2 51 -2 70q0 18 -2 8q-2 4 -4 10t-4 13q6 47 0 59l-10 10q-6 49 -5 70l7 16v51v31t-2 62q-4 59 0 96q2 27 5 49t11 41l16 18l6 19v16l-8 14l-12 9q-10 -2 -28.5 3t-26.5 5q-18 0 -21 -2l-14 4l-10 8q-41 10 -52 23l-6 12l-14 2 l-12 16q-8 2 -58 37q-47 35 -78 35q-18 0 -38 -6l-25 -19q-2 -20 -10 -38l-19 -21q-104 -29 -159 -78q-10 -18 -19.5 -33.5t-19.5 -27.5q0 -12 -7.5 -45t-7.5 -51q0 -6 4 -21.5t4 -24.5l9 -4q4 -12 2 -20q6 -8 15 -17.5t24 -23.5q6 -2 26.5 -10t30.5 -8q82 0 104 55 q2 16 2 24v9q0 12 -6 36l-26 21l-19 2l-8 4q-6 2 -33 -8l-10 4l-6 14v41l8 15l35 28q16 4 26 5l9 1q31 0 65 -22h19q16 -8 26 -12q49 -43 50 -99l-13 -26v-19q-8 -14 -12 -47q-16 -16 -31.5 -28.5t-25.5 -20.5h-25q-14 -8 -24.5 -13t-18.5 -10q-4 -2 -20 -2t-41 -6 q-31 -6 -43 -6l-9 2l-53 -6q-27 -6 -41 -31v-18l17 -27l2 -63q0 -16 -7 -31q0 -27 7 -35v-16l-9 -21q0 -29 7 -37q2 -10 -2.5 -30.5t-4.5 -28.5q-33 -53 -55 -72l-6 -24q8 -20 25 -33h12l8 -4h33q29 -14 37 -21l6 -10l12 -4q2 -4 11.5 -11t19.5 -16.5t19 -18.5t12 -15 q74 -27 86 -27q20 0 57 16l8 23l-6 23l-23 24q4 45 9 55l24 15l15 2q18 -2 30 -15q4 -10 35 -34q29 -20 39 -37l49 -33v-8q35 -18 94 -35q27 0 39 6l15 17l6 38v-8q-10 25 -17 31l-2 8l2 17l9 12l22 16l2 8q16 8 35 39l8 -2q37 39 37 62zM479 254q-53 8 -94 12t-68 4l19 19 q0 14 2 41.5t2 40.5v6t-2 18l6 15q-6 39 -10 67.5t-6 48.5l12 11q10 2 22 -2l13 12l18 8q18 -2 70 29q-4 -109 -12 -117q8 -61 12 -108.5t4 -82.5q10 -10 12 -22z" />
<glyph unicode="b" horiz-adv-x="856" d="M799 952q0 12 -6 29l-11 6q-127 25 -133 25q-29 29 -78 49q-14 16 -25 26.5t-22 18.5q-31 10 -45 10q-23 0 -45 -16q0 -14 -6 -23q2 -10 2 -16v-10q-2 -12 -22 -43q-12 -10 -27 -13l-19 2l-12 25q0 6 -2 20.5t-2 20.5q0 45 6 57q-4 6 0 56q12 178 88 198l56 2l22 -14v-16 l-14 -23l-4 -23l-4 -6v-28l14 -27l14 -12l11 -2q12 -12 43 -13q4 2 8 2q20 14 32 27q29 68 25 90l-2 8l2 13l-8 18v8q-12 23 -17 45l-10 4q-53 47 -82 58q-49 6 -73 6q-23 -2 -39.5 -4t-26.5 -4q-14 -4 -24.5 -8.5t-18.5 -6.5q-31 -18 -47 -32q-14 -23 -23.5 -41.5 t-17.5 -28.5l-23 6q-8 10 -32 31l-25 4l-12 16l-37 23q-6 2 -37 2q-18 0 -35 -8l-10 -8l-6 -35l4 -13l23 -16h6l10 -10l8 -2q8 -8 14.5 -13.5t10.5 -9.5q20 -53 20 -94q0 -10 -2 -30.5t-2 -30.5q0 -72 8 -91q-2 -23 -2 -40v-29q-8 -10 -8 -49q0 -25 4 -33q-2 -20 -3 -42 t1 -44l-10 -25l4 -8v-14l6 -8q2 -2 2 -39v-13q0 -8 -2 -20v-31l6 -10q-10 -61 -12 -92l4 -23l-8 -4v-16q0 -8 2 -19v-63q-2 -10 -2 -19v-12l12 -18l2 -13q-12 -18 -12 -36v-5q0 -4 2 -12l-8 -10l6 -16q0 -25 -10 -60q-14 -12 -33 -39q4 -37 8 -47q12 -6 19.5 -11t16.5 -9 t22.5 -9.5t37.5 -11.5q39 -10 62 -24l24 6l13 -8q-2 -10 -2 -27q59 -41 90 -66q16 -8 20 -12h21l12 -6q14 0 25.5 1t21.5 3l12 8q12 12 17 33q-16 51 -27 68l2 10q63 43 105 49q12 12 61 21q51 12 57 18q16 2 31.5 4t30.5 4l14 6l12 17l2 26q-29 39 -49 62q12 27 13 41v8 l-7 14v129l5 10q-6 57 -7 43v117l-12 10l-8 3l22 18q2 23 3 33v10q0 92 16 121v10q25 25 33 43q2 6 2 8v4zM545 285l-13 -15q-49 0 -104 15l-12 -2q-51 8 -62 22l-10 29l2 12q10 16 18.5 27.5t12.5 19.5q4 29 6 45.5t2 20.5v2q0 4 -2 8l4 8q2 35 2 51v17q0 23 -1 39t-3 30 l-14 11l6 16v8l-6 15l10 26v8q0 45 -12 168l-23 13l27 28q35 -10 59.5 -20t40.5 -19q23 -4 38 -8t26 -6q-10 -41 -13 -61l-6 -9q-2 -20 -4 -36.5t-6 -28.5l-8 -19l10 -22q4 -4 -12 -53q6 -35 9 -65t5 -54l-12 -37q2 -8 6 -70q4 -59 14 -84z" />
<glyph unicode="c" horiz-adv-x="731" d="M713 784l-6 21q-4 4 -8.5 9t-8.5 9q-10 2 -18 2q-6 0 -13 2l-6 41q-23 27 -28 35q-6 18 -7 29q-29 68 -45 94l-16 2q-8 16 -13 29.5t-9 23.5l-31 27l-29 2h-6l-10 -4q-16 -12 -25 -31l-2 -16q-55 -43 -70 -43q-20 -25 -98 -47q-82 -20 -94 -31q-4 0 -43 -12 q-16 2 -24.5 3t-6.5 1l-24 -12q-12 -18 -13 -31q4 -16 13 -29h18l-2 -24l18 -7q-2 -35 1.5 -61.5t7.5 -46.5l-4 -8q-2 -6 2 -19l-9 -22q-2 2 -2 -37v-8l4 -11q-2 -23 -1 -40t4 -29q-2 -45 -3.5 -70.5t-1.5 -34.5l13 -30l-13 -13q-4 -12 -8 -88q0 -35 -5 -55.5t-12 -32.5 t-13.5 -17t-10.5 -11q-4 -10 -5 -15l-1 -6v-12l8 -19l9 -6q6 -2 8 -2h4h51l12 -14l27 4l6 -17q12 -2 78 -36q33 -16 51.5 -26.5t22.5 -14.5q55 -14 82 -21l28 -8l10 1q11 1 31 3l17 21v28l-9 19q0 8 2 14t8.5 13t21.5 15.5t44 24.5q43 27 53 49l13 7q47 51 47 120v25 q-8 16 -12.5 28.5t-8.5 18.5l-43 21q-8 -6 -20 -8.5t-23 -14.5l-8 -20q0 -4 2 -13.5t5 -19.5t6 -20.5t3 -12.5l-6 -12v-8l-4 -11l-14 -4q-14 -18 -25 -20v16q-59 -4 -110 8q-78 16 -92 54l-2 14l18 10l4 10l8 9q0 8 8.5 28.5t8.5 30.5q0 86 -2 80l6 2q-2 4 -2 10q0 8 -2 16 l-9 7q0 12 6.5 31.5t6.5 29.5q0 12 -3 33.5t-3 32.5l-5 6l9 18l-4 25l2 8l-9 12q12 51 -22 113l-4 45l12 18l10 7q18 -16 35 -52q8 -27 23 -57l18 -16q55 -145 84 -170h21l20 8l10 12l11 31l24 26q27 12 55.5 25.5t44.5 36.5z" />
<glyph unicode="d" d="M768 242q-4 29 -31 59l-6 33q6 16 2 47q-2 23 -3 35t-1 14v12q0 10 2 25v37q-10 14 -10 24v9l10 18q2 14 2 20v9v10l-8 10v29l-10 6l8 4q-4 18 6 47v-10q-6 27 -6 92q0 23 12 115l4 6l2 12l13 17q-2 8 -2 14q0 8 -2 14l-15 23q-37 27 -39 33l-8 4q-10 10 -17 16t-14 10 q-29 25 -65 84q-23 2 -41.5 21.5t-34.5 38.5l6 16v8q-27 39 -51 51l-6 15q-20 16 -37.5 53t-17.5 61v7q0 6 2 18q4 12 22 33l8 2q6 14 17 18q2 10 3 14l1 5q0 35 -2 41l-27 37l-8 -5l-6 11q-25 4 -84 -13q-14 -18 -27 -20q-8 -23 -14 -41t-10 -29q0 -2 2 -12t3 -21.5 t2 -21.5t1 -12l35 -82l-25 -2l-8 12q2 0 -41 16q-25 10 -45 11l-12 -4l-21 2q-45 -14 -63 -17l-4 -8l-33 -14l-8 -11l-11 -2q-10 -16 -10 -55v-4q0 -2 2 -10l33 -21l18 2q33 14 50 25q27 0 53 -14q2 -8 26 -23q14 -23 24.5 -39t18.5 -27l23 -2l-4 -24l22 -8v-15 q68 -90 80 -118q14 -12 24.5 -20.5t14.5 -12.5l6 -12q35 -16 64 -25l2 -14l-10 -7q-10 -23 -14.5 -42t-6.5 -33l6 -19q0 -12 -12 -39q0 -10 -2 -29.5t-2 -27.5q0 -12 1 -25.5t3 -27.5l6 -11l-2 -10l-8 -4q-2 -14 -2 -29v-30q0 -172 16 -226l33 -24l4 -8v-15q-4 -14 -16 -20 l-13 -4q-72 27 -110 22q-16 12 -29.5 21.5t-23.5 15.5q-16 4 -27 2v10q27 35 41 56.5t18 25.5q2 14 3 31t1 37q0 90 -12 139q14 20 14 60q0 31 -6 90l6 16q-14 20 -14 115q0 18 11.5 47t13.5 45l-13 16l-16 9q-29 -4 -80 -37t-80 -35l-10 2q-29 -12 -68 -10l-8 -4l-8 2 q-12 -2 -22 -21v-22l16 -23l14 -4l10 -12l5 -23q-2 -4 -2 -10q0 -4 -3 -10l5 -11v-8l-9 -6v-10q8 -16 9 -68q0 -20 2 -63t2 -64q0 -14 -7.5 -39.5t-7.5 -37.5q0 -10 5.5 -31t5.5 -31l-7 -27l5 -32q-10 -16 -7 -56q4 -45 -4 -57q-27 -41 -37 -65v-11l9 -18q8 -14 69 -31 q57 -14 82 -35l10 -2q8 -10 29 -24.5t53 -34.5q68 -37 97 -37l9 1t25 3l21 23l4 16l-2 18l-31 56l13 14l26 -2l10 10q92 41 93 41h8l6 6q51 10 90 17.5t66 11.5l6 4z" />
<glyph unicode="e" horiz-adv-x="751" d="M723 698l-6 21l-27 22q0 8 -20 52q-18 49 -19 51q-27 18 -39 39q-4 14 -6 24.5t-4 18.5l2 8q-49 104 -86 166l-18 12h-29l-12 -6l-13 -14q0 -14 -8 -29q-61 -59 -112 -80l-15 4q-4 -4 -7 -8t-7 -8h-10q-25 -18 -105 -33q-45 -8 -71.5 -15.5t-36.5 -11.5l-13 -18 q-2 -10 -2 -14v-5v-2t2 -6q2 -8 19.5 -19t23.5 -40q-4 -16 5 -76l4 -8q-6 -33 -4 -119q2 -72 3 -102.5t1 -20.5q0 -6 -2 -8l-9 -10q10 -25 11 -35l-4 -20l6 -13l-11 -6l2 -18l7 -6v-19q2 -8 2 -16q0 -14 -5.5 -38t-5.5 -36q-6 -12 -24.5 -31.5t-26.5 -44.5l6 -14 q14 -18 27 -21q47 2 139 -51q88 -51 107 -51l16 -12q49 -10 109 -31l43 8l12 17l4 16l-2 18l-6 11l4 26q35 35 66.5 63.5t62.5 55.5l2 12q6 14 19 21q14 45 18 74q2 61 -27 88q-10 2 -32 12q-23 4 -46 -12q-18 -29 -20 -48q4 -23 23 -51q-2 -6 2 -16l-4.5 -9t-4.5 -10 l-12 -8l-21 -3l-6 -1q-20 0 -75 6q-61 10 -70 15h-37q-4 2 -10 3t-10 3l-8 14l-3 19l5 12l10 12q2 18 14 31q2 8 2 12v4v6t-2 17l29 -2l16 16q12 51 43 74l8 2l15 12h8q20 12 36.5 21.5t26.5 15.5q12 4 21.5 6t13.5 4q76 55 129 80q8 18 25 33zM467 655q-14 -29 -21 -37 q-20 -8 -28 -14l-4 -10l-29 -10l-27 -35l-6 10l4 19q-8 25 -2 51l-4 16l10 33q0 18 -6 31l6 14q-12 80 -12 84q-14 43 -18 72v16l6 16l10 2q16 -33 28.5 -56t20.5 -40l8 -6q20 -51 37 -90t27 -66z" />
<glyph unicode="f" horiz-adv-x="641" d="M668 1317l-1 7t-3 22q-31 8 -54 8q-20 4 -73 57q-27 25 -44.5 43.5t-25.5 30.5q-14 4 -21 5l-6 1h-22l-23 -14q-8 -33 -18 -45q-29 -37 -109 -64q-80 -29 -131 -29h-47l-20 -18l-4.5 -9l-4.5 -9l9 -29l12 -17l22 -10q23 -23 29 -35q0 -14 3 -43.5t3 -44.5q0 -66 13 -80 l-5 -14l-22 4q-6 -2 -12.5 -4t-10.5 -4q-90 0 -79 2q-4 -31 -7.5 -56.5t-3.5 -47.5v-9l8 -18q6 0 17.5 -4t17.5 -4q8 0 23.5 4t21.5 4q8 0 24.5 -2t22.5 -2l-8 -12q0 -84 -4 -101l4 -14q-4 -16 -5 -26l-1 -9v-10l6 -10q2 -20 -12 -76l10 -23q0 -25 4 -70.5t4 -70.5 q0 -27 -6 -39l-12 -10l-2 -8l2 -8l6 -9v-16q0 -113 -12 -139l2 -13q-10 -16 -18.5 -28.5t-16.5 -20.5l-2 -28q10 -16 23.5 -21.5t19.5 -11.5h21q16 -6 29.5 -12.5t27.5 -12.5l6 -8h8l10 -12q16 -6 26.5 -10.5t18.5 -8.5q27 -23 43 -30q2 0 45.5 -18.5t73.5 -18.5h4q4 0 15 2 q31 14 39 26v25q-2 6 -21 20l-4 13q4 10 15.5 25.5t31.5 33.5q41 37 49 64l-10 24l-10 10q-35 12 -43 11l-6 4q-8 0 -80 14l-15 23l-30 -11l-41 9l-4 10q20 35 30.5 54.5t14.5 23.5q8 29 12 47q2 23 3 39t1 26l-6 23q10 20 11 45.5t1 44.5q0 6 -2 8l-10 8q-16 51 -8 199 l4 68l8 6q78 0 82 2l25 -15q-2 -72 2 -86l12 -6h45q18 14 33 45q0 4 2 14.5t2 16.5q0 10 -3 32.5t-3 35.5l-6 14l2 20l-9 2h11q18 33 26 56q2 14 -4 33l-16 18q-39 2 -60 -14l-6 -9q-53 -23 -73 -18q-4 2 -41 2q-29 4 -37 8l-49 -30q18 27 24 49l21 22q6 25 6 43 q0 76 -29 115l-20 12l-5 58q8 8 19 8l24 -8q12 -6 19 -21l14 -10l17 2q45 -123 106 -125l10 2q18 8 25 23q0 45 12 61q33 20 55.5 34.5t38.5 24.5l7 9q2 8 2 10v4z" />
<glyph unicode="g" horiz-adv-x="839" d="M831 133q0 57 -16 80q-39 51 -61.5 76.5t-26.5 29.5q-4 29 -12 41q2 25 -4 54q2 8 6 20v27l-8 14v25l8 20q2 8 -6 27l2 20l8 13q-2 31 -12 41q8 51 6 75q4 72 14 122t27 79l20 37v6l-4 8l-24 19q4 0 -9.5 1t-46.5 3l-20 14q-16 0 -27 2q-27 16 -45 26.5t-33 18.5 q-94 78 -114 78h-17l-28 -12q-41 -80 -46 -82l-2 -25q-12 0 -20 6q-23 -10 -40 -18t-28 -16l-22 -2l-7 -3q-7 -4 -16.5 -7t-17.5 -5t-10 -2q-27 0 -31 2q-31 -10 -39 -12h-10l-10 -10h-9l-20 -27l-2 -25l4 -12l18 -16q12 -16 13 -43q0 -37 -2 -43l6 -15v-22q2 -8 2 -14v-9 v-84l-4 -8q-2 -12 4 -33q-10 -23 0 -47q-2 -12 -3 -30.5t-1 -40.5l-13 -31l4 -27l9 -14q0 -12 -4.5 -32.5t-4.5 -31.5q0 -27 5 -43q-6 -23 -5 -34l-28 -29l-8 -23q0 -14 8 -28q29 -16 41 -31h22l47 -22l15 -15h14q41 -63 135 -96l31 2l16 10q2 6 2 8v5q0 -4 -3 10t-7 43 q10 53 51 78q16 6 33 12t31 10q41 -23 49 -33q20 -35 39 -53l8 -43v-10l-16 -25q-2 -6 2 -14l8 -8l-2 -21q-18 -31 -30.5 -44t-18.5 -19q-86 -27 -109 -27q-27 0 -43 8l-14 -6q-53 33 -80 49l-16 4l-15 19l-10 6l-6 8q-27 12 -41 23l-4 8q-41 8 -62 18q-10 2 -18 2h-12 q-41 -12 -56 -32l-2 -13l-28 -24l-23 6l-14 -2l-25 12q-14 -2 -25.5 -3t-19.5 -1q-55 -4 -106 -45q-53 -47 -54 -96v-39l15 -4l-21 -8q39 -63 60 -80q78 -23 67 -23h33q18 8 33 10q37 33 37 74v4q0 2 -2 8q-16 12 -23 23l-15 3l-5 1h-15q-12 -8 -20 -12h-12q-8 0 -19 2l-8 8 v18l14 25l31 16q12 -2 22.5 -1t20.5 3q20 -6 32.5 -11t19.5 -8t12.5 -7t15.5 -6q10 -6 17 -10.5t11 -8.5q10 -18 25 -26l14 2q20 -12 36 -22.5t28 -18.5q14 -20 35 -31h8q106 -66 139 -66h4t15 3q20 12 32 12q14 12 21 49q-2 8 -5 18.5t-12 24.5l9 22q10 2 20 19q6 2 18.5 5 t28.5 11q37 12 45 11l8 6q88 27 136 49q8 14 34 26l17 25q78 37 104 150l2 -9q-2 14 2 40t4 36zM537 827l-11 -8q-14 -37 -24 -64.5t-19 -43.5v-11l11 -16l-5 -18q6 -23 0 -62q-4 -29 -7 -44t-3 -19q4 -10 6 -19.5t4 -19.5l-10 -19q2 -10 3 -20t1 -19q-4 -96 0 -110 q8 -39 19 -58l-10 -14q-92 4 -144 25l-43 16l35 35l6 35l8 10q10 45 11 61q0 47 1 73t3 34l-21 8l14 37q2 14 -3 43t-5 41v2q0 4 2 10l-6 10v78q0 68 -16 105v8l4 10q14 6 20 6q27 0 125 -67q19 1 54 -15z" />
<glyph unicode="h" horiz-adv-x="856" d="M784 918v28l-10 12l-20 9l-9 8q-41 14 -55 24h-6l-14 11l-37 8q-20 16 -45 26l-4 9q-23 14 -38.5 25.5t-25.5 19.5l-12 2l-12 8q-6 2 -11 2h-2l-9 -1t-28 -3l-12 -6q-18 -23 -18 -41l1 -9l3 -24l-4 -10l-25 -27l-29 2q-18 25 -18 88q0 80 2 72q8 16 8 37l-6 12 q6 43 13.5 89t41.5 77q8 2 25 10q4 -2 10 -2t15 -2q12 -12 16 -18q4 -20 -8 -49l6 -23l20 -29l50 2l28 19q4 8 7 13t8 9q2 8 2 15v12l4 8q-4 18 -5 31.5t-3 23.5q-33 45 -58 64l-12 2l-8 10l-8 2l-9 6q-27 4 -37 9q-8 -2 -12 -2h-2h-10t-16 2h-29q-59 -18 -86 -44t-55 -85 h-15q-18 18 -32.5 31.5t-24.5 21.5q-10 0 -25.5 7t-21.5 9q-29 -4 -43 -6l-8 -10l-9 -4l-2 -10q2 -6 2 -11v-2v-4q0 -2 -2 -8q23 -20 36 -33.5t18 -19.5q0 -10 6 -34t6 -38t3 -48t3 -50v-21q-12 -18 -12 -69q0 -8 4 -25.5t4 -24.5l-2 -75q-10 -16 -10 -45q0 -6 2 -11v-12 l8 -12l-2 -8l4 -13q2 6 2 -63q0 -8 -8 -27l12 -43q-6 -66 -6 -53q0 -8 2 -14v-17l-12 -16l-7 -29q18 -37 15 -78l6 -14q2 -10 -6 -31q4 -23 -3 -43t-7 -28q10 -35 10 -43q0 -16 -8.5 -46t-10.5 -42q-39 -20 -57 -43l-4 -15l2 -28q2 -12 16 -23l39 -6l8 -8q41 -10 74 -35v-8 l10 -11l9 -2l16 -12l-8 2q53 -47 84 -47q6 0 14 1t19 3l18 17q2 14 3 20l1 6q0 20 -12 49v13l8 18q12 12 33 16l8 7l16 4q14 10 24.5 19t18.5 13l7 15l8 6l6 14l-2 10l2 11l-8 16l-29 14l-27 2l-2 15q-39 63 -32 100l-5 8q6 18 7 170q0 16 -4.5 51t-4.5 54q0 8 1 17t3 20 l-6 10q-2 6 -2 8v4q2 51 7.5 85t13.5 52l6 -4l-2 8l31 21l10 -14q63 -35 104 -56q-23 -86 -33 -130t-12 -66l6 -15q-8 -74 7 -106q4 -41 7 -82t7 -82l4 -10q-6 -27 0 -70q4 -29 6 -45t2 -24q0 -14 -6 -47t-4 -52q-25 -55 -25 -112q0 -45 23 -113l31 -33l34 -12q49 10 50 10 l24 23l10 41l-6 34q-10 12 -12 21q-12 10 -21 14l-28 35q-2 10 -3 14l-1 5q0 31 6 51t16 33.5t23.5 23.5t25.5 23q49 20 68 34l25 2l30 21l4 25l-20 22l-6 16q-4 25 -7.5 49.5t-7.5 49.5l-4 8q-2 14 -2 27v30v88l-14 19q2 20 12 26v15l-6 10v22q-2 8 -2 13v10q0 12 4 35.5 t4 36.5q0 113 -2 102q6 63 39 84l-8 -10q18 19 22 29z" />
<glyph unicode="i" horiz-adv-x="501" d="M410 1323q-8 10 -16.5 20.5t-16.5 20.5q-14 4 -35 25h-8q-18 23 -31.5 38t-23.5 25l-7 2l-6 10l-16 13h-14q-8 0 -19 2q-14 -8 -24 -29v-53q-25 -16 -43.5 -29.5t-32.5 -21.5l-17 -29l4 -27q12 -14 21.5 -24.5t17.5 -14.5l33 -8l6 -12l-2 -10l10 -9q12 -27 32 -38t40 -23 h21l24 10l8 15l9 6q2 6 2 8v4l-1 6t-3 21q4 14 10 20q-2 6 2 19l8 8l18 -11l43 29zM461 233q-23 16 -37 26.5t-25 14.5q-16 12 -16 66q-2 61 -6 72l4 30l-19 13l17 10q2 16 2 22v9v30l-8 19l-8 4l-11 20q-2 6 8 39l7 8q2 20 3 34t1 24q0 154 16 198q6 2 12.5 4.5t10.5 4.5 q10 14 16 27.5t10 25.5v6l-14 18q-47 18 -62 19q-6 2 -43 39q-16 16 -30.5 28.5t-28.5 16.5q-14 18 -33 29h-10l-6 8l-39 4q-10 -10 -17.5 -19.5t-13.5 -13.5q-2 -8 4.5 -32.5t6.5 -32.5q0 -6 -2 -9q-12 -6 -21 -20l-4 -12q-29 -37 -43 -39q-6 -8 -12.5 -14.5l-14.5 -14.5 l-4 -29l4 -18q8 -6 18.5 -13.5t26.5 -5.5q20 -20 21 -81v-5q0 -2 -2 -6q4 -12 5 -21t3 -14q-8 -18 -2 -53l-8 -14l-2 -12q12 -35 12 -56q0 -78 -10 -98q2 -6 3 -19.5t-1 -35.5q0 -41 -6 -54l6 -24l-6 -23q4 -18 -4 -37q-10 -31 -11 -36q-16 -16 -27.5 -26.5t-19.5 -18.5 l-4 -25l4 -14l8 -9l4 -12q4 -2 19.5 -7t42.5 -13q45 -16 72 -45l10 -2q51 -68 123 -68l22 18l6 15v16l-12 31q0 12 9.5 27.5t23.5 30t29.5 26.5t27.5 18q25 37 25 51z" />
<glyph unicode="j" horiz-adv-x="501" d="M401 1309v20l-10 10l-8 2l-2 9q-12 6 -19 18l-18 2q-16 20 -49 49q-4 18 -8 27l-15 12l-12 4l-2 11l-12 3l-4 1q-29 0 -49 -13q-8 -12 -13 -22q-2 -6 2 -19l-2 -10q-4 -8 -9 -15t-9 -12l-10 -2q-12 -12 -21 -24q-10 -8 -18.5 -12.5t-12.5 -8.5l-10 -8l-6 -31l18 -30 l17 -2q41 -35 45 -43l-10 2q45 -25 53 -49l16 -7q18 -27 51 -26l27 16q8 12 10 19l-6 26q4 6 15.5 17.5t25.5 24t25.5 25.5t15.5 23l8 2zM446 924q2 4 -2 16l-12 16l-16 11q-18 2 -33.5 6t-28.5 8q-45 39 -49 53q-27 20 -46 35.5t-36 26.5q-10 2 -14 3l-4 1h-10q-8 0 -25 -2 l-8 -4l-17 -23l-2 -10l9 -27l14 -8l2 -6l-2 -21l-14 -14l-2 -8q-29 -23 -49.5 -37t-34.5 -25l-15 -30l2 -17q33 -25 53 -32l11 -15q10 -31 10 -88v-80q6 -37 6 -65q4 -8 6 -14.5t4 -14.5l-2 -18l-12 -15l-2 -24l18 -41q-25 -45 -18 -119l-4 -10l12 -58l-16 -32v-13l12 -32 q-6 -16 -4 -27q-14 -43 -16 -70q14 -27 16 -73q20 -23 27 -39q20 -29 37.5 -57.5t17.5 -67.5q0 -59 -49 -84l-29 -2l-12 22l-2 56q-16 23 -62 34l-16 -2l-43 -30q-25 -31 -25 -76q0 -39 45 -90l52 -19l8 2q8 -2 20 -6q16 0 33.5 3t38.5 7l10 -2q119 57 166 138l4 20 q12 23 29 35l9 6t30 19q20 20 24 34q2 16 2 25v6l-1 4l-3 12q-20 8 -32 21q-18 27 -19 84q0 51 -2 57l-8 4q0 12 3 41t3 45l-1 13q-1 12 -3 34v-8q-2 14 -3 43t-1 72v176q-2 16 -2 27v18q0 -8 1 6.5t3 48.5q-2 10 -3 20.5t-1 20.5l-11 -2l-8 4l2 11l17 20l2 49v2q0 4 -2 9 q31 82 37 92q18 10 28 20z" />
<glyph unicode="k" horiz-adv-x="868" d="M834 229v17l-7 10l-10 8h-20l-33 12l-16 31q0 14 -2.5 41t-2.5 37q0 18 2 25l-8 10v14l19 35q-16 74 24 133v8l-14 23q-72 29 -90 26q-8 4 -15.5 7.5t-15.5 7.5l-12 -2l2 26q31 27 39 45q23 35 42 67t36 64q20 8 43 52l-11 37l-12 8q-10 2 -14 3l-4 1h-4t-15 -2l-47 16 l-16 15l-6 2q-49 14 -66 24q-14 10 -28.5 19.5t-28.5 19.5q-47 29 -60 29h-28l-15 -6q-10 -31 -17 -52.5t-11 -35.5q-20 -27 -35 -31l-31 14q-6 37 -6 74v2q0 4 2 8q-2 8 -2 19l4 10q0 14 3 40.5t3 39.5q0 96 47 174l23 12q10 2 14 2h6l4 -1l15 -3q2 -14 -4 -35.5t-6 -32.5 l1 -7l3 -21q14 -27 32 -39l17 -4q29 4 37 10l7 6q7 6 21 21l4 20l-20 21v8l12 8l10 16q-4 35 -8 45q-2 2 -8 10.5t-20 24.5q-47 55 -148 55l-7 -1q-7 -1 -22 -3q-8 -4 -18 -10t-27 -12q-25 -10 -65 -51q-4 -10 -7 -19.5t-7 -15.5v-15l-11 -6q-16 23 -31.5 41.5t-31.5 28.5 h-8l-17 8q-20 2 -32.5 1t-20.5 -3q-12 -10 -23 -35v-16l25 -14q6 -10 12 -22.5t15 -25.5q4 -43 7 -61t3 -14q0 -242 2 -248l14 -8v-23l-6 -10l4 -18l10 -7v-6l-18 -22q-10 -41 -10 -107v-18t2 -25v-45l-8 -16l4 -51l6 -11q-10 -47 2 -78q-4 -35 -14 -49v-20l6 -12v-11 q0 -6 2 -16v-27q0 -14 -5 -44.5t-5 -45.5q0 -49 -13 -80l-10 -8l-6 -12q-18 -12 -27 -39q2 -10 2 -23q16 -10 29.5 -16t24.5 -10q4 -4 15 -12.5t28 -22.5q27 -23 49 -29l14 -14l6 -14l27 -15l6 -8l43 -8q20 6 31 16l6 31v6l-19 37q4 27 13 35l24 18v11q68 23 90 83l-10 19 q-8 6 -14 11t-10 9h-15l-12 7l-10 24l-9 8q-2 10 -3 15.5t-1 9.5q0 45 2 51q-14 37 -14 57v27l8 8q2 4 2 6v2q0 2 -2 25t-6 68q-6 68 2 82l-4 8q2 16 2 28q0 14 2 23l-12 -4q-2 16 -3 26.5t-1 18.5l16 10q2 14 2 21v6q0 16 -2 20q4 20 6 34.5t4 25.5l15 10q23 0 63 -21 q47 -23 54 -34q37 -20 67 -17l8 -4h8l13 10h10l4 -12l-2 -14l-8 -6q-41 -90 -70 -117q-20 -6 -33 -21l-18 -4q-23 4 -39 6t-26 4l-9 -2l-14 -12l-6 -12q-4 -16 14 -43l29 -12l6 -9l29 -4q20 -25 67 -30l19 -17l-13 -41q-14 -10 -10 -41q-6 -10 -6 -28q0 -16 3 -42t7 -59 l-4 -14q8 -45 -29 -80l3 -8l-19 -19l-2 -30q8 -8 19.5 -16.5t27.5 -16.5h12l11 -4l4 8l4 -14q10 -8 20.5 -16.5t20.5 -18.5l2 -8q6 -10 20.5 -21.5t30.5 -22t31.5 -17.5t25.5 -7l17 2l8 10l14 45l-8 35q2 27 39 53l-2 19q23 0 33 6q33 51 33 57z" />
<glyph unicode="l" horiz-adv-x="501" d="M500 1409q0 -2 -1 7t-3 30l-17 16q-20 14 -57 8l-8 5q-6 0 -62 -23q-23 -35 -38 -59.5t-19 -40.5l8 -13l-4 -10l-12 -4q-61 59 -101 82q-4 0 -14 2t-23.5 5t-24.5 5t-18 2h-8t-24 -2l-17 -12l-10 -18l4 -21l12 -18q10 -4 41 -41q4 -23 6.5 -40.5t4.5 -29.5q2 -72 4 -126 t6 -91l-4 -10l2 -8l-2 -9q0 -41 24 -61l-12 -12q-12 -23 -12 -109l1 -13q1 -14 3 -40l4 -8l-4 -11l6 -18q0 -14 -2 -33.5t-6 -48.5t-6 -49.5t-2 -34.5q14 -27 10 -55l8 -4l4 -11q-10 -27 -8 -63l-10 -6q6 -31 0 -72l-6 -10l4 -23l6 -10l-6 -12v-43l-15 -29q-41 -23 -49 -45 q2 -23 6 -31q4 -4 66 -37q57 -29 78 -36l16 -21q27 -16 45.5 -29.5t30.5 -21.5h10l8 -6l19 -4l14 2l16 14l11 27l-4 20l-11 10l-12 27q6 29 41 51l23 4l6 15q43 27 57 57q2 16 -2 29l-20 18q-45 8 -58 19q-10 41 -17 72.5t-11 52.5q4 10 6 18l4 16q-2 10 -2 15v4q0 47 2 51 q-10 51 -8 68l-15 2q10 20 10 36q0 10 -2 21v22l5 11l6 6q2 94 -13 127q6 16 4 22l-4 11q-4 25 13 49q-2 20 4 37q-2 10 -2 30l-11 9l3 16l-9 16q4 16 15 144q8 123 6 155q33 59 39 66q27 10 45 19t31 14z" />
<glyph unicode="m" horiz-adv-x="1239" d="M1198 240q-16 20 -61 43q-8 14 -9 43l-10 14l8 12l-6 27l2 8q-2 10 -3 17.5t-1 11.5q0 2 3 20.5t7 52.5q-23 39 -18 105l6 10q4 25 6 43.5t4 30.5l-10 14l10 10q2 49 4.5 80t6.5 45l-2 11l4 14l10 10l8 33l14 6l21 39v12q-4 4 -7 10.5t-7 12.5l-17 4l-14 10 q-16 2 -28.5 4t-20.5 4q-27 14 -47.5 23.5t-34.5 15.5q-8 2 -15 2q-6 0 -10 2q-29 18 -43 25l-4 8l-24 12q2 0 -50 11q-18 -2 -30 -15l-11 -26l5 -15l-11 -20q-10 -8 -20 -16.5t-21 -16.5q-4 -2 -8 -3t-8 -3l-16 4q-33 33 -56 70q-23 10 -53 35q-35 4 -59.5 8t-40.5 6 l-19 -12q-14 -20 -14 -29q0 -8 2 -14v-17l-14 -18l-2 -8q-41 -39 -76 -39h-23q-29 14 -37 20q-33 43 -36 53q-27 20 -55.5 40t-84.5 20h-39l-18 -8l-10 -13q-2 -4 -2 -8v-2q0 -27 8 -41q-12 -61 -74 -106l-6 -13l-10 -8l-4 -37l14 -18l18 -10q14 -2 25 -2q12 0 20 -3 q2 -6 15 -18v-33l6 -12l-4 -12q10 -41 10 -58q0 -70 -2 -63l-8 -31q4 -27 8 -35l16 -12v-22l-12 4l-12 -11q0 -14 12 -41l-2 7q-12 -92 -12 -148v-33l6 -8q-10 -23 -16.5 -39t-10.5 -26q-16 -14 -28.5 -24.5t-22.5 -16.5l-2 -11l4 -22l12 -14q20 2 101 -56q70 -53 100 -82 q27 -6 39 -12l14 2l19 14l12 23l-4 33l-12 22l6 29q37 43 53 45q16 16 27.5 28.5t19.5 20.5l6 23q-2 4 -3 10t-3 10l-12 6l-8 11q-14 2 -25 2q-8 0 -12 2l-10 14q-10 27 -11 158q0 20 2 63t2 64v2q0 4 -2 10l5 12l-5 17l13 43q-4 23 -6 41t-5 30q4 41 6.5 74t2.5 55 q10 18 20 23q10 -2 27 2q86 -41 84 -41q8 -35 13 -62.5t7 -44.5q2 -12 2 -22v-14l-10 -33q4 -29 0 -72q-2 -29 -2 -47v-25q0 -33 8 -51l-8 -16l6 -10v-13q0 -14 -3 -43.5t-3 -44.5l4 -8q-2 -25 -9 -55.5t-20 -69.5q-16 -23 -32 -31q0 -29 14 -43q25 -2 66 -36 q14 -14 28.5 -26.5t30.5 -27.5l4 -10q35 -27 72 -43q10 -2 14 -2h4l6 1t17 3l12 12l6 23q-2 18 -16 49l8 35q29 35 52.5 59.5t39.5 40.5l4 19l-2 12l-16 16l-23 9q-8 -2 -20 -3q4 23 -8 111l4 12l-2 11q4 12 4 65q0 18 -4 31q6 14 6 135q0 12 -3 32.5t-3 26.5l-13 25l-2 20 q4 8 8.5 17.5t8.5 19.5v23l6 16q-4 10 -6 19.5t-4 17.5v12l12 17l22 10l43 -8l9 -8q68 -29 98 -60l-17 -16q0 -6 -20 -66q-14 -37 -10 -69l-6 -17q0 -23 6 -35l-6 -18v-8l8 -12q0 -12 -13 -31q-4 -25 7 -41v-16l-7 -11v-18l5 -8q-4 -37 14 -56q0 -20 -1 -34.5t-3 -24.5 l14 -6l-10 -2q2 -82 -19 -113q-10 -6 -19 -10t-13 -8l-6 -19l4 -22l8 -6l4 -13q63 -8 94 -55l17 14l12 -24l-6 -10l16 -9q33 -55 102 -55h9l14 16l8 23q-20 41 -20 47l6 33q37 37 43 51l16 2q23 23 33 45z" />
<glyph unicode="n" horiz-adv-x="870" d="M856 233l-8 21l-62 20q-10 10 -16 18.5t-10 12.5q-4 23 -6 33l-2 10v76t2 12q-4 39 -6.5 63.5t-2.5 35.5l-6 6q6 45 6 55v8l-4 10q2 8 2 21q16 43 17 53q0 115 2 123q6 78 39 113q2 12 2 18v6v2q0 4 -2 13l-23 8l-2 8q-35 8 -61.5 13t-42.5 7q-10 2 -43 31q-25 18 -45 23 l-15 12q-20 8 -30 10l-7 10l-32 13h-27l-24 -13l-7 -24l9 -21q0 -8 -13 -28l-30 -27l-27 -4l-10 2q-29 29 -51.5 48.5t-36.5 33.5h-11q-47 23 -112 25l-6 4l-13 -4l-24 -27q-2 -10 -2 -14v-5q0 -6 4 -19t4 -19v-9q-2 -4 -4 -7t-4 -7l2 -8q-20 -20 -33.5 -36.5t-24.5 -27.5 l-8 -2q-16 -12 -24 -45l6 -24l26 -19q16 -2 33 -3t31 -1l10 -39q-2 -4 -2 -8v-2v-4q0 -2 2 -10q-6 -10 -6 -17q0 -10 5 -33.5t5 -35.5q0 -88 -6 -107l6 -10q2 -12 -2 -25q2 -8 3 -18t-1 -25l-10 -26q-4 -25 6 -43q-2 -4 -2 -6v-2q0 -20 2 -27l-4 -17q4 -12 2 -22l-6 -10 q-10 -90 -19 -111q-18 -8 -32 -24l-6 -13l-2 -24l4 -11q27 -33 57 -26q35 -12 57 -35l13 -20q49 -29 59 -48q20 -12 47 -18l39 12l12 13l2 26q-8 14 -12 23.5t-8 15.5l12 14l10 29l13 4q18 18 36.5 34.5t34.5 33.5l7 18v27q-27 25 -84 29l-11 6q-2 14 4 30l11 13 q16 66 16 172v2q0 4 -2 10l4 14q-4 39 -8 63.5t-8 39.5l-13 8q12 2 21 14q2 10 2 15v4q0 31 -4 43l2 12q-2 6 -2 14q-4 86 -12 105q-20 43 -21 41l6 14l12 6q35 -4 52 -14q39 -20 43 -23h8q66 -45 86 -47l-12 -8q-8 -33 -12.5 -55.5t-8.5 -38.5q6 -20 -4 -55l4 -15 q-6 -31 -6 -82v-30l12 -2l-10 -7q-4 -31 -7 -43t-3 -4q0 -10 6 -28l-2 -37l4 -8q-2 -76 6 -115l4 -8q-6 -37 -4 -52l-12 -20q-10 -4 -35 -29l-2 -16l6 -21q12 -10 49 -30q31 -14 47 -39l2 -19l23 -6l10 -14q12 -2 23 -21q41 -16 53 -24h23l20 6l12 14l4 13q-8 41 -8 43 q-8 14 -8 28q8 27 39 58l20 6q23 16 40.5 28.5t29.5 20.5z" />
<glyph unicode="o" horiz-adv-x="811" d="M754 248v8l-17 23l-18 6l-6 18l2 10l-2 13l4 6q-4 27 -12 80l4 8l-9 6q12 12 13 57q0 23 -6 39q6 25 6 31q0 14 -6 25v20q2 10 2 20q0 8 -2 15v16l4 10q-2 23 2 37q-4 25 4 45l-6 31q0 8 6 27.5t6 27.5q0 18 -2 25l6 29q14 14 14 32l-1 7q-1 6 -3 16l-32 22 q-76 12 -199 105l-19 6l-10 16l-47 23q-10 2 -16 2h-6q-12 0 -25 -4l-16 -12q-10 -16 -11 -23v-6t2 -16q-6 -27 -30 -45q-41 -29 -45 -33q-158 -37 -201 -58q-10 -16 -12 -24l4 -17q10 -16 24 -22q14 -23 15 -76q0 -47 4 -59l-4 -10q0 -35 2 -46l8 -8q-4 -10 -5 -18t-3 -15 l8 -14q2 -8 -8 -39q2 -14 2 -24t2 -15l-4 -18q2 -6 2 -76l12 -12l-10 -8q0 -63 -31 -176l-25 -29l-6 -21l13 -18q18 -4 39 -16h8q23 -8 86 -41q61 -35 71 -50q4 -2 9.5 -5t13.5 -7q8 -6 25 -6l4 -8l22 -4q31 -16 33 -23q41 -8 43 -8l35 23l8 16q0 29 -14 43l-2 16 q10 23 106 64q100 41 127 39q16 8 29.5 13t23.5 7q4 6 8.5 12.5t8.5 14.5zM508 287q2 -6 -4 -23q-10 -2 -17 -2h-4q-96 0 -159 31l-9 10q8 16 13.5 29.5t9.5 21.5q8 53 12 84l-4 8q8 14 8 33v2q0 4 -2 13l10 26v8l-14 31l8 39q0 63 -8 74q2 59 2 104q0 47 -4 80 q-10 16 -10 25v12l16 6q10 -4 19.5 -6t13.5 -4q23 -16 40 -26.5t30 -14.5l30 8v-16q-8 -14 -12 -33l2 -19q-8 -33 -8 -55l4 -43q2 -20 3 -31.5t1 -15.5l14 -16q-16 -23 -12 -41l12 -23l-2 -8l-14 -14l-2 -35l4 -10l-2 -19q2 -8 0 -51q-4 -27 -5 -40l-1 -13l1 -9q1 -10 5 -30 q8 -22 35 -47z" />
<glyph unicode="p" horiz-adv-x="870" d="M815 170v10q-4 8 -8 14.5t-8 12.5l-13 2l-16 20q-20 59 -20 269q0 16 1 29.5t3 27.5l-4 6q0 6 -2.5 18.5t-2.5 18.5q0 29 9 53l-6 13q0 12 8 22v64q0 47 15 71.5t32 48.5q-2 4 -2 7v4v2q0 4 2 12l-8 14l-17 9q-139 2 -168 18h-20q-20 10 -37.5 16t-34.5 11q-10 14 -18 18 q-6 20 -21 31l-4 18l6 27l-2 16q-18 25 -35 31q-23 -2 -38 -2q-14 0 -25 -2q-41 -23 -70.5 -40.5t-50.5 -27.5l-9 -4t-26 -14q-90 -33 -141 -39q-6 -4 -18 -19l-5 -14l9 -29q27 -18 33 -25t12 -16q16 -53 16 -184q0 -49 -2 -43l-4 -12q-2 10 -2 -23v-106v-23l10 -24l8 -4 l-12 -2q-2 -6 -2 -11v-2l6 -51q0 -8 -2 -26.5t-2 -24.5q-8 -10 -8 -39q0 -12 2 -29.5t5 -38t5 -38t2 -29.5q0 -35 -12 -66l4 -20q-4 -10 0 -25q2 -10 3 -16t1 -8q0 -166 -37 -230l-14 -14l-23 -6q-8 -4 -12 -8.5t-8 -8.5l-10 -4q-20 -20 -27 -51l2 -31l23 -26q4 -4 32 -10 q23 0 64 10q8 6 18.5 15t16.5 13q37 43 55 115l6 2l19 -8l32 -41l11 -4q29 -27 47 -35q10 0 34 -10h17q10 0 26 -2q10 10 37 22l6 27l-6 18q-31 37 -53 56q-2 4 -5 16t-9 31q-8 27 -6 47l-5 8q-2 23 -3 35l-1 12q0 92 15 156l10 2l14 24l15 11q14 6 37 6l43 -19q4 -8 12 -16 l4 -14l-2 -21q-18 -14 -23 -26l-2 -31q2 -16 19 -33q14 -2 22 -3t10 -1q45 0 123 68q20 14 37 23t27 13q59 29 72 27q4 6 10 12.5t10 10.5q2 8 3 10zM571 260h-12l-16 12q-23 2 -31 7q-27 -4 -48.5 -8.5t-39.5 -6.5q-10 -4 -16 -5l-7 -1h-28l-11 21q20 55 21 92q0 20 -6 80 q-6 57 -4 79l-4 11v18l6 16q-4 14 -8 19l-2 16l8 13l2 16l-6 10q-2 10 -2 35v64q0 55 -11 96q39 12 41 14q14 -2 62 14l8 9q4 0 13 3t14 3h14l16 -19l2 -8q-14 -84 -14 -133q0 -6 -1 -18.5t-2 -25.5t-2 -26.5t-1 -19.5v-21q0 -18 2 -59l4 -8l-4 -49q2 -8 20 -29 q-12 -4 -16 -6q-2 -27 -3 -39l-1 -12q0 -12 10 -29l-2 -8q6 -16 11 -29.5t10 -21.5q10 -8 32 -43q2 -8 2 -13v-2v-8z" />
<glyph unicode="q" horiz-adv-x="870" d="M870 -297q-2 8 -4 15.5t-4 13.5l-18 20l-10 4q-2 8 -21 19l-20 4q-51 45 -52 246q0 2 1 8t3 16q2 12 -2 25l5 20q-2 2 -13 58q0 23 6 71q4 25 6.5 43.5t2.5 28.5q0 29 -9 39q0 6 -2 23.5t-2 25.5l6 53v2q0 4 -2 11l-12 2l10 4l4 12t5 10v125q0 39 -3 29l-4 10q2 8 2 14 q0 8 2 13l-6 18q4 78 8.5 123t8.5 59q6 6 10 19q10 8 19.5 13t15.5 9l8 29l-4 16q-12 14 -19 19q-80 6 -141 39q-16 10 -25 14l-10 4q-96 72 -147 72h-37q-18 -12 -33 -31l-4 -16l6 -27l-4 -20l-12 -15l-4 -12q-12 -2 -23 -20l-71 -29q-12 2 -43 -4q-31 -8 -41 -8 q-23 -2 -41 -2h-27l-37 -3l-16 -10l-6 -12v-27q4 -4 7 -10t7 -10l8 -4q23 -45 23 -158q8 -10 8 -22l-6 -15q8 -16 8 -39q0 -10 -3 -29.5t-3 -27.5v-182q-2 -137 -35 -162l-10 -4q-12 -10 -19 -25q-2 -10 6.5 -23.5t18.5 -25.5q41 -8 63 -18q20 -16 38 -26.5t34 -18.5 q10 -18 53 -46q45 -25 70 -24q10 0 33 6q12 12 20 33l-4 28q-6 14 -20 29l-5 21l5 14q10 10 14 16l41 19q20 -4 37 -6l14 -11l14 -24l11 -2q2 -10 4 -18.5t6 -18.5q-4 -16 0 -43q2 -20 3 -30.5t1 -12.5q0 -82 -8 -90q2 -14 -10 -58q-10 -41 -23 -53q-14 -12 -23.5 -21.5 t-17.5 -15.5l-6 -18l6 -27q27 -12 37 -24q33 6 43 4q25 10 35 10q16 10 28.5 18.5t18.5 16.5l10 4l33 41l18 8l6 -4q47 -152 132 -152q39 0 55 11l22 26q2 16 2 25v6zM514 842q-10 -98 -11 -146l-1 -49l-6 -10l2 -16l8 -15q-4 -12 -6 -21.5t-4 -13.5l6 -14q-2 14 -5 -28 l-10 -140q-2 -27 21 -115l-10 -18h-29q-4 0 -23.5 4t-54.5 12l-10 -2q-4 2 -10 3t-11 3q-23 -2 -32 -6l-17 -12l-12 -2q0 14 2 25q20 31 33 41q16 33 20 53l-2 8q10 14 10 27v12q0 14 -2 41q-4 2 -8 3t-8 3q14 18 18 29l-2 49q6 8 7 88q0 12 -5.5 38.5t-5.5 41.5 q0 88 -12 143l2 8l16 19q10 0 41 -8q8 -8 33 -13l6 -4q20 -6 31 -4q21 -10 41 -14z" />
<glyph unicode="r" horiz-adv-x="696" d="M717 958q0 20 -15 41l-20 17q-6 -2 -76 24l-18 19q-16 4 -41 28q-23 2 -31 7q-12 -4 -22 -2l-15 -9q-18 -25 -18 -34q0 -16 2 -21l-6 -27q-10 -10 -19.5 -20t-19.5 -20q-10 -2 -14 -3l-5 -2h-16l-10 9q-14 23 -23.5 40t-17.5 27q-76 66 -158 66q-39 0 -47 -2l-16 -29v-16 q14 -33 16 -43q-8 -25 -18 -45q-68 -68 -68 -95q0 -12 6 -24q8 -12 38 -17.5t50 -27.5q4 -35 7 -64.5t1 -52.5l-2 -6q0 -8 13 -27l-17 -10q10 -35 13 -51q-2 -10 -11 -31l4 -29q-12 -23 -12 -49q0 -10 10 -26q0 -8 2 -20.5t2 -18.5q0 -51 -12 -72l4 -39q-6 -23 -4 -47 q-20 -37 -53 -45q-16 -18 -19 -33l2 -16l11 -12q12 -6 22 -12.5t21 -10.5h14q8 -4 17.5 -8t19.5 -6l22 -25h23q37 -16 51 -31l12 -16q12 -4 43 -27q23 -14 48 -14q33 12 47 27q2 6 2 8v4q0 37 -10 57q-2 8 4 25l10 10q80 20 115 49l18 25l4 22l-14 35q-16 4 -88 19 q-80 16 -86 14l-15 6q2 20 13 31l2 14l8 8l10 2q10 27 15.5 42.5t7.5 21.5l-11 35q0 4 3.5 18t3.5 21v65l-9 10q-2 4 -2 21v14q4 8 8.5 20.5t8.5 32.5l-13 19q-4 39 -7 70.5t-3 60.5q0 18 8 37l13 10q8 2 10 2h4h14q51 -25 54 -82v8q2 -51 36 -75l33 -5q33 23 41 37 q2 27 3 37t1 2v2q0 4 -2 8q2 8 2 21q10 18 17.5 30.5t11.5 18.5l31 23l8 16q10 6 26.5 29.5t16.5 31.5z" />
<glyph unicode="s" horiz-adv-x="813" d="M778 1001l-12 23l-12 8h-13q-6 0 -16 2q-29 -10 -53 -24l-23 2q-178 104 -221 108q-37 -4 -59 -35q-4 -16 -7 -22l5 -21l-5 -14l-6 -8q-27 -8 -45 -11l-30 -5q-16 -4 -28.5 -8.5t-21.5 -8.5l-24 6q-20 -4 -34.5 -8t-25.5 -6q-16 4 -33.5 -4t-23.5 -23l-2 -22l4 -10 l25 -19q4 -33 14 -43q-10 -16 -10 -31l6 -10l-4 -16q2 -6 1 -18.5t-3 -26t-4 -24.5t-2 -17q0 -111 41 -146q33 -16 65.5 -31.5t67.5 -31.5q8 2 22.5 -1t36.5 -7l6 -9q76 -18 99 -36q2 -16 3 -23l1 -8v-80q6 -33 45 -68q-2 -12 -13 -22q-8 -2 -12 -2h-2q-12 0 -30.5 5 t-36 14.5t-30.5 19.5t-20 20l-18 -6q-16 12 -29.5 21.5t-21.5 17.5q-47 27 -68 37q-23 2 -33 3l-10 1l-5 -1l-15 -3l-27 -27l-6 -20q6 -25 -19 -62q-33 -23 -58 -41t-42 -28q-39 -80 -39 -103q0 -10 5 -39.5t3 -42.5q12 -35 34 -55t46 -41l8 2q10 0 21 -8h22q27 0 52 8 q14 20 23 34.5t14 25.5l-2 24q-8 10 -14.5 17.5t-10.5 11.5l-18 6h-19q-12 -12 -37 -14q-25 8 -28 27l-3 20q0 8 13 39l30 22q43 6 121 -53q92 -70 135 -82q6 2 9 2h4h4t12 -2l25 8l18 19l6 24q0 18 -8 37q18 33 31 39q41 12 59 23l8 16l23 -6q18 12 47 22q18 0 52 9.5 t53 7.5q23 16 28 39q2 8 -4 20l-16 12q-6 8 -6 86q2 4 2 9l-2 10q10 55 12 84q-4 74 2 92l-6 14l4 13l-6 30l-23 29q-20 8 -34.5 13t-24.5 7l-15 11q-31 2 -57 22q-18 -2 -70 12q-53 14 -61 13l-6 4l-21 4l-24 16q-10 16 -10 54v18q0 12 2 29q2 14 2 24v19q-2 12 -6.5 24.5 t-8.5 22.5l27 -25l8 -2q37 -35 71 -60.5t62 -45.5l8 -2l9 -11q37 -14 53 -14h6t16 2l13 6l8 10l6 21q-4 43 -2 45l8 8l2 15q18 2 68 38q45 33 55 54q2 10 3 19t1 13z" />
<glyph unicode="t" horiz-adv-x="595" d="M631 1090v6t-2 18q-10 20 -31 29l-20 4l-29 -8l-19 -19q-14 -41 -32 -73q-27 -27 -78 -27h-37q-16 0 -27 2v41q0 82 15 137l-2 17q8 27 36.5 59.5t53.5 40.5l22 37l-8 37l-37 34q-14 -2 -24 -2h-17q-92 -12 -153 -176l-4 -8l6 -16q-45 70 -101 92q-10 -2 -43 4l-26 -12 l-11 -31l13 -31q51 -33 51 -170v-43q-16 -14 -43 -14l-8 6l-41 4l-12 -4l-7 -8l-4 -25q6 -16 6 -26v-70l11 -16q27 6 75 6l21 -8l4 -27l-6 -14q6 -16 -2 -37l6 -27q-2 -10 -3 -14l-1 -4v-84l12 -13v-14l-4 -10l2 -17q-14 -37 -14 -49q0 -88 -6 -100l12 -33v-12l-10 -2 q-16 -84 -11 -152q-10 -25 -8 -41l-12 -10l-10 -24l32 -56q4 -2 16.5 -6t33.5 -8q31 -10 43 -25q8 -4 14 -6t14 -4l4 -12q45 -27 72 -37l4 -8q8 0 22.5 -7.5t30 -15.5t31 -14t27.5 -6h10l23 10l12 20q2 10 1 17.5t-3 15.5l-12 17v18q2 14 45 53t51 58l4 34l-17 23 q-14 8 -34 8q-18 0 -21 -2q-12 -2 -39 14l-49 -4q-41 14 -43 13l-6 6l-12 4l2 14q25 16 37 33l6 16q0 16 -2 21q2 51 1 92t-5 74l-5 8l9 2q2 33 2 55v37v21q-6 41 -9.5 77.5t-5.5 71.5l7 14q-10 31 0 56q8 2 16 3t18 1h37q27 -20 47 -49q12 -4 25 -4h8q39 14 39 43 q-4 18 -10 30.5t-10 20.5l2 26l22 21l8 2q14 14 17 20q47 52 47 91z" />
<glyph unicode="u" horiz-adv-x="868" d="M827 223v17q-6 14 -18 22q-33 10 -45 12q-10 47 -10 62v14l6 17l-8 16l2 20l8 15l-14 20v13l8 12l-8 20q-2 8 4 23q-12 49 -13 129q0 10 4.5 30.5t4.5 28.5q0 160 12 172q37 25 51 39l6 37l-16 25q-12 4 -30.5 8t-41.5 8q-4 4 -27 18q-16 10 -22 27l-21 14 q-6 10 -15 21.5t-19 23.5q-20 2 -33 13l-37 -4l-14 -9l-19 -22q-4 -16 -6 -25q12 -39 25 -53l-31 -8l-16 -12q-8 -10 -14.5 -19.5t-10.5 -13.5l-10 -6q-14 -18 -23 -37q-2 -16 -3 -23l-1 -8v-4q0 -2 2 -8l12 -19q37 -20 52 -28q12 -18 12 -60q0 -18 -4 -56t-4 -56t8 -35 l14 -4l-12 -17q-12 -53 -12 -71q0 -20 -3 -61.5t-3 -61.5l2 -13l6 -36q12 -25 28 -35l2 -27l-16 -10q-94 18 -96 21l-31 2q-25 8 -41 8l-8 14q10 37 22 55q18 68 11 129l4 11q-4 27 -6 59.5t-2 71.5q0 90 -4 110q4 14 5 21l1 8q0 57 -6 86q6 20 6 31q23 33 32 45q2 10 1 18 t-3 17l-22 12h-12l-2 10q-39 14 -60 29q-27 25 -47 42t-35 27q-31 10 -39 11q-14 0 -23 -1t-18 -3q-18 -35 -18 -48q2 -23 14 -32v-13q-29 -35 -50 -60.5t-38 -41.5l-10 -35l2 -14l23 -23h22l6 -10h10l11 -8q0 -6 4 -21.5t4 -23.5v-10q0 -4 -2 -15v-24q-10 -12 -12 -33 l14 -23q2 -16 3 -32.5t1 -30.5q0 -4 -2 -12.5t-2 -14.5l8 -12v-51l-4 -12l4 -21q-6 -18 -4 -45l-10 -8l4 -17q-2 -8 -2 -16q0 -6 -2 -12l6 -13q2 -20 2 -30v-8q0 -59 -16 -82q-35 -41 -43 -62l-3 -18l5 -15l12 -12q39 -10 53 -18h8q20 -14 34.5 -24.5t25.5 -16.5 q74 -53 75 -56q39 -20 91 -24l24 8q18 14 19 39q-14 31 -29 49v16l10 27l10 10l29 11q37 -4 47 -11.5t12 -15.5q27 -2 39 -23l2 -10q16 -18 28.5 -31.5t21.5 -21.5q18 -6 47 -25q10 0 28.5 -7t30.5 -7q18 0 45 10q12 12 17 43q-2 10 -4.5 16.5t-4.5 10.5l-12 10q4 6 7 15.5 t7 19.5q0 2 35 33q16 16 26.5 23t12.5 10z" />
<glyph unicode="v" horiz-adv-x="856" d="M815 952l-4 17l-23 16l-34 4q-29 16 -50.5 28.5t-37.5 22.5q-41 55 -84 72h-25l-18 -12l-13 -23q2 -10 2 -20q0 -8 2 -13l13 -18v-10q-6 -16 -37 -43l-25 -4l-14 -11l4 -16q-6 -16 -25 -24l-10 -17l-2 -22q2 -10 17 -25q16 -8 29.5 -13t23.5 -10q8 -47 12 -84.5t2 -66.5 l-10 -25l10 -28q-18 -29 -18 -82q10 -27 10 -41v-19q0 -12 -2 -39q-4 -41 0 -61q2 -16 6 -29.5t8 -23.5q23 -16 23 -41v-10l-6 -13l-13 -8q-25 2 -65 12l-19 23l-24 12q-31 -4 -45 -12l-17 2l-18 12q-2 4 -3 8.5t-3 8.5q51 39 51 118q0 18 -4 54.5t-4 54.5q0 41 2 82t6 82 l-16 10q0 18 8 35q-4 14 -7 22.5t-6 12.5v20q0 27 17 82q35 39 35 57v15l-17 24q-20 2 -36.5 4t-30.5 7l-13.5 9t-15.5 11q-10 27 -70 74q-16 4 -30 16h-8q-4 2 -9 2h-16l-27 -14l-12 -27q2 -10 5 -23.5t11 -29.5v-12q-12 -12 -20 -25l-49 -43q-35 -35 -35 -53l8 -29 q18 -14 31.5 -22.5t23.5 -12.5q8 -12 21 -67q12 -53 12 -72q0 -168 6 -194q-4 -14 -6 -23.5t-4 -13.5q4 -23 -2 -76l4 -10q4 -61 -16 -92q-4 -6 -18.5 -24.5t-39.5 -47.5l-4 -21q2 -23 19 -36l14 -7q76 -6 90 -20l13 6l16 -4l4 -12l23 -4v-17q29 -16 50 -27.5t36 -19.5l6 -8 q10 -6 19 -10t15 -9l15 -2l10 -10q8 0 23.5 -3t21.5 -3q31 0 43 6l19 17l6 24v6t-2 17q-10 16 -11 28l13 21l39 26l20 -2q14 10 33 15l12 10l19 6q12 6 18 21q10 0 25.5 4t32 9t30.5 10t23 5l24 25l4 14q-2 10 -3 16.5t-1 10.5q-18 41 -24 65q0 12 -3.5 45t-3.5 50v6t3 16 l-9 25h-10q-2 23 -2 32v11v18q14 29 14 33v14q0 10 -2 25v41l-6 16q4 16 6 23q0 4 -2 14t-2 14l10 15q0 6 2.5 19t3.5 28.5t2 30t1 20.5l16 39q47 32 45 63z" />
<glyph unicode="w" horiz-adv-x="1218" d="M1178 920v32l-9 15q-43 14 -71 14l-15 14q-53 35 -75 62l-4 10q-12 6 -19 18q-16 6 -27.5 10.5t-19.5 6.5l-27 -8q-16 -16 -16 -35q4 -16 10 -30.5t10 -29.5q-49 -55 -75 -75l-13 -29v-8v-13q0 -6 2 -14l11 -12l14 -8h8l8 4l4 -15l9 -2l4 -16l-2 -12l2 -8 q-2 -14 -4 -25.5t-4 -22.5l6 -20q-4 -20 -11 -29l9 -20q2 -8 -4 -31q6 -16 -7 -49q0 -4 5.5 -16.5t5.5 -18.5q0 -16 -3 -52t-3 -52v-13q0 -6 2 -16v-29l4 -8v-41l4 -10v-10l4 -11l12 -12l4 -20q-4 -10 -12 -23q-37 0 -84 12.5t-72 14.5l-2 10l-14 12q8 53 12 77t4 15 q0 33 -1 81t-3 114t-3 115t-1 82q0 8 2 26.5t2 28.5q14 20 25.5 34.5t21.5 22.5q-2 10 2 27l-2 10q-16 16 -54 36.5t-54 37.5h-17q-12 20 -12 31q-47 35 -63 53l-45 2l-27 -19l-4 -12l4 -18l-2 -6q8 -18 8 -50v-4q0 -2 -2 -10q-16 -16 -26.5 -29.5t-18.5 -23.5q-8 -4 -13 -8 t-10 -6q-14 -16 -16 -29q-2 -14 6 -41q45 -41 66 -60q4 -12 6 -20q-4 -12 -4 -49l12 -12l-12 -25q4 -12 6 -21.5t4 -15.5q-8 -18 -8 -27v-53l-17 -12l9 -29l8 -8l3 -18l1 -6q-2 -33 -4 -50.5t-4 -21.5q6 -49 6 -74q0 -10 -8 -20v-17l-8 -20l-19 -21q-23 -4 -78 19 q-31 10 -52 15t-32 7l8 23q35 41 40.5 61.5t5.5 48.5q0 35 -1.5 59.5t-3.5 41.5q0 4 -3 14t-3 16v39l6 11q-2 41 -4 70.5t-6 49.5q2 35 1 55.5t-3 28.5q6 31 4 45q14 23 25.5 38.5t21.5 25.5q2 27 -12 45l-16 8q-39 4 -68 21q-6 4 -19.5 15t-35.5 32l-6 12l-21 14l-14 2 l-25 19q-6 -2 -10 -2h-2h-6t-17 2l-16 -8l-14 -17l-3 -21l-1 -7q0 -8 6 -26.5t6 -25.5l-6 -14l-10 -10h-7l-34 -25v-6q-8 -8 -13.5 -14t-9.5 -10q-2 -14 -3 -22l-1 -7v-12q37 -37 49 -39q2 -10 14 -21q10 -51 13 -76l8 -4q0 -2 -1 -15t-3 -36l2 -6l-2 -10q6 -25 4 -45 l-6 -17v-35q2 -14 -8 -32v-27q6 -10 6 -22l8 -15q6 -49 -10 -123l6 -22l-6 -12q-2 -8 4 -33l-6 -13l-9 -4l2 -16q-18 -31 -47 -41l-10 -22v-27l19 -19q10 0 26.5 -4t33.5 -10t33.5 -11t26.5 -5l27 -17l10 -18q8 -8 19 -8l16 -13l4 -8q8 0 37 -20q31 -16 39 -25 q39 -4 53.5 -6t5.5 -2l7 6l8 2l10 8q2 8 3 14.5t3 14.5l-4 18l-16 25q-4 39 30 51l33 -2q37 -20 72 -49q39 -29 55 -37q8 -4 24.5 -10t41.5 -16q2 -2 10 -5.5t22 -11.5q18 -8 33 -8h21l28 12q8 8 8 21v14q-10 14 -14 33l2 14q57 49 92 66q41 -10 72 2l12 -12h19q8 14 71 32 q20 6 41 12.5t41 12.5q8 10 13.5 19.5t9.5 15.5l-6 22q-16 12 -29 35q-2 20 -4 33.5t-4 17.5q2 14 3 20l1 7v139q8 39 18 57l-16 45q8 37 -6 105l8 37l-6 14q2 14 3 22.5t1 12.5l-10 16q29 51 55 66l2 10l10 2z" />
<glyph unicode="x" horiz-adv-x="858" d="M838 238v6q0 8 -2 24l-11 19l-14 10l-25 2q-51 29 -59 47q-8 16 -16.5 27.5t-16.5 19.5q-4 25 -47 58l-16 32l2 17q-31 68 -58 100l5 10q129 129 165 246l7 21l4 108q4 72 -74 113q-6 0 -18.5 2t-16.5 2q-23 0 -43 -4q-27 -14 -45 -39l-3 -9l-1 -3v-64q2 -16 18 -37 l21 -10q4 -16 7 -27.5t7 -19.5l-8 -10q2 -43 -20.5 -80t-44.5 -72l-29 -16l-12 4l-7 22l-10 8q-4 10 -12 23l-2 12q-12 25 -25 39l-2 17l-22 16q-20 43 -36 74.5t-26 52.5q2 18 1 36.5t-5 37.5l-59 28l-15 -4l-6 15q2 0 -23.5 3t-78.5 7l-27 -10l-12 -13l-10 -24 q-4 -10 6 -45l8 -13v-8l-8 -18l-14 -8v-9q-16 -20 -27 -22q-35 -47 -35 -53q0 -37 6 -45l31 -15l37 4l24 -6l42 -52.5t28 -53.5q12 -8 21 -31q27 -16 53 -70l-2 -18q-2 -8 -47 -43q-20 -16 -35 -25.5t-23 -13.5l-6 -16l-22 -15q-18 -27 -30.5 -46t-21.5 -34l-12 -8l-8 -14 l-19 -6l-4 -15l9 -14q-27 -47 -27 -156q0 -43 10 -77l-4 -19l8 -14l2 -25q55 -70 123 -63q70 25 70 82q0 23 -29 90q-27 61 -26 114q0 25 10 56q16 43 18 45q43 39 62 67q10 4 19 11.5t20 15.5l8 2q10 20 18 29q8 -41 82 -144q66 -88 70 -133q-10 -31 -39 -51l-6 -27l4 -10 l16 -16q82 -18 162 -101q49 -10 72 -18l12 4l12 10h8q2 14 3.5 19.5t1.5 3.5q0 10 -4.5 28.5t-4.5 28.5v6q6 20 21 37l14 6l8 17l11 6q14 16 29.5 35t15.5 37z" />
<glyph unicode="y" horiz-adv-x="888" d="M840 154q-16 37 -26 55l-9 18q-2 4 -9.5 11.5l-17.5 17.5t-16 39l-23 8l6 19l11 10v22q-2 10 -2 21v59q0 18 2 56t2 57q0 53 -10 80l-11 4q4 6 10.5 13t12.5 18l-4 38q14 37 14 62v18l-6 11q0 53 14 73q10 10 20.5 18.5t18.5 16.5l2 21q-4 8 -6 14t-4 10q-47 23 -71.5 35 t-28.5 14q-2 2 -12.5 10.5t-26.5 24.5q-20 20 -43 27h-2v6l-11 12q-31 10 -41 12l-14 -4l-22 -16l-9 -16q0 -8 5.5 -24.5t5.5 -27.5q0 -20 -4 -28q-14 -27 -52 -49q-8 -18 -34 -39l-3 -39l5 -11q18 -16 33.5 -27t25.5 -18l4 -6q-2 -2 2 -45v-6l-10 -20v-31l8 -10 q-6 -27 4 -56l-8 -2q-6 -53 14 -88l-4 -10l-14 -14q-2 -20 -2 -47v-58q0 -29 11 -64.5t11 -47.5v-19q-14 -2 -20 -2h-6q-2 0 -148 27q29 61 29 202q0 43 -6 60l6 14v12l-10 19l-2 22q2 8 4 14.5t4 10.5q0 16 -1 40t-3 56.5t-3 57t-1 41.5q0 25 19.5 43t25.5 34l2 25l-17 18 q-41 6 -112 78l-4 10q-25 12 -35 29q-23 8 -40.5 12.5t-27.5 8.5l-10 -2l-29 -29q-6 -16 -6 -25q0 -23 15 -43l-7 -24q-12 -4 -51 -43q-43 -43 -47 -49v-33l8 -19q37 -10 64 -43l8 -20v-14l8 -21v-24q2 -10 2 -17v-8q0 -23 -12 -41q2 -16 -2 -33q12 -18 12 -49v-12 q-10 -16 -10 -25q0 -8 8 -31q-2 -45 -3 -73.5t-1 -38.5q0 -4 3 -13.5t3 -13.5q0 -96 -16 -119q-39 -20 -45 -47l2 -37l20 -14h10q74 -41 124.5 -72.5t78.5 -52.5q6 2 39 -8l12 4l23 25l4 22l-12 23l12 39q14 12 37 37l29 -3l12 5q45 -12 72 -23l-3 -8l11 -10l10 -2l8 -7 l8 -18l6 -6q2 -10 4.5 -21.5t4.5 -27.5q-6 -29 -6 -43q-23 -29 -36.5 -48.5t-21.5 -27.5q-25 -10 -37 -23q-23 -4 -37 -16h-24q-55 0 -94 27q-18 10 -78 63l-12 2l-9 14q-14 8 -24 13.5t-19 9.5l9 2l-56 29l-51 2l-35 -21q-6 -10 -10 -18t-8 -14l-4 -29l-6 -8l-23 4l-8 6 q-16 2 -27 2h-16l-10 4q-41 -6 -62 -6q-35 -16 -59.5 -31.5t-38.5 -25.5q-12 -33 -25 -48q-4 -23 -6 -34l-2 -11q0 -47 27 -108q66 -53 106 -53q8 0 21.5 5t19.5 5q4 10 25 22q2 6 14 19l3 15l1 5v27l-16 31l-12 6q-12 0 -23 2q-16 -4 -27.5 -6t-21.5 -4l-15 16v18l11 19 q18 18 53 18q8 0 22.5 -4l29 -8t26.5 -9t18 -5q16 -10 30.5 -17.5t25.5 -9.5q29 -18 51 -33.5t37 -27.5l6 -5l12 -16q39 -23 67.5 -38l47.5 -25q12 -4 21 -6.5t18 -4.5h26l27 19l12 24q2 10 -4 37q6 37 80 72q55 20 110.5 42.5t98.5 49.5l20 2l37 29l8 2q8 8 15.5 12t11.5 8 q33 35 41 54l2 16q23 33 27 80l-4 8z" />
<glyph unicode="z" horiz-adv-x="743" d="M709 322q2 18 1 30.5t-3 18.5l-13 16q-12 0 -20 8l-37 -16l-33 -35l-4 -10q-23 -18 -41 -29.5t-29 -15.5q-4 0 -16 -3t-18 -3q-14 0 -36 2t-50.5 6t-48 7t-33.5 3q-57 0 -72 -18q4 10 6 18t4 18q35 41 35 62q29 41 56.5 79t52.5 72h16q43 0 59 -6q20 2 39 2q18 0 37 2 q47 4 72 23q16 18 18 33v26l-16 29l-17 10l-28 4q-47 -12 -84 -18q-4 10 -6 16l-2 6v9q35 35 67.5 82t61.5 104q10 27 19 47.5t13 34.5l9 6q10 31 12 41l-4 8q2 16 4 29.5t4 21.5q-4 49 -6 56l-23 20l-28 -2q-16 -12 -27.5 -22.5t-19.5 -20.5q-25 -10 -58 -10q-10 0 -36.5 5 t-71.5 15q-29 4 -48.5 8.5t-33.5 6.5l-15 -11q-12 14 -18 19l-10 -2q-14 14 -68 14h-6q-4 0 -14 -2l-23 -14q-4 -6 -7 -12.5t-7 -10.5q-2 -10 10 -65q-4 -14 -49 -60q-49 -49 -57 -67q-4 -20 -6 -29l-1 -10q0 -18 11 -35l14 -8q6 -2 8 -2h4q41 0 74 39q16 6 33 18q14 4 20 5 l6 1q29 0 67 -6t89 -16q20 8 37 2l10 4q8 -4 37 6v-10q-23 -35 -40 -60.5t-28 -42.5l-14 -10l-4 -14l-8 -8l-6 -17l-13 -6q-4 -12 -10 -18l-4 -15l-12 -14q-29 4 -50.5 7t-35.5 7q-20 2 -35 2h-23q-12 -4 -63 -8q-35 -23 -35 -22q-16 -35 -18 -54l4 -16q16 -25 43 -35l16 -2 q68 18 88 19l25 -7l-2 -12q-14 -10 -28.5 -27.5t-29.5 -41.5q0 -16 -49 -91q-45 -68 -49 -81l-8 -7l-4 -14l4 -10q-14 -8 -33 -92q-16 -76 -16 -101v-4t2 -12q14 -20 22.5 -29.5t22.5 -9.5q20 6 37 6q8 12 13 20.5t9 12.5q10 35 21 47q8 4 13 7t9 7l54 -8l18 -10h6 q29 -16 51.5 -27.5t36.5 -21.5q45 -16 64 -23l8 2l12 -6l12 4q51 -10 80 -12h29q16 6 39 31l6 22l-4 21q-10 18 -21 22l2 17q10 20 19.5 34.5t13.5 24.5l10 4q58 68 91 148z" />
<glyph unicode="{" horiz-adv-x="2031" d="M668 1317l-1 7t-3 22q-31 8 -54 8q-20 4 -73 57q-27 25 -44.5 43.5t-25.5 30.5q-14 4 -21 5l-6 1h-22l-23 -14q-8 -33 -18 -45q-29 -37 -109 -64q-80 -29 -131 -29h-47l-20 -18l-4.5 -9l-4.5 -9l9 -29l12 -17l22 -10q23 -23 29 -35q0 -14 3 -43.5t3 -44.5q0 -66 13 -80 l-5 -14l-22 4q-6 -2 -12.5 -4t-10.5 -4q-90 0 -79 2q-4 -31 -7.5 -56.5t-3.5 -47.5v-9l8 -18q6 0 17.5 -4t17.5 -4q8 0 23.5 4t21.5 4q8 0 24.5 -2t22.5 -2l-8 -12q0 -84 -4 -101l4 -14q-4 -16 -5 -26l-1 -9v-10l6 -10q2 -20 -12 -76l10 -23q0 -25 4 -70.5t4 -70.5 q0 -27 -6 -39l-12 -10l-2 -8l2 -8l6 -9v-16q0 -113 -12 -139l2 -13q-10 -16 -18.5 -28.5t-16.5 -20.5l-2 -28q10 -16 23.5 -21.5t19.5 -11.5h21q16 -6 29.5 -12.5t27.5 -12.5l6 -8h8l10 -12q16 -6 26.5 -10.5t18.5 -8.5q27 -23 43 -30q2 0 45.5 -18.5t73.5 -18.5h4q4 0 15 2 q31 14 39 26v25q-2 6 -21 20l-4 13q4 10 15.5 25.5t31.5 33.5q41 37 49 64l-10 24l-10 10q-35 12 -43 11l-6 4q-8 0 -80 14l-15 23l-30 -11l-41 9l-4 10q20 35 30.5 54.5t14.5 23.5q8 29 12 47q2 23 3 39t1 26l-6 23q10 20 11 45.5t1 44.5q0 6 -2 8l-10 8q-8 18 -8 199v16 t2 49q0 12 -3 30t-7.5 36t-7.5 35.5t-3 28.5q0 10 2 26.5t5.5 33.5t6.5 32.5t3 21.5q0 76 -29 115l-20 12l-5 58q8 8 19 8l24 -8q12 -6 19 -21l14 -10l17 2q45 -123 106 -125l10 2q18 8 25 23q0 45 12 61q33 20 55.5 34.5t38.5 24.5l7 9q2 8 2 10v4zM1264 784l-7 21 q-4 4 -8 9t-8 9q-10 2 -18 2q-6 0 -13 2l-6 41q-23 27 -28 35q-6 18 -7 29q-29 68 -45 94l-16 2q-8 16 -13 29.5t-10 23.5l-30 27l-29 2h-6l-10 -4q-16 -12 -25 -31l-2 -16q-55 -43 -70 -43q-20 -25 -98 -47q-82 -20 -94 -31q-4 0 -43 -12q-16 2 -24.5 3t-6.5 1l-24 -12 q-12 -18 -13 -31q4 -16 13 -29h18l-2 -24l18 -7q-2 -35 1.5 -61.5t7.5 -46.5l-4 -8q-2 -6 2 -19l-9 -22q-2 2 -2 -37v-8l4 -11q-2 -23 -1 -40t3 -29q-2 -45 -3 -70.5t-1 -34.5l13 -30l-13 -13q-4 -12 -8 -88q0 -35 -5 -55.5t-12 -32.5t-13.5 -17t-10.5 -11q-4 -10 -5 -15 l-1 -6v-12l8 -19l8 -6q6 -2 9 -2h4h51l12 -14l27 4l6 -17q12 -2 78 -36q33 -16 51 -26.5t23 -14.5q55 -14 83 -21l27 -8l11 1l30 3l16 21v28l-8 19q0 8 2 14t8.5 13t21.5 15.5t44 24.5q43 27 53 49l13 7q47 51 47 120v25q-8 16 -12.5 28.5t-8.5 18.5l-43 21 q-8 -6 -20.5 -8.5t-22.5 -14.5l-8 -20q0 -4 2 -13.5t5 -19.5t6 -20.5t3 -12.5l-6 -12v-8l-4 -11l-14 -4q-14 -18 -25 -20v16q-59 -4 -110 8q-78 16 -93 54l-2 14l19 10l4 10l8 9q0 8 8.5 28.5t8.5 30.5q0 86 -2 80l6 2q-2 4 -2 10q0 8 -2 16l-9 7q0 12 6.5 31.5t6.5 29.5 q0 12 -3 33.5t-3 32.5l-5 6l9 18l-4 25l2 8l-9 12q12 51 -22 113l-4 45l12 18l10 7q18 -16 35 -52q8 -27 23 -57l18 -16q55 -145 84 -170h20l21 8l10 12l10 31l25 26q27 12 55.5 25.5t44.5 36.5zM1962 915v29l-10 12l-21 9l-8 8q-41 14 -55 24h-6l-15 11l-37 8 q-20 16 -45 26l-4 9q-23 14 -38 25t-25 20l-12 2l-13 8q-6 2 -10 2h-2l-9 -1q-10 -1 -28 -3l-12 -6q-18 -23 -19 -41l1 -9l3 -24l-4 -10l-24 -27l-29 2q-18 25 -18 88q0 80 2 72q8 16 8 37l-6 12q6 43 13 89t42 77q8 2 25 10q4 -2 10 -2t14 -2q12 -12 17 -18q4 -20 -9 -49 l7 -23l20 -29l49 2l29 19q4 8 7 13t7 9q2 8 2 15v12l4 8q-4 18 -5 31.5t-3 23.5q-33 45 -57 64l-12 2l-9 10l-8 2l-8 6q-27 4 -37 9q-8 -2 -12 -2h-2h-11q-6 0 -16 2h-29q-59 -18 -85.5 -44t-55.5 -85h-14q-18 18 -32.5 31.5t-25.5 21.5q-10 0 -25.5 7t-21.5 9 q-29 -4 -43 -6l-8 -10l-8 -4l-2 -11q2 -6 2 -10v-2v-4q0 -2 -2 -8q23 -20 36 -33.5t17 -19.5q0 -10 6 -34t6 -38t3.5 -48t3.5 -50v-21q-12 -18 -13 -69q0 -8 4 -25.5t4 -24.5l-2 -75q-10 -16 -10 -45q0 -6 2 -11v-12l8 -12l-2 -8l4 -13q2 6 3 -63q0 -8 -9 -27l13 -43 q-6 -66 -7 -53q0 -8 3 -14v-17l-13 -16l-6 -29q18 -37 14 -78l7 -14q2 -10 -7 -31q4 -23 -3 -43t-7 -28q10 -35 10 -43q0 -16 -8 -46t-10 -42q-39 -20 -57 -43l-4 -15l2 -28q2 -12 16 -23l39 -6l8 -8q41 -10 74 -35v-8l10 -11l8 -2l17 -12l-9 2q53 -47 84 -47q6 0 14.5 1 t18.5 3l19 16q2 14 3 20l1 7q0 20 -13 49v13l9 18q12 12 32 16l9 7l16 4q14 10 24.5 19t18.5 13l6 15l8 6l6 14l-2 10l2 11l-8 16l-28 14l-27 2l-2 15q-39 63 -33 100l-4 8q6 18 6 170q0 16 -4 51t-4 54q0 8 1 17t3 20l-6 10q-2 6 -2 8v4q2 51 7 85t13 52l7 -4l-3 8l31 21 l10 -14q63 -35 105 -56q-23 -86 -33 -130t-12 -66l6 -15q-8 -74 6 -106q4 -41 7 -82t7 -82l5 -10q-6 -27 0 -70q4 -29 6 -45t2 -24q0 -14 -6.5 -47t-3.5 -52q-25 -55 -25 -112q0 -45 22 -113l31 -33l35 -12l49 10l25 23l10 41l-6 34q-10 12 -12 21q-12 10 -21 14l-29 35 q-2 10 -3 14l-1 4q0 31 6.5 51.5t16.5 34t23.5 23.5t25.5 23q49 20 68 34l24 2l31 21l4 24l-21 23l-6 16q-4 25 -7 49.5t-7 49.5l-4 8q-2 14 -2 27v30v88l-15 19q2 20 13 26v15l-6 10v22q-2 8 -2 13v10q0 12 4 35.5t4 36.5q0 113 -2 102q6 63 39 84l-9 -10q19 18 23 28z" />
<glyph unicode="|" horiz-adv-x="1232" d="M645 1284l2 -10l12 -17l23 -10q23 -23 29 -35q0 -14 3 -43.5t3 -44.5q0 -66 12 -80l-4 -14l-23 4l-12 -4t-10 -4q-90 0 -80 2q-4 -31 -7 -56.5t-3 -47.5v-9l8 -18q6 0 17.5 -4t17.5 -4q8 0 23.5 4t21.5 4q8 0 24.5 -2t22.5 -2l-8 -12q0 -84 -4 -101l4 -14q-4 -16 -5 -26 l-1 -9v-10l6 -10q2 -20 -12 -76l10 -23q0 -25 4 -70.5t4 -70.5q0 -27 -6 -39l-12 -10l-3 -8l3 -8l6 -9v-16q0 -113 -13 -139l2 -13q-10 -16 -18 -28.5t-16 -20.5l-2 -28q10 -16 23 -21.5t20 -11.5h20q16 -6 29.5 -12.5t27.5 -12.5l7 -8h8l10 -12q16 -6 26.5 -10.5t18.5 -8.5 q27 -23 43 -30q2 0 45 -18.5t74 -18.5h4t14 2q31 14 39 26v25q-2 6 -20 20l-4 13q4 10 15 25.5t32 33.5q41 37 49 64l-10 24l-11 10q-35 12 -43 11l-6 4q-8 0 -80 14l-14 23l-31 -11l-41 9l-4 10q20 35 30.5 54.5t14.5 23.5q8 29 13 47q2 23 3 39t1 26l-6 23q10 20 11 45.5 t1 44.5q0 6 -2 8l-10 8q-8 18 -9 199v16t2 49q0 12 -3 30t-7 36t-7 35.5t-3 28.5q0 10 2 26.5t5 33.5t6 32.5t3 21.5q0 76 -28 115l-21 12l-4 58q8 8 18 8l25 -8q12 -6 18 -21l15 -10l16 2q45 -123 107 -125l10 2q18 8 24 23q0 45 13 61q33 20 55.5 34.5t38.5 24.5l6 9 q2 8 2 10v4l-1 7t-3 22q-31 8 -53 8q-20 4 -74 57q-27 25 -44 43.5t-26 30.5q-14 4 -20 5l-6 1h-23l-22 -14q-8 -33 -19 -45q-29 -37 -108 -64q-80 -29 -131 -29h-47l-2 -2l-2 9q-31 8 -54 8q-20 4 -73 57q-27 25 -44.5 43.5t-25.5 30.5q-14 4 -21 5l-6 1h-22l-23 -14 q-8 -33 -18 -45q-29 -37 -109 -64q-80 -29 -131 -29h-47l-20 -18l-4.5 -9l-4.5 -9l9 -29l12 -17l22 -10q23 -23 29 -35q0 -14 3 -43.5t3 -44.5q0 -66 13 -80l-5 -14l-22 4q-6 -2 -12.5 -4t-10.5 -4q-90 0 -79 2q-4 -31 -7.5 -56.5t-3.5 -47.5v-9l8 -18q6 0 17.5 -4t17.5 -4 q8 0 23.5 4t21.5 4q8 0 24.5 -2t22.5 -2l-8 -12q0 -84 -4 -101l4 -14q-4 -16 -5 -26l-1 -9v-10l6 -10q2 -20 -12 -76l10 -23q0 -25 4 -70.5t4 -70.5q0 -27 -6 -39l-12 -10l-2 -8l2 -8l6 -9v-16q0 -113 -12 -139l2 -13q-10 -16 -18.5 -28.5t-16.5 -20.5l-2 -28 q10 -16 23.5 -21.5t19.5 -11.5h21q16 -6 29.5 -12.5t27.5 -12.5l6 -8h8l10 -12q16 -6 26.5 -10.5t18.5 -8.5q27 -23 43 -30q2 0 45.5 -18.5t73.5 -18.5h4q4 0 15 2q31 14 39 26v25q-2 6 -21 20l-4 13q4 10 15.5 25.5t31.5 33.5q41 37 49 64l-10 24l-10 10q-35 12 -43 11 l-6 4q-8 0 -80 14l-15 23l-30 -11l-41 9l-4 10q20 35 30.5 54.5t14.5 23.5q8 29 12 47q2 23 3 39t1 26l-6 23q10 20 11 45.5t1 44.5q0 6 -2 8l-10 8q-8 18 -8 199v16t2 49q0 12 -3 30t-7.5 36t-7.5 35.5t-3 28.5q0 10 2 26.5t5.5 33.5t6.5 32.5t3 21.5q0 76 -29 115l-20 12 l-5 58q8 8 19 8l24 -8q12 -6 19 -21l14 -10l17 2q45 -123 106 -125l10 2q18 8 25 23q0 45 12 61q51 33 80 49z" />
<glyph unicode="}" horiz-adv-x="1134" d="M1190 1090v6t-2 18q-10 20 -31 29l-20 4l-29 -8l-18 -19q-14 -41 -33 -73q-27 -27 -78 -27h-37q-16 0 -27 2v41q0 82 15 137l-2 17q8 27 36.5 59.5t53.5 40.5l22 37l-8 37l-37 34q-14 -2 -24 -2h-17q-92 -12 -153 -176l-4 -8l6 -16q-45 70 -101 92q-8 -2 -34 2 q-2 10 -2 16q0 8 -2 13q-31 8 -54 8q-20 4 -73 57q-27 25 -44.5 43.5t-25.5 30.5q-14 4 -21 5l-6 1h-22l-23 -14q-8 -33 -18 -45q-29 -37 -109 -64q-80 -29 -131 -29h-47l-20 -18l-4.5 -9l-4.5 -9l9 -29l12 -17l22 -10q23 -23 29 -35q0 -14 3 -43.5t3 -44.5q0 -66 13 -80 l-5 -14l-22 4q-6 -2 -12.5 -4t-10.5 -4q-90 0 -79 2q-4 -31 -7.5 -56.5t-3.5 -47.5v-9l8 -18q6 0 17.5 -4t17.5 -4q8 0 23.5 4t21.5 4q8 0 24.5 -2t22.5 -2l-8 -12q0 -84 -4 -101l4 -14q-4 -16 -5 -26l-1 -9v-10l6 -10q2 -20 -12 -76l10 -23q0 -25 4 -70.5t4 -70.5 q0 -27 -6 -39l-12 -10l-2 -8l2 -8l6 -9v-16q0 -113 -12 -139l2 -13q-10 -16 -18.5 -28.5t-16.5 -20.5l-2 -28q10 -16 23.5 -21.5t19.5 -11.5h21q16 -6 29.5 -12.5t27.5 -12.5l6 -8h8l10 -12q16 -6 26.5 -10.5t18.5 -8.5q27 -23 43 -30q2 0 45.5 -18.5t73.5 -18.5h4t15 2 q31 14 39 26v25q-2 6 -21 20l-4 13q4 10 15.5 25.5t31.5 33.5q41 37 49 64l-10 24l-10 10q-35 12 -43 11l-6 4q-8 0 -80 14l-15 23l-30 -11l-41 9l-4 10q20 35 30.5 54.5t14.5 23.5q8 29 12 47q2 23 3 39t1 26l-6 23q10 20 11 45.5t1 44.5q0 6 -2 8l-10 8q-8 18 -8 199v16 t2 49q0 12 -3 30t-7.5 36t-7.5 35.5t-3 28.5q0 10 2 26.5t5.5 33.5t6.5 32.5t3 21.5q0 76 -29 115l-20 12l-5 58q8 8 19 8l24 -8q12 -6 19 -21l14 -10l17 2q45 -123 106 -125l10 2q18 8 25 23q0 45 12 61q20 12 34.5 21.5t25.5 15.5l10 -27q51 -33 51 -170v-43 q-16 -14 -43 -14l-8 6l-41 4l-12 -4l-7 -8l-4 -25q6 -16 7 -26v-70l10 -16q27 6 76 6l20 -8l4 -27l-6 -14q6 -16 -2 -37l6 -27q-2 -10 -3 -14l-1 -4v-84l12 -13v-14l-4 -10l2 -17q-14 -37 -14 -49q0 -88 -6 -100l12 -33v-12l-10 -2q-16 -84 -10 -152q-10 -25 -9 -41l-12 -10 l-10 -24l33 -56q4 -2 16 -6t33 -8q31 -10 43 -25q8 -4 14 -6t14 -4l5 -12q45 -27 71 -37l4 -8q8 0 22.5 -7.5t30 -15.5t31 -14t27.5 -6h10l23 10l12 20q2 10 1 17.5t-3 15.5l-12 17v18q2 14 45 53t51 58l4 34l-16 23q-14 8 -35 8q-18 0 -21 -2q-12 -2 -39 14l-49 -4 q-41 14 -43 13l-6 6l-12 4l2 14q25 16 37 33l6 16q0 16 -2 21q2 51 1 92t-5 74l-4 8l8 2q2 33 2 55v37v21q-6 41 -9 77.5t-5 71.5l6 14q-10 31 0 56q8 2 16 3t18 1h37q27 -20 47 -49q12 -4 25 -4h8q39 14 39 43q-4 18 -10 30.5t-10 20.5l2 26l22 21l8 2q14 14 17 20 q47 52 47 91z" />
<glyph unicode="~" horiz-adv-x="950" d="M813 1450l-18 27l-23 4q-16 -2 -67 -35q-47 -31 -76 -31q-35 0 -80 19q-10 0 -25 -9h-12t-20 -2v15l-7 16q-23 4 -65 25q-20 10 -36.5 15t-29.5 7l-20 -6q-18 -18 -23 -45q2 -14 3 -23.5t1 -13.5l-18 -29q-23 -16 -47.5 -32.5t-46.5 -32.5q-61 -47 -68 -80l4 -20l13 -15 l18 -6l18 2q16 12 33 24.5t33 24.5q41 33 74 33q18 0 28 -6h17l8 -6q20 4 47 -17q14 0 29 -8h8l24 -10l15 2q51 -31 76 -35q27 6 43 29l10 29l-2 18l4 14q121 76 168 129z" />
<glyph unicode="&#xa1;" horiz-adv-x="589" d="M446 1217l-6 20l-24 20l-13 3l-12 12l-10 4q-2 4 -4 10t-6 14q-18 16 -31.5 28.5t-22.5 23.5l-14 4l-12 10l-29 6l-14 -4l-17 -12q-10 -16 -6 -51l-20 -33q-53 -37 -70 -66l2 -28q10 -18 37 -35q4 -2 14.5 -6t30.5 -15v-10q29 -31 70 -82l28 -2q25 16 35 23l8 14v10 q0 8 -6 31l2 10q29 23 50.5 39t35.5 27q0 4 1 12.5t3 22.5zM535 264q-29 23 -49.5 68t-16.5 82l-4 10v12l-12 29v37l-23 37l-2 22q4 6 8 25l-20 18l-4 12l16 25v8l-10 15q-18 6 -21.5 13t-3.5 9q0 6 3 18.5t3 16.5q0 27 -30 125q-14 51 -25.5 81.5t-19.5 45.5l-23 16 q-20 2 -41 -6q-37 -63 -35 -125l-8 -4q-4 -14 -6 -23.5t-4 -15.5l-8 -8l2 -27q-10 -23 -25 -92q-14 -57 -33 -90l9 -10l12 -6q-2 -61 -10 -84l-13 -6q-25 -129 -51 -199l-29 -25l-6 -28q39 -16 68 -21l33 -26l8 -3q8 -23 6 -30l14 -8l15 6q20 -33 20 -43l-2 -41l27 -47l8 -4 l6 -13q6 -2 23 -10h24q37 16 51 55q23 53 37 66q4 10 2 16q4 4 10.5 14.5t16.5 26.5q18 25 35 35q12 4 22 8l29 -2l10 4l14 17z" />
<glyph unicode="&#xa2;" horiz-adv-x="1028" d="M961 1178l-7 20l-18 8l-10 11l-43 -15q-39 -31 -62 -53h-10q-27 16 -35 25q-12 0 -63 18q-53 18 -78 16q-2 10 -2 15v4q0 12 3 40.5t3 43.5q-10 39 -31 53l-26 8l-37 -10q-20 -20 -25 -35q0 -14 4 -27l-8 -16q-2 -8 -2 -29v-47h-20q-49 -20 -78 -20q-16 -10 -30.5 -19.5 t-25.5 -13.5l-4 -10l-61 -31l-8 -20q-31 -23 -47 -39l-11 -19l-24 -8l-10 -35l2 -28l-11 -15v-16l-12 -10q-12 -37 -10 -47l-10 -17q-4 -29 -19 -74q-16 -55 -29 -65l-10 -6v-8l6 -7q18 -47 19 -69q0 -10 3 -27.5t3 -28.5v-14t-2 -18q8 -10 15 -17.5t12 -13.5l4 -12 q-2 -6 -2 -19q0 -31 47 -125l16 -6v-20l8 -8v-9l27 -32l24 -15q-2 -14 11 -33q92 -76 149 -71q57 -18 84 -17q-2 -12 4 -45l-6 -18q8 -92 17 -102q14 -10 24 -16.5t19 -10.5q8 2 15 4t15 6h17q14 27 14 37q-6 16 4 57q-4 20 -6 29l-2 10v13q0 8 2 18v31l14 -4q20 8 35.5 12 t26.5 8q20 16 36.5 26.5t26.5 16.5q10 2 15 2h4l6 -1t20 -3q6 -8 33 -33q27 -23 37 -26h22q8 6 27 6l12 26v9l-8 12l4 8q2 8 -4 25l-16 14q-2 4 -2 10q0 8 -2 17l-27 16l-2 18l-8 15l2 14q-6 25 -6 33v8l6 16q0 16 -8 31q2 27 -4 58l4 8q0 8 3 25.5t3 27.5q0 78 -25 94 l-16 6h-25l-30 -28q-8 -18 -9 -56v-12l6 -10l-14 -15l-2 -14l4 -16l-8 -15l2 -34l-8 -11q-8 -35 -11 -54t-6 -23q-8 -20 -15 -36t-11 -26l-19.5 -19.5t-15.5 -13.5l-14 -4l-11 -8l-20 -2q-4 80 0 86l-4 8l6 19q0 8 -3 26.5t-3 26.5v8l4 10q2 8 -6 37l4 10q0 14 -1 37 t-3 46.5t-3 46t-1 36.5q0 8 -2 23.5t-2 21.5v234q0 8 5 22.5t5 20.5t-4 18.5t-4 16.5q0 127 2 116h8q14 -8 28.5 -14t28.5 -14q20 -14 38 -43t26 -41l-6 -15q4 -6 8 -11t8 -9l2 -10l8 -11q-12 -51 15 -96l-5 -82l9 -18l30 -29l9 -2q10 4 20 6t21 6q29 23 28 70q0 10 -5 26.5 t-5 24.5v17l8 6l-2 22l-8 13l2 22l-4 10q-2 23 -2 37v27l10 10q-4 23 16 53q8 10 16.5 22.5t16.5 24.5v17l10 12zM535 500q-8 -8 -9 -29q0 4 1 -21.5t3 -78.5q2 -33 1 -56.5t-5 -40.5l4 -20q-51 14 -59 70l-10 8l-2 10l-8 10q-8 39 -9 72l-8 12q0 29 12 51l-16 13l8 43 l-10 14q4 12 -2 41l6 16l-14 15q4 16 7 23l3 7v13l-18 12l-4 8l4 17l-2 16l6 14q-2 8 2 24.5t4 22.5q0 12 -6 29q4 14 6 33q6 70 26 135l15 14v27q33 33 39 61l20 15q-2 -12 -2 -19v-6v-4q0 -2 2 -6q-6 -25 2 -45l-6 -19l6 -28q-10 -35 -6 -99l-6 -8q16 -57 8 -100l4 -12 q-2 -8 -3 -15.5t-1 -17.5q0 -12 2 -29.5t5 -36t5 -35t2 -24.5q1 -92 3 -96z" />
<glyph unicode="&#xa3;" horiz-adv-x="1118" d="M1102 291q0 6 -2 8q-14 18 -27 20h-26l-23 -10q-23 -29 -59 -51q-47 -29 -72 -22l-16 -7q-33 2 -53.5 4.5t-30.5 6.5q-2 -2 -33 -2l-8 6l-13 -4q-39 8 -41 8h-10l-10 -4q-16 2 -25 18l-24 -10h-33q-4 2 -8 2l-13 -2q-55 18 -124 18q-18 0 -45 -6q-35 -6 -48 -6l7 8 q55 27 98 99q16 31 34.5 61.5t34.5 60.5v9l-6 14q33 33 43 123q10 0 34 2t36 2q33 0 80 -6l8 -4l8 2l6 -6q39 -12 62 -25l12 2q18 10 29 29l2 10l-8 43q20 37 36 57q10 31 13 41v21l-8 20l-11 6l-24 7l-23 -9q-23 -23 -35 -36t-16 -15l-18 -2l-15 -8l-14 2q-12 -4 -21 -4 q-98 0 -110 4q-12 -4 -21 -2v14q0 14 -2 41q-4 43 -10 49q0 14 -6 99l-12 16l16 29q-4 29 16 86q23 63 43 78l48 36l18 5l10 10l2 8h11l6 -8l20 2l43 -15l21 7q10 -14 18 -21.5t23 -5.5q4 -16 18 -29q2 -16 18 -32q4 -25 7.5 -40.5t3.5 -21.5q0 -16 -3 -51t-3 -51 q0 -84 73 -111h25q39 14 51 41q2 6 2 8v4l-6 50q-8 12 -31 22l-6 21q4 16 -2 34q2 12 18 37l-4 12q6 6 11 31l12 8q6 39 16 72l6 8q8 29 11.5 52.5t5.5 44.5q-4 14 -16.5 24t-18.5 10q-29 0 -68 -20l-4 -8q-12 -16 -34 -27q-33 20 -109 45q-84 25 -115 16l-8 3 q-27 -2 -46 -3.5t-34 -1.5q-27 -6 -45 -12t-33 -10q-10 -2 -16 -2h-6q-25 -14 -43.5 -24.5t-30.5 -14.5l-6 -8q-23 -14 -39 -24.5t-27 -16.5l-4 -10l11 -5q-35 -16 -60 -26l-10 -27v-12l-12 -14q-2 -8 -9.5 -23.5t-17.5 -38.5q-23 -47 -25 -72l-6 -4l6 -22q0 -6 -5 -18.5 t-5 -16.5v-14l6 -17q-4 -8 -8 -30q4 -33 6 -55.5t4 -39.5h-79q-29 -2 -58 -57l-8 -6l-2 -14l-25 -39q4 -29 9 -35l18 -15l20 -2l58 25h14q10 0 21 2h34q14 0 19 -2q10 -8 19.5 -19.5t19.5 -25.5l-4 -29l18 -10l2 -8q-6 -6 -10 -27l4 -16l12 -8l-10 -37q2 -8 6 -21v-10 l-10 -12q-6 -16 -6 -33q0 -8 4 -24.5t4 -22.5v-6l-10 -25l-25 -26l-2 -9l4 -20l-6 -14l-20 -13l-11 -24v-8l9 -19l-4 -8q-14 -8 -27.5 -26.5t-23 -40t-15.5 -43t-6 -40.5q0 -14 22 -47l37 -10l25 10q20 43 63 60q31 10 88 10q33 0 62 -6q6 -2 14 2q61 -2 90 -23l17 4l10 -10 l2 -6l8 -6l25 -2l12 4t10 4q31 0 35 -2l23 -18l20 6q41 -10 55 -11l9 -4q12 0 36.5 -2t34.5 -2q55 0 90 27q14 16 21 41q0 27 -17 53q29 10 86 88l15 6l14 17v14q31 33 31 78z" />
<glyph unicode="&#xa4;" horiz-adv-x="1419" d="M1221 72l145 151l-205 203q80 150 80 266q0 133 -86 279l205 205l-150 149l-211 -207q-150 76 -264 76q-121 0 -272 -78l-213 211l-152 -151l211 -207q-84 -152 -84 -275q0 -133 80 -268l-207 -207l150 -147l205 202q160 -86 290 -86q131 0 273 86zM737 946 q53 0 98.5 -19.5t79 -53t52 -79.5t18.5 -100q0 -53 -19.5 -98t-53 -79t-79 -53.5t-98.5 -19.5t-98 19.5t-78 53.5t-52.5 79t-19.5 98t19.5 99.5t53.5 80t79 53t98 19.5z" />
<glyph unicode="&#xa5;" horiz-adv-x="1357" d="M1358 1280v14l-17 33l-30 23q-4 2 -8 2h-3q-20 0 -26 -2q-8 -8 -29 -15q-12 -12 -19 -18t-9 -8l-17 -2q-16 -25 -35 -35q-55 -14 -65 -15h-10l-15 9l-14 -6l-10 12l-11 4h-26l-17 8h-51q-20 0 -35 -2l-18 16q-12 2 -19 4l-6 1q-43 0 -98 -17q-47 -29 -49 -61 q6 -25 22 -49q35 -4 53.5 -7.5t22.5 -3.5q20 -16 31 -24l10 -8l8 -33l29 -10l-18 -31q0 -16 6 -31q-8 -37 -33 -51l-2 -19q4 -12 2 -16q-16 -20 -26.5 -35.5t-18.5 -25.5v-15l-10 -6v-16q-14 -25 -23 -70l-26 -26q-14 23 -25.5 39t-22.5 30q-8 25 -12 45l-18 15 q-25 49 -49 73v35l-15 10q0 8 -4 20.5t-10 24t-11.5 21.5t-5.5 16q4 23 6.5 41.5t4.5 28.5l22 10q12 14 24.5 26.5l24.5 24.5q4 8 11.5 21.5t17.5 36.5q-6 18 -6 43q-20 31 -43 32q-18 -8 -41 -2l-27 -8q-4 -4 -7 -10l-7 -14q-29 -14 -39 -17l-10 -14q-16 -4 -29.5 -7 t-21.5 -5q-12 2 -47 2q-33 0 -52 6l-24 -12l-23 22l-6 2l-14 -10l-10 18v11l-7 4q-20 -2 -28 -3t-6 -1q-4 0 -13.5 3t-15.5 1q-31 -6 -21 -7q-125 0 -149 -12q-8 -8 -15.5 -14t-15.5 -14l-8 -17q2 14 6 -37q14 -27 27 -32q45 -12 78.5 -21.5t60.5 -13.5l12 -19l2 -10l43 -16 q16 -23 28.5 -41.5t23.5 -28.5l20 -14q2 -8 2 -13v-4v-6t-2 -18l25 -23l14 4l2 -10l-4 -20l12 -23q0 -16 10 -33q14 -8 27 -8q2 -14 4 -27.5t6 -27.5l33 -8l-2 -19q-23 2 -57.5 -2t-48.5 -4h-39l-27.5 -27.5t-19.5 -21.5q-14 -29 -24.5 -50.5t-21.5 -33.5l21 -25l33 -18 l18 -2l41 22q82 10 119 13h12t23 -2q20 -4 37 6q23 -16 34 -26.5t15 -14.5q-10 -57 -11 -43q0 -8 1.5 -17.5t3.5 -19.5h-13q-6 2 -14 2q-14 0 -35.5 -1t-50.5 -3t-49 -2h-35h-59q-4 -2 -9.5 -6t-13.5 -9q-61 -78 -61 -135l8 -10q10 -4 33 -22q4 4 45 24q29 16 49 16h18 q20 0 62 -2q49 -2 63 0q6 0 20.5 4.5t22.5 4.5h14q6 -16 7 -41v-9l-9 -14q-6 -88 -38 -119l-5 -10l-28 -31l-27 -4q-25 -18 -44 -30.5t-34 -20.5q-16 -29 -26.5 -50.5t-14.5 -37.5v-14q12 -14 23.5 -27.5t21.5 -23.5q10 -4 16 -5l5 -2h31q4 0 13 6.5t18.5 14.5t17.5 15 t10 11q41 27 113 33l24 -12q14 4 25 14q14 -8 24.5 -13t16.5 -7h28l11 -10h6q20 -12 84 -13q12 0 28 6l7 -16q55 14 65 14t31.5 -4t32.5 -4h20q59 23 72 58l2 24q-6 18 -23 35q-12 -2 -28 2l-17 10l-15 3l-5 1h-4t-15 -2l-12 15l-25 2l-4 8l-16 12l-21 41q0 6 -1 17.5 t-4 23.5t-5 24.5t-2 18.5l-16 18q2 8 2 13v4v59q14 0 47 4t49 4h123q33 -29 49 -43l45 7l19 10l10 41q-10 8 -17.5 24.5t-15.5 34t-15 32.5t-16 21q-29 25 -90 25q-12 0 -32.5 -2t-42 -3t-42 -3t-32.5 -2q-6 0 -23.5 2t-25.5 2q10 57 10 84l10 10l8 23q16 -2 37 -1t47 3 q31 2 52.5 3t31.5 1l14 -3q15 -3 44 -8q10 -10 18 -17t16 -13l17 -6h12q6 4 15.5 11t21.5 15l-2 29q-8 10 -11 18.5t-5 12.5q2 20 0 39q-25 47 -37 57q-10 0 -33 4t-35 4h-25q-14 0 -36 -2q-37 -4 -62 0q2 4 2 8q0 6 2 13l19 18q10 23 16 39t10 24l-6 19l17 10q57 98 67 117 l17 12l6 19q25 23 34 34l74 54q14 2 24.5 4t18.5 4l15 14l20 6q43 41 70 64q0 41 6 51z" />
<glyph unicode="&#xa6;" horiz-adv-x="737" d="M381 674h262v661h-262v-661zM381 -307h262v590h-262v-590z" />
<glyph unicode="&#xa7;" horiz-adv-x="1024" d="M778 217q166 229 166 320q0 80 -57 137q-57 47 -103.5 82t-81.5 57q-100 70 -173.5 122t-125.5 87q-82 68 -81 108q0 33 45 90.5t82 57.5q20 0 55 -23q63 -45 116.5 -82.5t98.5 -72.5l135 184q-125 88 -210 144.5t-132 80.5q-379 -326 -379 -508q0 -80 109 -176 q-86 -104 -109 -139q-59 -90 -59 -158q0 -100 229 -280q94 -70 158.5 -117t101.5 -72q90 -68 120 -104.5t30 -77.5q0 -51 -47 -115q-37 -49 -74 -71q-274 109 -275 190q0 4 35 78l-63 55l-109 -127q-106 -125 -106 -145q0 -16 37 -47q100 -86 194 -146.5t187 -95.5 q29 23 43 35t18 16q340 285 340 506q0 96 -115 207zM590 580q176 -129 176 -170q0 -37 -64 -131q-436 322 -436 374q0 29 58 111q117 -78 182.5 -124t83.5 -60z" />
<glyph unicode="&#xa8;" horiz-adv-x="921" d="M786 1356q0 33 -38 63q-45 37 -56 54l-4 24l-6 10q-8 8 -45 19q-10 -4 -19.5 -10.5t-17.5 -10.5q-27 -27 -37 -57q-82 -43 -82 -86v-6t2 -17l15 -18q68 -39 69 -47q-6 -23 -4 -33q8 -25 17 -33l14 -8l29 -2l28 19l27 40q41 23 61 52l27 6l8 6q8 19 12 35zM440 1346 q2 14 -4 30q-23 29 -71 60q-8 14 -15 28q-2 6 2 19l-6 14l-14 14l-33 7l-27 -7q-43 -57 -65 -84l-27 -6q-29 -16 -43 -37q0 -6 1 -15t3 -23q43 -49 80 -76q-6 -16 -4 -31q14 -29 23 -41l30 -8l17 2q14 6 22 18l4 15q76 70 117 98z" />
<glyph unicode="&#xa9;" horiz-adv-x="1206" d="M610 1339q-252 0 -413.5 -159.5t-161.5 -409.5q0 -131 63 -256q76 -147 208 -228t298 -81q135 0 258 59q143 74 225 209t82 297q0 137 -61 258q-37 70 -89 128t-116.5 98t-138.5 62.5t-154 22.5zM608 1231q111 -4 201 -51q113 -59 176.5 -167t63.5 -243q0 -197 -125 -328 t-320 -131q-188 0 -319 135q-129 135 -129 324q0 197 129 330q128 135 323 131zM897 713h-117q-18 -135 -170 -135q-82 0 -125 59q-39 51 -39 137t41 143.5t123 57.5q135 0 164 -105h117q-10 86 -66 146q-84 90 -217 90q-72 0 -129 -24.5t-98 -68.5t-63.5 -104.5 t-22.5 -132.5q0 -147 82 -238.5t229 -91.5q123 0 203 72t88 195z" />
<glyph unicode="&#xab;" horiz-adv-x="663" d="M608 899v25l-14 16l-16 2l-23 -8l-43 -39q-14 -27 -27.5 -50.5t-27.5 -43.5q-10 -23 -13 -37h-12q-12 -23 -21.5 -41t-17.5 -29q-20 -45 -35.5 -77.5t-25.5 -55.5q6 -51 53 -149q23 -41 43.5 -77t40.5 -65l10 -4l8 -30q45 -45 64 -70l18 -4l31 6l6 33q-8 16 -13 28.5 t-9 20.5q-10 23 -26.5 60.5t-37.5 90.5q-45 117 -45 152q0 29 14 63l25 62q-4 20 45 108t49 113zM438 203q-10 27 -67 116q-49 74 -52 123l-8 11l-22 2l-10 24l4 21q-14 27 -21 65q29 59 49.5 105.5t34.5 79.5l2 20q12 4 28.5 25.5t16.5 33.5q14 20 24.5 36t16.5 28l4 37 l-22 18q-16 4 -35 -6q-96 -86 -119 -133q-37 -53 -69.5 -103.5t-61.5 -99.5q-14 -14 -25.5 -24.5t-19.5 -16.5l-4 -14l6 -8h10q6 -4 47 -69.5t41 -72.5q25 -25 31 -26q2 -10 6 -20.5t8 -20.5l11 -8l22 -37q8 -4 24.5 -22.5t39.5 -53.5l10 -6q14 -16 27.5 -28.5t25.5 -22.5 l41 -4z" />
<glyph unicode="&#xac;" horiz-adv-x="1228" d="M926 223h204v617h-1032v-205h828v-412z" />
<glyph unicode="&#xad;" horiz-adv-x="747" d="M666 678l-9 35l-10 10q-10 4 -16 5l-6 1q-23 0 -74 -41q-47 -39 -105 -39q-8 0 -22 2t-21 2q-10 -4 -15 -5l-5 -1h-66l-24 8q-10 -2 -23 -2h-20l-10 9q-49 4 -84 -9q-12 -12 -19 -39q4 -10 6 -16t4 -10q2 -16 -2 -31q-57 -63 -63 -111q2 -10 2 -22l8 -18l25 -7 q47 20 61 35v8l27 15l10 -2l16 4l9 6l26 -4q12 4 21.5 5t15.5 3l23 -14q33 -2 57 -2h45q98 0 135 16q20 27 21 37q0 18 -4 35l8 30q27 35 46.5 63t31.5 44z" />
<glyph unicode="&#xae;" horiz-adv-x="1206" d="M610 1339q-252 0 -413.5 -159.5t-161.5 -409.5q0 -131 63 -256q76 -147 208 -228t298 -81q135 0 258 59q143 74 225 209t82 297q0 137 -61 258q-37 70 -89 128t-116.5 98t-138.5 62.5t-154 22.5zM608 1231q111 -4 201 -51q113 -59 176.5 -167t63.5 -243q0 -197 -125 -328 t-320 -131q-199 0 -323.5 131t-124.5 328t129 330q128 135 323 131zM362 1092v-631h152v258h70q78 0 104 -51q20 -39 23 -125q4 -68 14 -82h143q-12 27 -16 96q-2 47 -6 77t-8 46q-18 61 -82 82q104 45 104 153q0 176 -229 177h-269zM514 999h92q104 0 105 -96 q0 -98 -113 -98h-84v194z" />
<glyph unicode="&#xb1;" horiz-adv-x="823" d="M350 571v-258h158v258h297v156h-295v256h-158v-256h-297v-156h295zM55 233v-157h750v157h-750z" />
<glyph unicode="&#xb4;" horiz-adv-x="606" d="M469 1462v19l-8 18l-31 19q-10 2 -31.5 -2.5t-29.5 -4.5l-9 -4q-37 2 -47 9q-12 -4 -45 -5q-37 0 -43 7q-10 -2 -25.5 -5.5t-33.5 -9.5q-14 -8 -22 -25l-7 -16q0 -18 2 -24q23 -33 86 -54q18 -35 19 -57v-6t-2 -18l-6 -13q-14 -8 -29 -33q-2 -16 5 -28t21 -29l9 -4 q10 2 16 2h12l29 14q61 74 94 183q16 10 27 22l24 6l17 17l4 12t4 10z" />
<glyph unicode="&#xb6;" horiz-adv-x="1077" d="M983 1257h107v99h-517q-186 0 -288 -53q-164 -90 -164 -299q0 -160 102 -252q94 -88 258 -88h37v-881h131v1474h203v-1474h131v1474z" />
<glyph unicode="&#xb7;" horiz-adv-x="477" d="M395 672v18q-16 37 -37 39q-12 14 -22 24.5t-19 18.5l-8 4l-2 12l-14 9q-14 37 -29 53l-20 14h-25l-33 -12l-10 -12q-4 -10 -6 -19.5t-4 -13.5l4 -21q-23 -41 -57 -53q-23 -23 -31 -43l4 -24l20 -29l19 -6q20 -16 36.5 -29.5t31.5 -21.5l8 -25l43 -39l18 -4q10 4 17.5 6 t11.5 4q23 23 22 45v2q0 4 -2 11q2 23 39 51q33 25 45 41z" />
<glyph unicode="&#xb8;" horiz-adv-x="569" d="M424 31l-72 35q-4 -8 -23.5 -31t-54.5 -62q-61 -70 -63 -90q-6 -20 27 -26q8 -2 32 0q33 0 39 -2q49 -12 41 -58q-8 -51 -65 -39q-41 14 -66.5 20.5t-38.5 8.5q-66 12 -98 -80q16 14 51 14q29 0 121 -34q61 -23 96 -23q61 0 104.5 40t43.5 99q0 84 -82 99q-35 4 -57.5 7 t-32.5 5z" />
<glyph unicode="&#xbb;" horiz-adv-x="663" d="M582 565q-4 4 -10.5 8.5t-14.5 8.5q-29 49 -55.5 92t-48.5 82l-21 2l-2 28q-8 14 -15 23.5t-14 15.5l-8 6q-8 25 -51 68t-63 51h-31l-10 -6q-4 -8 -9 -39q8 -14 15.5 -25.5t11.5 -19.5q18 -10 20 -18v-6q25 -51 52 -88l8 -7q20 -41 24 -45q12 -29 24.5 -57.5t25.5 -54.5 l6 -6q2 -12 -8 -52l4 -10v-14l-11 -23l-16 -6q-4 -31 -76 -143q-35 -57 -54 -92t-22 -52l9 -18l20 -12l12 -2l11 2q18 12 47 41l2 8q57 37 74 108q18 2 77 86q51 74 62 103l24 20zM346 559v8l-8 4q-29 61 -43 93q-16 8 -26.5 29.5t-18.5 35.5l2 16q-8 10 -8 23 q-16 25 -32.5 49.5t-33.5 50.5q-49 74 -72 78h-12t-18 -2l-15 -24l-2 -17q2 -4 7.5 -16.5t13.5 -32.5q10 -33 24 -47v-14q16 -35 29 -52l35 -106q16 -53 16 -51q14 -10 19 -25q-25 -66 -46.5 -128t-41.5 -122l-11 -10q0 -6 -6 -19.5t-13 -28.5t-13 -30.5t-6 -23.5l16 -39 l10 -8q27 4 35 8q2 16 53 80q49 61 45 77q80 105 121 244z" />
<glyph unicode="&#xbf;" horiz-adv-x="782" d="M565 1180l-2 26q-43 39 -69 58l-17 -19l-10 6l-2 31q-16 16 -31.5 32.5t-32.5 33.5l-22 10h-12l-5 -6l-10 -4l-8 -11q-2 6 -8 -63q-29 -23 -45.5 -35t-18.5 -14l-24 -47l14 -31q18 -10 33 -29l14 -4l10 -8h9l24 -23q2 -8 3 -17t5 -22l13 -4l14 -16q20 -6 35 -6l8 2l6 -2 q14 2 35 22l6 13v28q10 16 39 37t39 35zM729 356q-8 39 -8 45q-4 4 -9 11.5t-14 15.5l-22 6q-33 -4 -45 -10q-10 -25 -23 -37v-14l-8 -8l6 -23l-10 -14l-18 -11l-19 -24q-10 -4 -22.5 -5t-24.5 -3l-10 6q-33 -2 -82 20q-49 45 -62 62q-4 18 -8 31.5t-8 21.5q4 23 -10 45 l6 23l-2 8l4 37q16 41 18 63q12 37 34 81t54 95l3 13q31 18 36 139q0 6 -8 18.5t-10 16.5q-25 10 -47 10q-6 0 -8 -2q-8 -12 -29 -19q-10 -33 -19.5 -60.5t-15.5 -49.5l-16 -17q-2 -10 -2 -16v-4q2 -4 2 -8l-6 -15l-13 2l-26 -16l-4 -10l2 -12q-16 -10 -29.5 -17.5 t-24.5 -11.5l-2 -21l-16 -6l-6 -20l4 -13l-6 -18l-27 -10q-37 -31 -65 -101q-2 -8 -10.5 -36.5t-24.5 -79.5q-16 -12 -23 -29q6 -16 11.5 -28.5t9.5 -20.5q10 -51 16 -82t10 -41q20 -63 70 -100l6 -25h27l6 -8l14 -6l6 -13q12 -4 68 -24q35 -14 76 -14q12 0 29.5 3t36 8 t33.5 8t26 3q8 -2 14 -4t10 -4l2 -8l39 -29q27 0 39 3t31 30q2 12 2 18v6t-8 45l-8 9l-7 18q2 43 19 61q16 20 24.5 30.5t10.5 15.5l12 6l6 16q20 16 29 45q2 2 14 53z" />
<glyph unicode="&#xc0;" horiz-adv-x="1556" d="M1556 49l-10 23l-26 16q-27 0 -54.5 10.5t-33.5 10.5q-10 12 -16.5 22t-10.5 19l-27 8l-6 24l-12 17q-2 25 -27 59q-18 2 -43 16l17 23v8q-10 29 -18.5 52.5t-14.5 43.5q2 10 -2 31l-15 21v12q-8 25 -18 35l2 18l-4 12l-8 5q-8 23 -13.5 41t-9.5 28q33 -16 49 -14 q12 -8 20.5 -12.5t12.5 -8.5q12 -20 21.5 -35.5t13.5 -27.5l29 -21q8 -2 16 -3t16 -3q29 10 43 27l13 41q-4 16 -6 27.5t-4 15.5q-16 29 -35 39l-9 2q2 10 -4 24l-16 -6l-6 21q-41 25 -68 24l-24 17q-41 -6 -74 14h-8l-21 29l-4 26q8 33 -14 66l-12 10q-2 10 -3 14l-2 4 q0 6 -3 25t-7 49l-14 13l2 18l-25 123v10l7 8q0 16 6 23q37 29 53 41q39 2 100 49q10 27 25 35l8 37l-4 24q-6 6 -12 13.5t-13 15.5q-16 4 -23 7l-7 3h-31l-25 -10l-26 -37q-41 -25 -117 -25l-8 4q-70 6 -105 -10l-8 -14l-18 4l-15 -14l-8 20q-10 4 -16 5l-6 1 q-139 0 -166 -6q-47 12 -158 12l-16 7l-4 12q-14 12 -23.5 21.5l-15.5 15.5h-13l-8 6q-6 2 -10 2h-2q-10 0 -43 -6l-10 -6q-12 -16 -24.5 -33t-12.5 -41q0 -12 6 -33l14 -20q25 -14 35 -27q27 -4 48.5 -8t37.5 -8q16 6 43 -2l43 -13l23 -16v-16l4 -9q-6 -6 -29 -123l-27 -40 v-21q-10 -29 -19 -52.5t-15 -39.5q6 -16 -2 -35q-12 -10 -17 -20l2 -13l-10 -20l-2 -19l-4 -8l-27 -12q-98 -2 -176 -43q-96 -49 -96 -137q0 -23 2 -33l33 -33q16 -2 25 -3l10 -1l6 1l18 3q31 31 31 35v10q16 37 28 49q43 29 78 25q8 -2 21 -6q-4 -10 -13.5 -34t-19.5 -58 q-20 -63 -39 -88v-13l-8 -16v-6q-8 -23 -18.5 -42.5t-22.5 -35.5l-2 -21q-8 -10 -15.5 -20t-13.5 -21q-27 -14 -33 -38l-12 -11q-25 -4 -31 -10l-4 -16q-16 -16 -94 -56q-70 -35 -90 -82l-2 -32q10 -16 17.5 -27.5t11.5 -19.5q8 -2 14 -2q8 0 12 -2l11 2l8 -2q23 10 37 15 t22 9l8 16q61 27 78 29q10 2 30.5 4t53.5 6l8 -4q63 -6 56 -6l8 -6h16h8h45l15 -4l8 -14l27 -2q8 -4 47 -5q47 0 116 15l31 22l8 15q-4 20 -5 31l-1 10q-8 6 -13 10t-9 8q-111 18 -133 53l-3 8l-10 13q-16 49 -20 55v23q0 66 22 98l-2 16l-18 23l14 12l2 10l-12 27l27 10 l8 8l4 19l-4 20l-4 6q0 10 10 37l8 11l-2 18l14 -2l-2 -10h8q86 -59 111 -140q18 -59 19 -61l34 -14l19 4l22 18q39 156 146 191q20 -70 20 -111q0 -53 8 -84l-4 -39l11 -24q6 -45 -29 -91.5t-78 -66.5l-14 -2q-29 -27 -44.5 -39t-17.5 -14q-31 -33 -26 -74q8 -27 34 -47 q16 -8 31 -8q10 4 22.5 8t28.5 8l2 8q25 18 41 35l15 2l10 10l31 10l8 -4h6l10 4q119 6 246 -24l2 12q10 2 27 -2q31 -20 57 -16q39 -12 61 -19h13l16 6q29 -6 80 5q39 14 55 38q4 10 5 17.5t3 11.5zM920 641l-19 4q-51 -14 -88 -41l-8 -2q-18 -20 -31.5 -35.5t-21.5 -25.5 q-100 119 -162 125q-2 10 -3 14l-1 4v4q0 6 2 17q20 20 33 77q12 59 26 76v10q20 57 23 80q20 66 36.5 113t32.5 76l13 4l14 -15l76 -223l-8 -14l6 -23l34 -39v-30q-6 -6 -10 -23q2 -6 13.5 -33.5t11.5 -42.5v-6t-2 -16l31 -17zM967 1718l-4 19l-15 14l-20 8q-43 -6 -37 -6 h-39l-10 6h-56q-4 0 -14 -3t-14 -3q-29 0 -48.5 1t-29.5 3q-6 -4 -13.5 -7l-17.5 -7l-16 -21l4 -30q23 -20 40 -35t30 -23l38 -69l11 -6l-2 -21q27 -41 67 -76q35 -4 60 19l8 24q0 14 -8.5 38t-8.5 36q0 20 9 39q4 4 15 14t28 25q31 23 39 41z" />
<glyph unicode="&#xc1;" horiz-adv-x="1556" d="M1556 49l-10 23l-26 16q-27 0 -54.5 10.5t-33.5 10.5q-10 12 -16.5 22t-10.5 19l-27 8l-6 24l-12 17q-2 25 -27 59q-18 2 -43 16l17 23v8q-10 29 -18.5 52.5t-14.5 43.5q2 10 -2 31l-15 21v12q-8 25 -18 35l2 18l-4 12l-8 5q-8 23 -13.5 41t-9.5 28q33 -16 49 -14 q12 -8 20.5 -12.5t12.5 -8.5q12 -20 21.5 -35.5t13.5 -27.5l29 -21q8 -2 16 -3t16 -3q29 10 43 27l13 41q-4 16 -6 27.5t-4 15.5q-16 29 -35 39l-9 2q2 10 -4 24l-16 -6l-6 21q-41 25 -68 24l-24 17q-41 -6 -74 14h-8l-21 29l-4 26q8 33 -14 66l-12 10q-2 10 -3 14l-2 4 q0 6 -3 25t-7 49l-14 13l2 18l-25 123v10l7 8q0 16 6 23q37 29 53 41q39 2 100 49q10 27 25 35l8 37l-4 24q-6 6 -12 13.5t-13 15.5q-16 4 -23 7l-7 3h-31l-25 -10l-26 -37q-41 -25 -117 -25l-8 4q-70 6 -105 -10l-8 -14l-18 4l-15 -14l-8 20q-10 4 -16 5l-6 1 q-139 0 -166 -6q-47 12 -158 12l-16 7l-4 12q-14 12 -23.5 21.5l-15.5 15.5h-13l-8 6q-6 2 -10 2h-2q-10 0 -43 -6l-10 -6q-12 -16 -24.5 -33t-12.5 -41q0 -12 6 -33l14 -20q25 -14 35 -27q27 -4 48.5 -8t37.5 -8q16 6 43 -2l43 -13l23 -16v-16l4 -9q-6 -6 -29 -123l-27 -40 v-21q-10 -29 -19 -52.5t-15 -39.5q6 -16 -2 -35q-12 -10 -17 -20l2 -13l-10 -20l-2 -19l-4 -8l-27 -12q-98 -2 -176 -43q-96 -49 -96 -137q0 -23 2 -33l33 -33q16 -2 25 -3l10 -1l6 1l18 3q31 31 31 35v10q16 37 28 49q43 29 78 25q8 -2 21 -6q-4 -10 -13.5 -34t-19.5 -58 q-20 -63 -39 -88v-13l-8 -16v-6q-8 -23 -18.5 -42.5t-22.5 -35.5l-2 -21q-8 -10 -15.5 -20t-13.5 -21q-27 -14 -33 -38l-12 -11q-25 -4 -31 -10l-4 -16q-16 -16 -94 -56q-70 -35 -90 -82l-2 -32q10 -16 17.5 -27.5t11.5 -19.5q8 -2 14 -2q8 0 12 -2l11 2l8 -2q23 10 37 15 t22 9l8 16q61 27 78 29q10 2 30.5 4t53.5 6l8 -4q63 -6 56 -6l8 -6h16h8h45l15 -4l8 -14l27 -2q8 -4 47 -5q47 0 116 15l31 22l8 15q-4 20 -5 31l-1 10q-8 6 -13 10t-9 8q-111 18 -133 53l-3 8l-10 13q-16 49 -20 55v23q0 66 22 98l-2 16l-18 23l14 12l2 10l-12 27l27 10 l8 8l4 19l-4 20l-4 6q0 10 10 37l8 11l-2 18l14 -2l-2 -10h8q86 -59 111 -140q18 -59 19 -61l34 -14l19 4l22 18q39 156 146 191q20 -70 20 -111q0 -53 8 -84l-4 -39l11 -24q6 -45 -29 -91.5t-78 -66.5l-14 -2q-29 -27 -44.5 -39t-17.5 -14q-31 -33 -26 -74q8 -27 34 -47 q16 -8 31 -8q10 4 22.5 8t28.5 8l2 8q25 18 41 35l15 2l10 10l31 10l8 -4h6l10 4q119 6 246 -24l2 12q10 2 27 -2q31 -20 57 -16q39 -12 61 -19h13l16 6q29 -6 80 5q39 14 55 38q4 10 5 17.5t3 11.5zM920 641l-19 4q-51 -14 -88 -41l-8 -2q-18 -20 -31.5 -35.5t-21.5 -25.5 q-100 119 -162 125q-2 10 -3 14l-1 4v4q0 6 2 17q20 20 33 77q12 59 26 76v10q20 57 23 80q20 66 36.5 113t32.5 76l13 4l14 -15l76 -223l-8 -14l6 -23l34 -39v-30q-6 -6 -10 -23q2 -6 13.5 -33.5t11.5 -42.5v-6t-2 -16l31 -17zM987 1708v18l-8 19l-31 18q-10 2 -31.5 -2 t-29.5 -4l-8 -4q-37 2 -48 8q-12 -4 -45 -4q-37 0 -43 6q-10 -2 -25.5 -5t-33.5 -9q-14 -8 -22 -25l-7 -16q0 -18 2 -25q23 -33 86 -53q18 -35 19 -57v-6t-2 -19l-6 -12q-14 -8 -29 -33q-2 -16 5 -28.5t22 -28.5l8 -4q10 2 16 2h12l29 14q61 74 94 182q16 10 27 23q8 2 25 6 l16 17l4 12t4 10z" />
<glyph unicode="&#xc2;" horiz-adv-x="1556" d="M1556 49l-10 23l-26 16q-27 0 -54.5 10.5t-33.5 10.5q-10 12 -16.5 22t-10.5 19l-27 8l-6 24l-12 17q-2 25 -27 59q-18 2 -43 16l17 23v8q-10 29 -18.5 52.5t-14.5 43.5q2 10 -2 31l-15 21v12q-8 25 -18 35l2 18l-4 12l-8 5q-8 23 -13.5 41t-9.5 28q33 -16 49 -14 q12 -8 20.5 -12.5t12.5 -8.5q12 -20 21.5 -35.5t13.5 -27.5l29 -21q8 -2 16 -3t16 -3q29 10 43 27l13 41q-4 16 -6 27.5t-4 15.5q-16 29 -35 39l-9 2q2 10 -4 24l-16 -6l-6 21q-41 25 -68 24l-24 17q-41 -6 -74 14h-8l-21 29l-4 26q8 33 -14 66l-12 10q-2 10 -3 14l-2 4 q0 6 -3 25t-7 49l-14 13l2 18l-25 123v10l7 8q0 16 6 23q37 29 53 41q39 2 100 49q10 27 25 35l8 37l-4 24q-6 6 -12 13.5t-13 15.5q-16 4 -23 7l-7 3h-31l-25 -10l-26 -37q-41 -25 -117 -25l-8 4q-70 6 -105 -10l-8 -14l-18 4l-15 -14l-8 20q-10 4 -16 5l-6 1 q-139 0 -166 -6q-47 12 -158 12l-16 7l-4 12q-14 12 -23.5 21.5l-15.5 15.5h-13l-8 6q-6 2 -10 2h-2q-10 0 -43 -6l-10 -6q-12 -16 -24.5 -33t-12.5 -41q0 -12 6 -33l14 -20q25 -14 35 -27q27 -4 48.5 -8t37.5 -8q16 6 43 -2l43 -13l23 -16v-16l4 -9q-6 -6 -29 -123l-27 -40 v-21q-10 -29 -19 -52.5t-15 -39.5q6 -16 -2 -35q-12 -10 -17 -20l2 -13l-10 -20l-2 -19l-4 -8l-27 -12q-98 -2 -176 -43q-96 -49 -96 -137q0 -23 2 -33l33 -33q16 -2 25 -3l10 -1l6 1l18 3q31 31 31 35v10q16 37 28 49q43 29 78 25q8 -2 21 -6q-4 -10 -13.5 -34t-19.5 -58 q-20 -63 -39 -88v-13l-8 -16v-6q-8 -23 -18.5 -42.5t-22.5 -35.5l-2 -21q-8 -10 -15.5 -20t-13.5 -21q-27 -14 -33 -38l-12 -11q-25 -4 -31 -10l-4 -16q-16 -16 -94 -56q-70 -35 -90 -82l-2 -32q10 -16 17.5 -27.5t11.5 -19.5q8 -2 14 -2q8 0 12 -2l11 2l8 -2q23 10 37 15 t22 9l8 16q61 27 78 29q10 2 30.5 4t53.5 6l8 -4q63 -6 56 -6l8 -6h16h8h45l15 -4l8 -14l27 -2q8 -4 47 -5q47 0 116 15l31 22l8 15q-4 20 -5 31l-1 10q-8 6 -13 10t-9 8q-111 18 -133 53l-3 8l-10 13q-16 49 -20 55v23q0 66 22 98l-2 16l-18 23l14 12l2 10l-12 27l27 10 l8 8l4 19l-4 20l-4 6q0 10 10 37l8 11l-2 18l14 -2l-2 -10h8q86 -59 111 -140q18 -59 19 -61l34 -14l19 4l22 18q39 156 146 191q20 -70 20 -111q0 -53 8 -84l-4 -39l11 -24q6 -45 -29 -91.5t-78 -66.5l-14 -2q-29 -27 -44.5 -39t-17.5 -14q-31 -33 -26 -74q8 -27 34 -47 q16 -8 31 -8q10 4 22.5 8t28.5 8l2 8q25 18 41 35l15 2l10 10l31 10l8 -4h6l10 4q119 6 246 -24l2 12q10 2 27 -2q31 -20 57 -16q39 -12 61 -19h13l16 6q29 -6 80 5q39 14 55 38q4 10 5 17.5t3 11.5zM920 641l-19 4q-51 -14 -88 -41l-8 -2q-18 -20 -31.5 -35.5t-21.5 -25.5 q-100 119 -162 125q-2 10 -3 14l-1 4v4q0 6 2 17q20 20 33 77q12 59 26 76v10q20 57 23 80q20 66 36.5 113t32.5 76l13 4l14 -15l76 -223l-8 -14l6 -23l34 -39v-30q-6 -6 -10 -23q2 -6 13.5 -33.5t11.5 -42.5v-6t-2 -16l31 -17zM1102 1513l-6 27q-12 18 -35 35v14 q-8 6 -33 10l-6 9l-14 2q-121 80 -131 84l-11 14q-51 23 -61 23q-23 0 -43 -21q-16 -16 -24.5 -23.5t-10.5 -9.5q-14 -8 -23.5 -14t-17.5 -10q-10 -8 -16 -11l-6 -4q-4 -4 -14.5 -14t-28.5 -27q-35 -31 -39 -30q-25 -23 -37 -49q-2 -10 -2 -15v-4q0 -29 16 -45l21 -3l8 -1h4 q6 0 16 2l17 12l4 9h10q20 27 82 57q63 31 94 31q14 0 92 -41q78 -39 88 -54q35 -10 47 -14l31 6l14 19l5 20z" />
<glyph unicode="&#xc3;" horiz-adv-x="1556" d="M1556 49l-10 23l-26 16q-27 0 -54.5 10.5t-33.5 10.5q-10 12 -16.5 22t-10.5 19l-27 8l-6 24l-12 17q-2 25 -27 59q-18 2 -43 16l17 23v8q-10 29 -18.5 52.5t-14.5 43.5q2 10 -2 31l-15 21v12q-8 25 -18 35l2 18l-4 12l-8 5q-8 23 -13.5 41t-9.5 28q33 -16 49 -14 q12 -8 20.5 -12.5t12.5 -8.5q12 -20 21.5 -35.5t13.5 -27.5l29 -21q8 -2 16 -3t16 -3q29 10 43 27l13 41q-4 16 -6 27.5t-4 15.5q-16 29 -35 39l-9 2q2 10 -4 24l-16 -6l-6 21q-41 25 -68 24l-24 17q-41 -6 -74 14h-8l-21 29l-4 26q8 33 -14 66l-12 10q-2 10 -3 14l-2 4 q0 6 -3 25t-7 49l-14 13l2 18l-25 123v10l7 8q0 16 6 23q37 29 53 41q39 2 100 49q10 27 25 35l8 37l-4 24q-6 6 -12 13.5t-13 15.5q-16 4 -23 7l-7 3h-31l-25 -10l-26 -37q-41 -25 -117 -25l-8 4q-70 6 -105 -10l-8 -14l-18 4l-15 -14l-8 20q-10 4 -16 5l-6 1 q-139 0 -166 -6q-47 12 -158 12l-16 7l-4 12q-14 12 -23.5 21.5l-15.5 15.5h-13l-8 6q-6 2 -10 2h-2q-10 0 -43 -6l-10 -6q-12 -16 -24.5 -33t-12.5 -41q0 -12 6 -33l14 -20q25 -14 35 -27q27 -4 48.5 -8t37.5 -8q16 6 43 -2l43 -13l23 -16v-16l4 -9q-6 -6 -29 -123l-27 -40 v-21q-10 -29 -19 -52.5t-15 -39.5q6 -16 -2 -35q-12 -10 -17 -20l2 -13l-10 -20l-2 -19l-4 -8l-27 -12q-98 -2 -176 -43q-96 -49 -96 -137q0 -23 2 -33l33 -33q16 -2 25 -3l10 -1l6 1l18 3q31 31 31 35v10q16 37 28 49q43 29 78 25q8 -2 21 -6q-4 -10 -13.5 -34t-19.5 -58 q-20 -63 -39 -88v-13l-8 -16v-6q-8 -23 -18.5 -42.5t-22.5 -35.5l-2 -21q-8 -10 -15.5 -20t-13.5 -21q-27 -14 -33 -38l-12 -11q-25 -4 -31 -10l-4 -16q-16 -16 -94 -56q-70 -35 -90 -82l-2 -32q10 -16 17.5 -27.5t11.5 -19.5q8 -2 14 -2q8 0 12 -2l11 2l8 -2q23 10 37 15 t22 9l8 16q61 27 78 29q10 2 30.5 4t53.5 6l8 -4q63 -6 56 -6l8 -6h16h8h45l15 -4l8 -14l27 -2q8 -4 47 -5q47 0 116 15l31 22l8 15q-4 20 -5 31l-1 10q-8 6 -13 10t-9 8q-111 18 -133 53l-3 8l-10 13q-16 49 -20 55v23q0 66 22 98l-2 16l-18 23l14 12l2 10l-12 27l27 10 l8 8l4 19l-4 20l-4 6q0 10 10 37l8 11l-2 18l14 -2l-2 -10h8q86 -59 111 -140q18 -59 19 -61l34 -14l19 4l22 18q39 156 146 191q20 -70 20 -111q0 -53 8 -84l-4 -39l11 -24q6 -45 -29 -91.5t-78 -66.5l-14 -2q-29 -27 -44.5 -39t-17.5 -14q-31 -33 -26 -74q8 -27 34 -47 q16 -8 31 -8q10 4 22.5 8t28.5 8l2 8q25 18 41 35l15 2l10 10l31 10l8 -4h6l10 4q119 6 246 -24l2 12q10 2 27 -2q31 -20 57 -16q39 -12 61 -19h13l16 6q29 -6 80 5q39 14 55 38q4 10 5 17.5t3 11.5zM920 641l-19 4q-51 -14 -88 -41l-8 -2q-18 -20 -31.5 -35.5t-21.5 -25.5 q-100 119 -162 125q-2 10 -3 14l-1 4v4q0 6 2 17q20 20 33 77q12 59 26 76v10q20 57 23 80q20 66 36.5 113t32.5 76l13 4l14 -15l76 -223l-8 -14l6 -23l34 -39v-30q-6 -6 -10 -23q2 -6 13.5 -33.5t11.5 -42.5v-6t-2 -16l31 -17zM1210 1696l-18 26l-23 4q-16 -2 -67 -34 q-47 -31 -76 -31q-35 0 -80 18q-10 0 -24 -8h-13q-8 0 -20 -2v14l-6 17q-23 4 -66 24q-20 10 -36.5 15.5t-28.5 7.5l-21 -6q-18 -18 -22 -45q2 -14 3 -23.5t1 -13.5l-19 -29q-23 -16 -47 -32.5t-47 -32.5q-61 -47 -68 -80l5 -21l12 -14l18 -6l19 2q16 12 32.5 24.5 t32.5 24.5q41 33 74 33q18 0 29 -6h16l8 -6q20 4 47 -17q14 0 29 -8h8l25 -10l14 2q51 -31 76 -35q27 6 43 29l10 28l-2 19l4 14q121 76 168 129z" />
<glyph unicode="&#xc4;" horiz-adv-x="1556" d="M1556 49l-10 23l-26 16q-27 0 -54.5 10.5t-33.5 10.5q-10 12 -16.5 22t-10.5 19l-27 8l-6 24l-12 17q-2 25 -27 59q-18 2 -43 16l17 23v8q-10 29 -18.5 52.5t-14.5 43.5q2 10 -2 31l-15 21v12q-8 25 -18 35l2 18l-4 12l-8 5q-8 23 -13.5 41t-9.5 28q33 -16 49 -14 q12 -8 20.5 -12.5t12.5 -8.5q12 -20 21.5 -35.5t13.5 -27.5l29 -21q8 -2 16 -3t16 -3q29 10 43 27l13 41q-4 16 -6 27.5t-4 15.5q-16 29 -35 39l-9 2q2 10 -4 24l-16 -6l-6 21q-41 25 -68 24l-24 17q-41 -6 -74 14h-8l-21 29l-4 26q8 33 -14 66l-12 10q-2 10 -3 14l-2 4 q0 6 -3 25t-7 49l-14 13l2 18l-25 123v10l7 8q0 16 6 23q37 29 53 41q39 2 100 49q10 27 25 35l8 37l-4 24q-6 6 -12 13.5t-13 15.5q-16 4 -23 7l-7 3h-31l-25 -10l-26 -37q-41 -25 -117 -25l-8 4q-70 6 -105 -10l-8 -14l-18 4l-15 -14l-8 20q-10 4 -16 5l-6 1 q-139 0 -166 -6q-47 12 -158 12l-16 7l-4 12q-14 12 -23.5 21.5l-15.5 15.5h-13l-8 6q-6 2 -10 2h-2q-10 0 -43 -6l-10 -6q-12 -16 -24.5 -33t-12.5 -41q0 -12 6 -33l14 -20q25 -14 35 -27q27 -4 48.5 -8t37.5 -8q16 6 43 -2l43 -13l23 -16v-16l4 -9q-6 -6 -29 -123l-27 -40 v-21q-10 -29 -19 -52.5t-15 -39.5q6 -16 -2 -35q-12 -10 -17 -20l2 -13l-10 -20l-2 -19l-4 -8l-27 -12q-98 -2 -176 -43q-96 -49 -96 -137q0 -23 2 -33l33 -33q16 -2 25 -3l10 -1l6 1l18 3q31 31 31 35v10q16 37 28 49q43 29 78 25q8 -2 21 -6q-4 -10 -13.5 -34t-19.5 -58 q-20 -63 -39 -88v-13l-8 -16v-6q-8 -23 -18.5 -42.5t-22.5 -35.5l-2 -21q-8 -10 -15.5 -20t-13.5 -21q-27 -14 -33 -38l-12 -11q-25 -4 -31 -10l-4 -16q-16 -16 -94 -56q-70 -35 -90 -82l-2 -32q10 -16 17.5 -27.5t11.5 -19.5q8 -2 14 -2q8 0 12 -2l11 2l8 -2q23 10 37 15 t22 9l8 16q61 27 78 29q10 2 30.5 4t53.5 6l8 -4q63 -6 56 -6l8 -6h16h8h45l15 -4l8 -14l27 -2q8 -4 47 -5q47 0 116 15l31 22l8 15q-4 20 -5 31l-1 10q-8 6 -13 10t-9 8q-111 18 -133 53l-3 8l-10 13q-16 49 -20 55v23q0 66 22 98l-2 16l-18 23l14 12l2 10l-12 27l27 10 l8 8l4 19l-4 20l-4 6q0 10 10 37l8 11l-2 18l14 -2l-2 -10h8q86 -59 111 -140q18 -59 19 -61l34 -14l19 4l22 18q39 156 146 191q20 -70 20 -111q0 -53 8 -84l-4 -39l11 -24q6 -45 -29 -91.5t-78 -66.5l-14 -2q-29 -27 -44.5 -39t-17.5 -14q-31 -33 -26 -74q8 -27 34 -47 q16 -8 31 -8q10 4 22.5 8t28.5 8l2 8q25 18 41 35l15 2l10 10l31 10l8 -4h6l10 4q119 6 246 -24l2 12q10 2 27 -2q31 -20 57 -16q39 -12 61 -19h13l16 6q29 -6 80 5q39 14 55 38q4 10 5 17.5t3 11.5zM920 641l-19 4q-51 -14 -88 -41l-8 -2q-18 -20 -31.5 -35.5t-21.5 -25.5 q-100 119 -162 125q-2 10 -3 14l-1 4v4q0 6 2 17q20 20 33 77q12 59 26 76v10q20 57 23 80q20 66 36.5 113t32.5 76l13 4l14 -15l76 -223l-8 -14l6 -23l34 -39v-30q-6 -6 -10 -23q2 -6 13.5 -33.5t11.5 -42.5v-6t-2 -16l31 -17zM1153 1602q0 33 -39 63q-45 37 -55 53l-4 25 l-6 10q-8 8 -45 19q-10 -4 -19.5 -10.5t-17.5 -10.5q-27 -27 -37 -57q-82 -43 -82 -86v-6t2 -17l14 -18q68 -39 70 -47q-6 -23 -4 -33q8 -25 16 -33l15 -8l28 -2l29 18l26 41q41 23 62 51l27 7l8 6q8 19 12 35zM807 1591q2 14 -4 31q-23 29 -72 59q-8 14 -14 29q-2 6 2 19 l-6 14l-15 14l-32 6l-27 -6q-43 -57 -66 -84l-26 -6q-29 -16 -43 -37q0 -6 1 -15t3 -24q43 -49 80 -75q-6 -16 -4 -31q14 -29 22 -41l31 -8l16 2q14 6 23 18l4 14q76 70 117 99z" />
<glyph unicode="&#xc5;" horiz-adv-x="1556" d="M1556 49l-10 23l-26 16q-27 0 -54.5 10.5t-33.5 10.5q-10 12 -16.5 22t-10.5 19l-27 8l-6 24l-12 17q-2 25 -27 59q-18 2 -43 16l17 23v8q-10 29 -18.5 52.5t-14.5 43.5q2 10 -2 31l-15 21v12q-8 25 -18 35l2 18l-4 12l-8 5q-8 23 -13.5 41t-9.5 28q33 -16 49 -14 q12 -8 20.5 -12.5t12.5 -8.5q12 -20 21.5 -35.5t13.5 -27.5l29 -21q8 -2 16 -3t16 -3q29 10 43 27l13 41q-4 16 -6 27.5t-4 15.5q-16 29 -35 39l-9 2q2 10 -4 24l-16 -6l-6 21q-41 25 -68 24l-24 17q-41 -6 -74 14h-8l-21 29l-4 26q8 33 -14 66l-12 10q-2 10 -3 14l-2 4 q0 6 -3 25t-7 49l-14 13l2 18l-25 123v10l7 8q0 16 6 23q37 29 53 41q39 2 100 49q10 27 25 35l8 37l-4 24q-6 6 -12 13.5t-13 15.5q-16 4 -23 7l-7 3h-31l-25 -10l-26 -37q-41 -25 -117 -25l-8 4q-70 6 -105 -10l-8 -14l-18 4l-15 -14l-8 20q-10 4 -16 5l-6 1 q-139 0 -166 -6q-47 12 -158 12l-16 7l-4 12q-14 12 -23.5 21.5l-15.5 15.5h-13l-8 6q-6 2 -10 2h-2q-10 0 -43 -6l-10 -6q-12 -16 -24.5 -33t-12.5 -41q0 -12 6 -33l14 -20q25 -14 35 -27q27 -4 48.5 -8t37.5 -8q16 6 43 -2l43 -13l23 -16v-16l4 -9q-6 -6 -29 -123l-27 -40 v-21q-10 -29 -19 -52.5t-15 -39.5q6 -16 -2 -35q-12 -10 -17 -20l2 -13l-10 -20l-2 -19l-4 -8l-27 -12q-98 -2 -176 -43q-96 -49 -96 -137q0 -23 2 -33l33 -33q16 -2 25 -3l10 -1l6 1l18 3q31 31 31 35v10q16 37 28 49q43 29 78 25q8 -2 21 -6q-4 -10 -13.5 -34t-19.5 -58 q-20 -63 -39 -88v-13l-8 -16v-6q-8 -23 -18.5 -42.5t-22.5 -35.5l-2 -21q-8 -10 -15.5 -20t-13.5 -21q-27 -14 -33 -38l-12 -11q-25 -4 -31 -10l-4 -16q-16 -16 -94 -56q-70 -35 -90 -82l-2 -32q10 -16 17.5 -27.5t11.5 -19.5q8 -2 14 -2q8 0 12 -2l11 2l8 -2q23 10 37 15 t22 9l8 16q61 27 78 29q10 2 30.5 4t53.5 6l8 -4q63 -6 56 -6l8 -6h16h8h45l15 -4l8 -14l27 -2q8 -4 47 -5q47 0 116 15l31 22l8 15q-4 20 -5 31l-1 10q-8 6 -13 10t-9 8q-111 18 -133 53l-3 8l-10 13q-16 49 -20 55v23q0 66 22 98l-2 16l-18 23l14 12l2 10l-12 27l27 10 l8 8l4 19l-4 20l-4 6q0 10 10 37l8 11l-2 18l14 -2l-2 -10h8q86 -59 111 -140q18 -59 19 -61l34 -14l19 4l22 18q39 156 146 191q20 -70 20 -111q0 -53 8 -84l-4 -39l11 -24q6 -45 -29 -91.5t-78 -66.5l-14 -2q-29 -27 -44.5 -39t-17.5 -14q-31 -33 -26 -74q8 -27 34 -47 q16 -8 31 -8q10 4 22.5 8t28.5 8l2 8q25 18 41 35l15 2l10 10l31 10l8 -4h6l10 4q119 6 246 -24l2 12q10 2 27 -2q31 -20 57 -16q39 -12 61 -19h13l16 6q29 -6 80 5q39 14 55 38q4 10 5 17.5t3 11.5zM920 641l-19 4q-51 -14 -88 -41l-8 -2q-18 -20 -31.5 -35.5t-21.5 -25.5 q-100 119 -162 125q-2 10 -3 14l-1 4v4q0 6 2 17q20 20 33 77q12 59 26 76v10q20 57 23 80q20 66 36.5 113t32.5 76l13 4l14 -15l76 -223l-8 -14l6 -23l34 -39v-30q-6 -6 -10 -23q2 -6 13.5 -33.5t11.5 -42.5v-6t-2 -16l31 -17zM999 1595q-16 14 -43 93q-23 59 -65 73l-6 11 q-102 12 -115 12h-10q-29 -12 -43 -19q-41 -25 -68 -92q-29 -68 -45 -78q29 -31 35 -43q4 -43 55 -82q27 -20 50.5 -33.5t46.5 -17.5l46 4t46 7l8 8l8 2q10 12 19.5 21t15.5 16l18 12q14 70 31 92zM899 1608q-23 -74 -37 -95q-10 -4 -14 -14q-16 -2 -25 -2h-6h-4t-14 2 l-11 8l-8 15h-18l-31 18q-4 29 -12 41l-4 39q4 16 4 20l33 48l20 6l12 12l64 -6l29 -21l14 -51l6 -8z" />
</font>
</defs>
</svg>
