<?xml version="1.0" encoding="UTF-8"?>
<!-- Created with Inkscape (http://www.inkscape.org/) -->
<svg width="129.65mm" height="109.2mm" version="1.1" viewBox="0 0 129.65 109.2" xmlns="http://www.w3.org/2000/svg">
 <g transform="translate(-38.351 -111.64)">
  <g fill="none" stroke="#000">
   <path d="m38.519 112.3h129.48" stroke-width="1.3229"/>
   <path d="m38.351 220.18h129.48" stroke-width="1.3229"/>
   <g stroke-width="1.3229px">
    <path d="m38.351 220.18h129.48"/>
    <path d="m38.354 218.26h129.48"/>
    <path d="m38.357 216.33h129.48"/>
    <path d="m38.36 214.4h129.48"/>
    <path d="m38.363 212.48h129.48"/>
    <path d="m38.366 210.55h129.48"/>
    <path d="m38.369 208.62h129.48"/>
    <path d="m38.372 206.7h129.48"/>
    <path d="m38.375 204.77h129.48"/>
    <path d="m38.378 202.85h129.48"/>
    <path d="m38.381 200.92h129.48"/>
    <path d="m38.384 198.99h129.48"/>
    <path d="m38.387 197.07h129.48"/>
    <path d="m38.39 195.14h129.48"/>
    <path d="m38.393 193.21h129.48"/>
    <path d="m38.396 191.29h129.48"/>
    <path d="m38.399 189.36h129.48"/>
    <path d="m38.402 187.43h129.48"/>
    <path d="m38.405 185.51h129.48"/>
    <path d="m38.408 183.58h129.48"/>
    <path d="m38.411 181.66h129.48"/>
    <path d="m38.414 179.73h129.48"/>
    <path d="m38.417 177.8h129.48"/>
    <path d="m38.42 175.88h129.48"/>
    <path d="m38.423 173.95h129.48"/>
    <path d="m38.426 172.02h129.48"/>
    <path d="m38.429 170.1h129.48"/>
    <path d="m38.432 168.17h129.48"/>
    <path d="m38.435 166.24h129.48"/>
    <path d="m38.438 164.32h129.48"/>
    <path d="m38.441 162.39h129.48"/>
    <path d="m38.444 160.46h129.48"/>
    <path d="m38.447 158.54h129.48"/>
    <path d="m38.45 156.61h129.48"/>
    <path d="m38.453 154.68h129.48"/>
    <path d="m38.456 152.76h129.48"/>
    <path d="m38.459 150.83h129.48"/>
    <path d="m38.462 148.9h129.48"/>
    <path d="m38.465 146.98h129.48"/>
    <path d="m38.468 145.05h129.48"/>
    <path d="m38.471 143.12h129.48"/>
    <path d="m38.474 141.2h129.48"/>
    <path d="m38.477 139.27h129.48"/>
    <path d="m38.48 137.35h129.48"/>
    <path d="m38.483 135.42h129.48"/>
    <path d="m38.486 133.49h129.48"/>
    <path d="m38.489 131.57h129.48"/>
    <path d="m38.492 129.64h129.48"/>
    <path d="m38.495 127.71h129.48"/>
    <path d="m38.498 125.79h129.48"/>
    <path d="m38.501 123.86h129.48"/>
    <path d="m38.504 121.93h129.48"/>
    <path d="m38.507 120.01h129.48"/>
    <path d="m38.51 118.08h129.48"/>
    <path d="m38.513 116.16h129.48"/>
    <path d="m38.516 114.23h129.48"/>
    <path d="m38.519 112.3h129.48"/>
   </g>
   <g stroke-width="1.3229px">
    <path d="m38.351 220.18h129.48"/>
    <path d="m38.354 218.26h129.48"/>
    <path d="m38.357 216.33h129.48"/>
    <path d="m38.36 214.4h129.48"/>
    <path d="m38.363 212.48h129.48"/>
    <path d="m38.366 210.55h129.48"/>
    <path d="m38.369 208.62h129.48"/>
    <path d="m38.372 206.7h129.48"/>
    <path d="m38.375 204.77h129.48"/>
    <path d="m38.378 202.85h129.48"/>
    <path d="m38.381 200.92h129.48"/>
    <path d="m38.384 198.99h129.48"/>
    <path d="m38.387 197.07h129.48"/>
    <path d="m38.39 195.14h129.48"/>
    <path d="m38.393 193.21h129.48"/>
    <path d="m38.396 191.29h129.48"/>
    <path d="m38.399 189.36h129.48"/>
    <path d="m38.402 187.43h129.48"/>
    <path d="m38.405 185.51h129.48"/>
    <path d="m38.408 183.58h129.48"/>
    <path d="m38.411 181.66h129.48"/>
    <path d="m38.414 179.73h129.48"/>
    <path d="m38.417 177.8h129.48"/>
    <path d="m38.42 175.88h129.48"/>
    <path d="m38.423 173.95h129.48"/>
    <path d="m38.426 172.02h129.48"/>
    <path d="m38.429 170.1h129.48"/>
    <path d="m38.432 168.17h129.48"/>
    <path d="m38.435 166.24h129.48"/>
    <path d="m38.438 164.32h129.48"/>
    <path d="m38.441 162.39h129.48"/>
    <path d="m38.444 160.46h129.48"/>
    <path d="m38.447 158.54h129.48"/>
    <path d="m38.45 156.61h129.48"/>
    <path d="m38.453 154.68h129.48"/>
    <path d="m38.456 152.76h129.48"/>
    <path d="m38.459 150.83h129.48"/>
    <path d="m38.462 148.9h129.48"/>
    <path d="m38.465 146.98h129.48"/>
    <path d="m38.468 145.05h129.48"/>
    <path d="m38.471 143.12h129.48"/>
    <path d="m38.474 141.2h129.48"/>
    <path d="m38.477 139.27h129.48"/>
    <path d="m38.48 137.35h129.48"/>
    <path d="m38.483 135.42h129.48"/>
    <path d="m38.486 133.49h129.48"/>
    <path d="m38.489 131.57h129.48"/>
    <path d="m38.492 129.64h129.48"/>
    <path d="m38.495 127.71h129.48"/>
    <path d="m38.498 125.79h129.48"/>
    <path d="m38.501 123.86h129.48"/>
    <path d="m38.504 121.93h129.48"/>
    <path d="m38.507 120.01h129.48"/>
    <path d="m38.51 118.08h129.48"/>
    <path d="m38.513 116.16h129.48"/>
    <path d="m38.516 114.23h129.48"/>
    <path d="m38.519 112.3h129.48"/>
   </g>
  </g>
 </g>
</svg>
